WD-XL_Lubrifont-SC.ufo
<glyph name="numbersign" format="2">
  <advance width="615"/>
  <unicode hex="0023"/>
  <outline>
    <contour>
      <point x="60" y="-44" type="qcurve" smooth="yes"/>
      <point x="60" y="-37"/>
      <point x="61" y="-33" type="qcurve" smooth="yes"/>
      <point x="76" y="54" type="line" smooth="yes"/>
      <point x="77" y="60"/>
      <point x="77" y="69" type="qcurve" smooth="yes"/>
      <point x="77" y="97"/>
      <point x="56" y="97" type="qcurve" smooth="yes"/>
      <point x="28" y="97"/>
      <point x="28" y="137" type="qcurve" smooth="yes"/>
      <point x="28" y="152" type="line" smooth="yes"/>
      <point x="28" y="171"/>
      <point x="48" y="192"/>
      <point x="65" y="192" type="qcurve" smooth="yes"/>
      <point x="101" y="192"/>
      <point x="107" y="228" type="qcurve" smooth="yes"/>
      <point x="147" y="453" type="line" smooth="yes"/>
      <point x="148" y="457"/>
      <point x="148" y="464" type="qcurve" smooth="yes"/>
      <point x="148" y="480"/>
      <point x="128" y="496"/>
      <point x="111" y="496" type="qcurve" smooth="yes"/>
      <point x="93" y="496" type="line" smooth="yes"/>
      <point x="53" y="496"/>
      <point x="53" y="536" type="qcurve" smooth="yes"/>
      <point x="53" y="551" type="line" smooth="yes"/>
      <point x="53" y="591"/>
      <point x="93" y="591" type="qcurve" smooth="yes"/>
      <point x="135" y="591" type="line" smooth="yes"/>
      <point x="172" y="591"/>
      <point x="178" y="627" type="qcurve" smooth="yes"/>
      <point x="197" y="734" type="line" smooth="yes"/>
      <point x="203" y="770"/>
      <point x="240" y="770" type="qcurve" smooth="yes"/>
      <point x="261" y="770" type="line" smooth="yes"/>
      <point x="278" y="770"/>
      <point x="298" y="754"/>
      <point x="298" y="738" type="qcurve" smooth="yes"/>
      <point x="298" y="731"/>
      <point x="297" y="727" type="qcurve" smooth="yes"/>
      <point x="281" y="634" type="line" smooth="yes"/>
      <point x="280" y="630"/>
      <point x="280" y="623" type="qcurve" smooth="yes"/>
      <point x="280" y="607"/>
      <point x="300" y="591"/>
      <point x="317" y="591" type="qcurve" smooth="yes"/>
      <point x="363" y="591" type="line" smooth="yes"/>
      <point x="400" y="591"/>
      <point x="406" y="627" type="qcurve" smooth="yes"/>
      <point x="425" y="734" type="line" smooth="yes"/>
      <point x="431" y="770"/>
      <point x="468" y="770" type="qcurve" smooth="yes"/>
      <point x="489" y="770" type="line" smooth="yes"/>
      <point x="506" y="770"/>
      <point x="526" y="754"/>
      <point x="526" y="738" type="qcurve" smooth="yes"/>
      <point x="526" y="731"/>
      <point x="525" y="727" type="qcurve" smooth="yes"/>
      <point x="509" y="634" type="line" smooth="yes"/>
      <point x="508" y="630"/>
      <point x="508" y="623" type="qcurve" smooth="yes"/>
      <point x="508" y="607"/>
      <point x="528" y="591"/>
      <point x="545" y="591" type="qcurve" smooth="yes"/>
      <point x="548" y="591" type="line" smooth="yes"/>
      <point x="588" y="591"/>
      <point x="588" y="551" type="qcurve" smooth="yes"/>
      <point x="588" y="536" type="line" smooth="yes"/>
      <point x="588" y="496"/>
      <point x="548" y="496" type="qcurve" smooth="yes"/>
      <point x="521" y="496" type="line" smooth="yes"/>
      <point x="484" y="496"/>
      <point x="478" y="460" type="qcurve" smooth="yes"/>
      <point x="438" y="235" type="line" smooth="yes"/>
      <point x="437" y="231"/>
      <point x="437" y="224" type="qcurve" smooth="yes"/>
      <point x="437" y="208"/>
      <point x="457" y="192"/>
      <point x="474" y="192" type="qcurve" smooth="yes"/>
      <point x="496" y="192" type="line" smooth="yes"/>
      <point x="536" y="192"/>
      <point x="536" y="152" type="qcurve" smooth="yes"/>
      <point x="536" y="137" type="line" smooth="yes"/>
      <point x="536" y="97"/>
      <point x="496" y="97" type="qcurve" smooth="yes"/>
      <point x="450" y="97" type="line" smooth="yes"/>
      <point x="413" y="97"/>
      <point x="407" y="61" type="qcurve" smooth="yes"/>
      <point x="389" y="-40" type="line" smooth="yes"/>
      <point x="383" y="-76"/>
      <point x="346" y="-76" type="qcurve" smooth="yes"/>
      <point x="325" y="-76" type="line" smooth="yes"/>
      <point x="308" y="-76"/>
      <point x="288" y="-60"/>
      <point x="288" y="-44" type="qcurve" smooth="yes"/>
      <point x="288" y="-37"/>
      <point x="289" y="-33" type="qcurve" smooth="yes"/>
      <point x="304" y="54" type="line" smooth="yes"/>
      <point x="305" y="58"/>
      <point x="305" y="65" type="qcurve" smooth="yes"/>
      <point x="305" y="81"/>
      <point x="285" y="97"/>
      <point x="268" y="97" type="qcurve" smooth="yes"/>
      <point x="222" y="97" type="line" smooth="yes"/>
      <point x="185" y="97"/>
      <point x="179" y="61" type="qcurve" smooth="yes"/>
      <point x="161" y="-40" type="line" smooth="yes"/>
      <point x="155" y="-76"/>
      <point x="118" y="-76" type="qcurve" smooth="yes"/>
      <point x="97" y="-76" type="line" smooth="yes"/>
      <point x="80" y="-76"/>
      <point x="60" y="-60"/>
    </contour>
    <contour>
      <point x="209" y="224" type="qcurve" smooth="yes"/>
      <point x="209" y="208"/>
      <point x="229" y="192"/>
      <point x="246" y="192" type="qcurve" smooth="yes"/>
      <point x="292" y="192" type="line" smooth="yes"/>
      <point x="329" y="192"/>
      <point x="335" y="228" type="qcurve" smooth="yes"/>
      <point x="375" y="453" type="line" smooth="yes"/>
      <point x="376" y="457"/>
      <point x="376" y="464" type="qcurve" smooth="yes"/>
      <point x="376" y="480"/>
      <point x="356" y="496"/>
      <point x="339" y="496" type="qcurve" smooth="yes"/>
      <point x="293" y="496" type="line" smooth="yes"/>
      <point x="256" y="496"/>
      <point x="250" y="460" type="qcurve" smooth="yes"/>
      <point x="210" y="235" type="line" smooth="yes"/>
      <point x="209" y="231"/>
    </contour>
  </outline>
</glyph>
<glyph name="dollar" format="2">
  <advance width="496"/>
  <unicode hex="0024"/>
  <outline>
    <contour>
      <point x="103" y="11" type="qcurve" smooth="yes"/>
      <point x="70" y="44" type="line" smooth="yes"/>
      <point x="50" y="64"/>
      <point x="50" y="93" type="qcurve" smooth="yes"/>
      <point x="50" y="191" type="line" smooth="yes"/>
      <point x="50" y="231"/>
      <point x="90" y="231" type="qcurve" smooth="yes"/>
      <point x="101" y="231" type="line" smooth="yes"/>
      <point x="141" y="231"/>
      <point x="141" y="191" type="qcurve" smooth="yes"/>
      <point x="141" y="122" type="line" smooth="yes"/>
      <point x="141" y="82"/>
      <point x="172" y="82" type="qcurve" smooth="yes"/>
      <point x="203" y="82"/>
      <point x="203" y="122" type="qcurve" smooth="yes"/>
      <point x="203" y="266" type="line" smooth="yes"/>
      <point x="203" y="306"/>
      <point x="163" y="306" type="qcurve" smooth="yes"/>
      <point x="152" y="306" type="line" smooth="yes"/>
      <point x="122" y="306"/>
      <point x="102" y="326" type="qcurve" smooth="yes"/>
      <point x="70" y="358" type="line" smooth="yes"/>
      <point x="50" y="378"/>
      <point x="50" y="407" type="qcurve" smooth="yes"/>
      <point x="50" y="624" type="line" smooth="yes"/>
      <point x="49" y="653"/>
      <point x="70" y="674" type="qcurve" smooth="yes"/>
      <point x="102" y="706" type="line" smooth="yes"/>
      <point x="122" y="726"/>
      <point x="151" y="726" type="qcurve" smooth="yes"/>
      <point x="163" y="726" type="line" smooth="yes"/>
      <point x="203" y="726"/>
      <point x="203" y="766" type="qcurve"/>
      <point x="203" y="768" type="line"/>
      <point x="203" y="808"/>
      <point x="243" y="808" type="qcurve" smooth="yes"/>
      <point x="257" y="808" type="line" smooth="yes"/>
      <point x="297" y="808"/>
      <point x="297" y="768" type="qcurve"/>
      <point x="297" y="766" type="line"/>
      <point x="297" y="747"/>
      <point x="317" y="726"/>
      <point x="336" y="726" type="qcurve" smooth="yes"/>
      <point x="345" y="726" type="line" smooth="yes"/>
      <point x="373" y="726"/>
      <point x="394" y="705" type="qcurve" smooth="yes"/>
      <point x="426" y="673" type="line" smooth="yes"/>
      <point x="446" y="653"/>
      <point x="446" y="624" type="qcurve" smooth="yes"/>
      <point x="446" y="516" type="line" smooth="yes"/>
      <point x="446" y="476"/>
      <point x="406" y="476" type="qcurve" smooth="yes"/>
      <point x="395" y="476" type="line" smooth="yes"/>
      <point x="355" y="476"/>
      <point x="355" y="516" type="qcurve" smooth="yes"/>
      <point x="355" y="595" type="line" smooth="yes"/>
      <point x="355" y="614"/>
      <point x="340" y="635"/>
      <point x="326" y="635" type="qcurve" smooth="yes"/>
      <point x="312" y="635"/>
      <point x="297" y="614"/>
      <point x="297" y="595" type="qcurve" smooth="yes"/>
      <point x="297" y="436" type="line" smooth="yes"/>
      <point x="297" y="417"/>
      <point x="317" y="396"/>
      <point x="336" y="396" type="qcurve" smooth="yes"/>
      <point x="345" y="396" type="line" smooth="yes"/>
      <point x="374" y="396"/>
      <point x="394" y="376" type="qcurve" smooth="yes"/>
      <point x="426" y="344" type="line" smooth="yes"/>
      <point x="446" y="324"/>
      <point x="446" y="295" type="qcurve" smooth="yes"/>
      <point x="446" y="93" type="line" smooth="yes"/>
      <point x="447" y="64"/>
      <point x="426" y="43" type="qcurve" smooth="yes"/>
      <point x="394" y="11" type="line" smooth="yes"/>
      <point x="374" y="-9"/>
      <point x="345" y="-9" type="qcurve" smooth="yes"/>
      <point x="337" y="-9" type="line" smooth="yes"/>
      <point x="297" y="-9"/>
      <point x="297" y="-49" type="qcurve" smooth="yes"/>
      <point x="297" y="-63" type="line" smooth="yes"/>
      <point x="297" y="-103"/>
      <point x="257" y="-103" type="qcurve" smooth="yes"/>
      <point x="243" y="-103" type="line" smooth="yes"/>
      <point x="203" y="-103"/>
      <point x="203" y="-63" type="qcurve" smooth="yes"/>
      <point x="203" y="-49" type="line" smooth="yes"/>
      <point x="203" y="-9"/>
      <point x="163" y="-9" type="qcurve" smooth="yes"/>
      <point x="152" y="-9" type="line" smooth="yes"/>
      <point x="123" y="-9"/>
    </contour>
    <contour>
      <point x="172" y="396" type="qcurve" smooth="yes"/>
      <point x="203" y="396"/>
      <point x="203" y="436" type="qcurve" smooth="yes"/>
      <point x="203" y="595" type="line" smooth="yes"/>
      <point x="203" y="635"/>
      <point x="172" y="635" type="qcurve" smooth="yes"/>
      <point x="141" y="635"/>
      <point x="141" y="595" type="qcurve" smooth="yes"/>
      <point x="141" y="436" type="line" smooth="yes"/>
      <point x="141" y="396"/>
    </contour>
    <contour>
      <point x="326" y="82" type="qcurve" smooth="yes"/>
      <point x="340" y="82"/>
      <point x="355" y="103"/>
      <point x="355" y="122" type="qcurve" smooth="yes"/>
      <point x="355" y="266" type="line" smooth="yes"/>
      <point x="355" y="285"/>
      <point x="340" y="306"/>
      <point x="326" y="306" type="qcurve" smooth="yes"/>
      <point x="312" y="306"/>
      <point x="297" y="285"/>
      <point x="297" y="266" type="qcurve" smooth="yes"/>
      <point x="297" y="122" type="line" smooth="yes"/>
      <point x="297" y="82"/>
    </contour>
  </outline>
</glyph>
<glyph name="quotesingle" format="2">
  <advance width="130"/>
  <unicode hex="0027"/>
  <outline>
    <contour>
      <point x="25" y="692" type="line"/>
      <point x="25" y="697" type="line"/>
      <point x="25" y="699" type="line"/>
      <point x="25" y="718"/>
      <point x="45" y="740"/>
      <point x="65" y="740" type="qcurve" smooth="yes"/>
      <point x="88" y="740"/>
      <point x="106" y="711"/>
      <point x="104" y="693" type="qcurve" smooth="yes"/>
      <point x="93" y="603" type="line" smooth="yes"/>
      <point x="92" y="598"/>
      <point x="90" y="584"/>
      <point x="87" y="578" type="qcurve" smooth="yes"/>
      <point x="84" y="572"/>
      <point x="74" y="561"/>
      <point x="66" y="561" type="qcurve" smooth="yes"/>
      <point x="57" y="561"/>
      <point x="46" y="571"/>
      <point x="43" y="578" type="qcurve" smooth="yes"/>
      <point x="41" y="583"/>
      <point x="38" y="597"/>
      <point x="37" y="602" type="qcurve" smooth="yes"/>
    </contour>
  </outline>
</glyph>
<glyph name="parenright" format="2">
  <advance width="307"/>
  <unicode hex="0029"/>
  <outline>
    <contour>
      <point x="41" y="-70" type="qcurve" smooth="yes"/>
      <point x="41" y="-60"/>
      <point x="45" y="-51" type="qcurve" smooth="yes"/>
      <point x="102" y="73" type="line" smooth="yes"/>
      <point x="112" y="96"/>
      <point x="115" y="121" type="qcurve" smooth="yes"/>
      <point x="144" y="330" type="line" smooth="yes"/>
      <point x="146" y="348"/>
      <point x="146" y="354" type="qcurve" smooth="yes"/>
      <point x="146" y="360"/>
      <point x="144" y="378" type="qcurve"/>
      <point x="115" y="586" type="line" smooth="yes"/>
      <point x="112" y="611"/>
      <point x="102" y="634" type="qcurve" smooth="yes"/>
      <point x="45" y="758" type="line" smooth="yes"/>
      <point x="40" y="770"/>
      <point x="40" y="777" type="qcurve" smooth="yes"/>
      <point x="40" y="790"/>
      <point x="60" y="805"/>
      <point x="76" y="805" type="qcurve" smooth="yes"/>
      <point x="96" y="805" type="line" smooth="yes"/>
      <point x="129" y="805"/>
      <point x="142" y="774" type="qcurve" smooth="yes"/>
      <point x="200" y="641" type="line" smooth="yes"/>
      <point x="211" y="618"/>
      <point x="214" y="594" type="qcurve" smooth="yes"/>
      <point x="245" y="379" type="line"/>
      <point x="247" y="370"/>
      <point x="247" y="354" type="qcurve" smooth="yes"/>
      <point x="247" y="338"/>
      <point x="245" y="329" type="qcurve"/>
      <point x="214" y="113" type="line" smooth="yes"/>
      <point x="210" y="89"/>
      <point x="200" y="66" type="qcurve" smooth="yes"/>
      <point x="142" y="-67" type="line" smooth="yes"/>
      <point x="129" y="-98"/>
      <point x="96" y="-98" type="qcurve" smooth="yes"/>
      <point x="76" y="-98" type="line" smooth="yes"/>
      <point x="60" y="-98"/>
      <point x="41" y="-83"/>
    </contour>
  </outline>
</glyph>
<glyph name="asterisk" format="2">
  <advance width="414"/>
  <unicode hex="002A"/>
  <outline>
    <contour>
      <point x="55" y="391" type="qcurve" smooth="yes"/>
      <point x="38" y="391"/>
      <point x="26" y="412" type="qcurve" smooth="yes"/>
      <point x="20" y="424"/>
      <point x="20" y="434" type="qcurve" smooth="yes"/>
      <point x="20" y="454"/>
      <point x="44" y="465" type="qcurve" smooth="yes"/>
      <point x="105" y="492" type="line" smooth="yes"/>
      <point x="129" y="503"/>
      <point x="129" y="519" type="qcurve" smooth="yes"/>
      <point x="129" y="536"/>
      <point x="105" y="546" type="qcurve" smooth="yes"/>
      <point x="46" y="572" type="line" smooth="yes"/>
      <point x="21" y="583"/>
      <point x="21" y="605" type="qcurve" smooth="yes"/>
      <point x="21" y="616"/>
      <point x="27" y="626" type="qcurve" smooth="yes"/>
      <point x="38" y="647"/>
      <point x="55" y="647" type="qcurve" smooth="yes"/>
      <point x="67" y="647"/>
      <point x="81" y="636" type="qcurve" smooth="yes"/>
      <point x="133" y="596" type="line"/>
      <point x="149" y="585"/>
      <point x="159" y="585" type="qcurve" smooth="yes"/>
      <point x="171" y="585"/>
      <point x="182" y="604"/>
      <point x="180" y="622" type="qcurve" smooth="yes"/>
      <point x="171" y="694" type="line" smooth="yes"/>
      <point x="169" y="714"/>
      <point x="188" y="736"/>
      <point x="207" y="736" type="qcurve" smooth="yes"/>
      <point x="226" y="736"/>
      <point x="244" y="714"/>
      <point x="242" y="694" type="qcurve" smooth="yes"/>
      <point x="234" y="622" type="line" smooth="yes"/>
      <point x="232" y="605"/>
      <point x="243" y="585"/>
      <point x="254" y="585" type="qcurve" smooth="yes"/>
      <point x="264" y="585"/>
      <point x="280" y="596" type="qcurve"/>
      <point x="333" y="637" type="line" smooth="yes"/>
      <point x="346" y="647"/>
      <point x="358" y="647" type="qcurve" smooth="yes"/>
      <point x="376" y="647"/>
      <point x="388" y="626" type="qcurve" smooth="yes"/>
      <point x="394" y="614"/>
      <point x="394" y="604" type="qcurve" smooth="yes"/>
      <point x="394" y="583"/>
      <point x="370" y="572" type="qcurve"/>
      <point x="309" y="546" type="line" smooth="yes"/>
      <point x="285" y="536"/>
      <point x="285" y="519" type="qcurve" smooth="yes"/>
      <point x="285" y="503"/>
      <point x="309" y="492" type="qcurve" smooth="yes"/>
      <point x="370" y="465" type="line" smooth="yes"/>
      <point x="394" y="454"/>
      <point x="394" y="434" type="qcurve" smooth="yes"/>
      <point x="394" y="424"/>
      <point x="388" y="412" type="qcurve" smooth="yes"/>
      <point x="376" y="391"/>
      <point x="358" y="391" type="qcurve" smooth="yes"/>
      <point x="346" y="391"/>
      <point x="333" y="401" type="qcurve" smooth="yes"/>
      <point x="280" y="441" type="line"/>
      <point x="264" y="452"/>
      <point x="254" y="452" type="qcurve" smooth="yes"/>
      <point x="243" y="452"/>
      <point x="232" y="432"/>
      <point x="234" y="415" type="qcurve" smooth="yes"/>
      <point x="242" y="345" type="line" smooth="yes"/>
      <point x="244" y="325"/>
      <point x="226" y="303"/>
      <point x="207" y="303" type="qcurve" smooth="yes"/>
      <point x="187" y="303"/>
      <point x="169" y="325"/>
      <point x="171" y="345" type="qcurve"/>
      <point x="180" y="415" type="line" smooth="yes"/>
      <point x="182" y="433"/>
      <point x="171" y="452"/>
      <point x="159" y="452" type="qcurve" smooth="yes"/>
      <point x="149" y="452"/>
      <point x="133" y="441" type="qcurve"/>
      <point x="80" y="401" type="line" smooth="yes"/>
      <point x="67" y="391"/>
    </contour>
  </outline>
</glyph>
<glyph name="comma" format="2">
  <advance width="192"/>
  <unicode hex="002C"/>
  <outline>
    <contour>
      <point x="63" y="-79" type="qcurve" smooth="yes"/>
      <point x="62" y="-70"/>
      <point x="70" y="-53" type="qcurve" smooth="yes"/>
      <point x="78" y="-36"/>
      <point x="79" y="-24" type="qcurve" smooth="yes"/>
      <point x="80" y="-8"/>
      <point x="66" y="-8" type="qcurve" smooth="yes"/>
      <point x="53" y="-8"/>
      <point x="40" y="12"/>
      <point x="40" y="30" type="qcurve" smooth="yes"/>
      <point x="40" y="72" type="line" smooth="yes"/>
      <point x="40" y="110"/>
      <point x="78" y="110" type="qcurve" smooth="yes"/>
      <point x="114" y="110" type="line" smooth="yes"/>
      <point x="152" y="110"/>
      <point x="152" y="72" type="qcurve" smooth="yes"/>
      <point x="152" y="16" type="line" smooth="yes"/>
      <point x="151" y="-8"/>
      <point x="141" y="-30" type="qcurve" smooth="yes"/>
      <point x="123" y="-69" type="line" smooth="yes"/>
      <point x="110" y="-97"/>
      <point x="80" y="-97" type="qcurve" smooth="yes"/>
      <point x="64" y="-97"/>
    </contour>
  </outline>
</glyph>
<glyph name="slash" format="2">
  <advance width="332"/>
  <unicode hex="002F"/>
  <outline>
    <contour>
      <point x="60" y="-67" type="qcurve" smooth="yes"/>
      <point x="60" y="-60"/>
      <point x="61" y="-56" type="qcurve" smooth="yes"/>
      <point x="205" y="742" type="line" smooth="yes"/>
      <point x="211" y="778"/>
      <point x="248" y="778" type="qcurve" smooth="yes"/>
      <point x="268" y="778" type="line" smooth="yes"/>
      <point x="285" y="778"/>
      <point x="305" y="762"/>
      <point x="305" y="746" type="qcurve" smooth="yes"/>
      <point x="305" y="739"/>
      <point x="304" y="735" type="qcurve" smooth="yes"/>
      <point x="160" y="-63" type="line" smooth="yes"/>
      <point x="154" y="-99"/>
      <point x="117" y="-99" type="qcurve" smooth="yes"/>
      <point x="97" y="-99" type="line" smooth="yes"/>
      <point x="80" y="-99"/>
      <point x="60" y="-83"/>
    </contour>
  </outline>
</glyph>
<glyph name="zero" format="2">
  <advance width="508"/>
  <unicode hex="0030"/>
  <outline>
    <contour>
      <point x="102" y="10" type="qcurve" smooth="yes"/>
      <point x="70" y="42" type="line" smooth="yes"/>
      <point x="50" y="62"/>
      <point x="50" y="91" type="qcurve" smooth="yes"/>
      <point x="50" y="610" type="line" smooth="yes"/>
      <point x="50" y="639"/>
      <point x="70" y="659" type="qcurve" smooth="yes"/>
      <point x="102" y="691" type="line" smooth="yes"/>
      <point x="122" y="711"/>
      <point x="152" y="711" type="qcurve" smooth="yes"/>
      <point x="357" y="711" type="line" smooth="yes"/>
      <point x="385" y="711"/>
      <point x="406" y="690" type="qcurve" smooth="yes"/>
      <point x="438" y="658" type="line" smooth="yes"/>
      <point x="458" y="638"/>
      <point x="458" y="609" type="qcurve" smooth="yes"/>
      <point x="458" y="91" type="line" smooth="yes"/>
      <point x="458" y="76"/>
      <point x="448" y="53"/>
      <point x="437" y="42" type="qcurve" smooth="yes"/>
      <point x="405" y="10" type="line" smooth="yes"/>
      <point x="385" y="-10"/>
      <point x="356" y="-10" type="qcurve" smooth="yes"/>
      <point x="151" y="-10" type="line" smooth="yes"/>
      <point x="122" y="-10"/>
    </contour>
    <contour>
      <point x="141" y="120" type="line" smooth="yes"/>
      <point x="141" y="80"/>
      <point x="181" y="80" type="qcurve" smooth="yes"/>
      <point x="327" y="80" type="line" smooth="yes"/>
      <point x="367" y="80"/>
      <point x="367" y="120" type="qcurve" smooth="yes"/>
      <point x="367" y="580" type="line" smooth="yes"/>
      <point x="367" y="620"/>
      <point x="327" y="620" type="qcurve" smooth="yes"/>
      <point x="181" y="620" type="line" smooth="yes"/>
      <point x="141" y="620"/>
      <point x="141" y="580" type="qcurve" smooth="yes"/>
    </contour>
  </outline>
</glyph>
<glyph name="four" format="2">
  <advance width="499"/>
  <unicode hex="0034"/>
  <outline>
    <contour>
      <point x="142" y="229" type="line" smooth="yes"/>
      <point x="113" y="229"/>
      <point x="93" y="249" type="qcurve" smooth="yes"/>
      <point x="60" y="282" type="line" smooth="yes"/>
      <point x="40" y="302"/>
      <point x="40" y="331" type="qcurve" smooth="yes"/>
      <point x="40" y="671" type="line" smooth="yes"/>
      <point x="40" y="711"/>
      <point x="80" y="711" type="qcurve" smooth="yes"/>
      <point x="91" y="711" type="line" smooth="yes"/>
      <point x="131" y="711"/>
      <point x="131" y="671" type="qcurve" smooth="yes"/>
      <point x="131" y="360" type="line" smooth="yes"/>
      <point x="131" y="320"/>
      <point x="171" y="320" type="qcurve" smooth="yes"/>
      <point x="318" y="320" type="line" smooth="yes"/>
      <point x="358" y="320"/>
      <point x="358" y="360" type="qcurve" smooth="yes"/>
      <point x="358" y="671" type="line" smooth="yes"/>
      <point x="358" y="711"/>
      <point x="398" y="711" type="qcurve" smooth="yes"/>
      <point x="409" y="711" type="line" smooth="yes"/>
      <point x="449" y="711"/>
      <point x="449" y="671" type="qcurve" smooth="yes"/>
      <point x="449" y="31" type="line" smooth="yes"/>
      <point x="449" y="-9"/>
      <point x="409" y="-9" type="qcurve" smooth="yes"/>
      <point x="398" y="-9" type="line" smooth="yes"/>
      <point x="358" y="-9"/>
      <point x="358" y="31" type="qcurve" smooth="yes"/>
      <point x="358" y="189" type="line" smooth="yes"/>
      <point x="358" y="229"/>
      <point x="318" y="229" type="qcurve" smooth="yes"/>
    </contour>
  </outline>
</glyph>
<glyph name="six" format="2">
  <advance width="508"/>
  <unicode hex="0036"/>
  <outline>
    <contour>
      <point x="102" y="11" type="qcurve" smooth="yes"/>
      <point x="70" y="43" type="line" smooth="yes"/>
      <point x="50" y="63"/>
      <point x="50" y="92" type="qcurve" smooth="yes"/>
      <point x="50" y="612" type="line" smooth="yes"/>
      <point x="50" y="641"/>
      <point x="70" y="661" type="qcurve" smooth="yes"/>
      <point x="102" y="693" type="line" smooth="yes"/>
      <point x="122" y="713"/>
      <point x="151" y="713" type="qcurve" smooth="yes"/>
      <point x="418" y="713" type="line" smooth="yes"/>
      <point x="458" y="713"/>
      <point x="458" y="673" type="qcurve" smooth="yes"/>
      <point x="458" y="662" type="line" smooth="yes"/>
      <point x="458" y="622"/>
      <point x="418" y="622" type="qcurve" smooth="yes"/>
      <point x="180" y="622" type="line" smooth="yes"/>
      <point x="140" y="622"/>
      <point x="140" y="582" type="qcurve" smooth="yes"/>
      <point x="140" y="478" type="line" smooth="yes"/>
      <point x="140" y="438"/>
      <point x="180" y="438" type="qcurve" smooth="yes"/>
      <point x="356" y="438" type="line" smooth="yes"/>
      <point x="386" y="438"/>
      <point x="406" y="418" type="qcurve" smooth="yes"/>
      <point x="438" y="386" type="line" smooth="yes"/>
      <point x="458" y="366"/>
      <point x="458" y="337" type="qcurve" smooth="yes"/>
      <point x="458" y="92" type="line" smooth="yes"/>
      <point x="458" y="77"/>
      <point x="448" y="54"/>
      <point x="437" y="43" type="qcurve" smooth="yes"/>
      <point x="405" y="11" type="line" smooth="yes"/>
      <point x="385" y="-9"/>
      <point x="356" y="-9" type="qcurve" smooth="yes"/>
      <point x="151" y="-9" type="line" smooth="yes"/>
      <point x="122" y="-9"/>
    </contour>
    <contour>
      <point x="140" y="122" type="line" smooth="yes"/>
      <point x="140" y="82"/>
      <point x="180" y="82" type="qcurve" smooth="yes"/>
      <point x="327" y="82" type="line" smooth="yes"/>
      <point x="367" y="82"/>
      <point x="367" y="122" type="qcurve" smooth="yes"/>
      <point x="367" y="307" type="line" smooth="yes"/>
      <point x="367" y="347"/>
      <point x="327" y="347" type="qcurve" smooth="yes"/>
      <point x="180" y="347" type="line" smooth="yes"/>
      <point x="140" y="347"/>
      <point x="140" y="307" type="qcurve" smooth="yes"/>
    </contour>
  </outline>
</glyph>
<glyph name="eight" format="2">
  <advance width="509"/>
  <unicode hex="0038"/>
  <outline>
    <contour>
      <point x="102" y="11" type="qcurve" smooth="yes"/>
      <point x="70" y="43" type="line" smooth="yes"/>
      <point x="50" y="63"/>
      <point x="50" y="92" type="qcurve" smooth="yes"/>
      <point x="50" y="292" type="line" smooth="yes"/>
      <point x="50" y="307"/>
      <point x="60" y="330"/>
      <point x="71" y="341" type="qcurve" smooth="yes"/>
      <point x="84" y="354"/>
      <point x="84" y="367" type="qcurve" smooth="yes"/>
      <point x="84" y="378"/>
      <point x="73" y="389" type="qcurve" smooth="yes"/>
      <point x="70" y="392" type="line" smooth="yes"/>
      <point x="50" y="412"/>
      <point x="50" y="441" type="qcurve" smooth="yes"/>
      <point x="50" y="611" type="line" smooth="yes"/>
      <point x="50" y="640"/>
      <point x="70" y="660" type="qcurve" smooth="yes"/>
      <point x="102" y="692" type="line" smooth="yes"/>
      <point x="122" y="712"/>
      <point x="152" y="712" type="qcurve" smooth="yes"/>
      <point x="358" y="712" type="line" smooth="yes"/>
      <point x="386" y="712"/>
      <point x="407" y="691" type="qcurve" smooth="yes"/>
      <point x="439" y="659" type="line" smooth="yes"/>
      <point x="459" y="639"/>
      <point x="459" y="610" type="qcurve" smooth="yes"/>
      <point x="459" y="441" type="line" smooth="yes"/>
      <point x="459" y="412"/>
      <point x="439" y="391" type="qcurve" smooth="yes"/>
      <point x="427" y="379"/>
      <point x="427" y="366" type="qcurve" smooth="yes"/>
      <point x="427" y="354"/>
      <point x="437" y="344" type="qcurve" smooth="yes"/>
      <point x="439" y="342" type="line" smooth="yes"/>
      <point x="459" y="322"/>
      <point x="459" y="292" type="qcurve" smooth="yes"/>
      <point x="459" y="92" type="line" smooth="yes"/>
      <point x="459" y="77"/>
      <point x="449" y="54"/>
      <point x="438" y="43" type="qcurve" smooth="yes"/>
      <point x="406" y="11" type="line" smooth="yes"/>
      <point x="386" y="-9"/>
      <point x="357" y="-9" type="qcurve" smooth="yes"/>
      <point x="151" y="-9" type="line" smooth="yes"/>
      <point x="122" y="-9"/>
    </contour>
    <contour>
      <point x="141" y="452" type="line" smooth="yes"/>
      <point x="141" y="412"/>
      <point x="181" y="412" type="qcurve" smooth="yes"/>
      <point x="328" y="412" type="line" smooth="yes"/>
      <point x="368" y="412"/>
      <point x="368" y="452" type="qcurve" smooth="yes"/>
      <point x="368" y="581" type="line" smooth="yes"/>
      <point x="368" y="621"/>
      <point x="328" y="621" type="qcurve" smooth="yes"/>
      <point x="181" y="621" type="line" smooth="yes"/>
      <point x="141" y="621"/>
      <point x="141" y="581" type="qcurve" smooth="yes"/>
    </contour>
    <contour>
      <point x="141" y="121" type="line" smooth="yes"/>
      <point x="141" y="81"/>
      <point x="181" y="81" type="qcurve" smooth="yes"/>
      <point x="328" y="81" type="line" smooth="yes"/>
      <point x="368" y="81"/>
      <point x="368" y="121" type="qcurve" smooth="yes"/>
      <point x="368" y="281" type="line" smooth="yes"/>
      <point x="368" y="321"/>
      <point x="328" y="321" type="qcurve" smooth="yes"/>
      <point x="181" y="321" type="line" smooth="yes"/>
      <point x="141" y="321"/>
      <point x="141" y="281" type="qcurve" smooth="yes"/>
    </contour>
  </outline>
</glyph>
<glyph name="colon" format="2">
  <advance width="181"/>
  <unicode hex="003A"/>
  <outline>
    <contour>
      <point x="80" y="32" type="line" smooth="yes"/>
      <point x="40" y="32"/>
      <point x="40" y="72" type="qcurve" smooth="yes"/>
      <point x="40" y="117" type="line" smooth="yes"/>
      <point x="40" y="157"/>
      <point x="80" y="157" type="qcurve" smooth="yes"/>
      <point x="101" y="157" type="line" smooth="yes"/>
      <point x="141" y="157"/>
      <point x="141" y="117" type="qcurve" smooth="yes"/>
      <point x="141" y="72" type="line" smooth="yes"/>
      <point x="141" y="32"/>
      <point x="101" y="32" type="qcurve" smooth="yes"/>
    </contour>
    <contour>
      <point x="80" y="399" type="line" smooth="yes"/>
      <point x="40" y="399"/>
      <point x="40" y="439" type="qcurve" smooth="yes"/>
      <point x="40" y="484" type="line" smooth="yes"/>
      <point x="40" y="524"/>
      <point x="80" y="524" type="qcurve" smooth="yes"/>
      <point x="101" y="524" type="line" smooth="yes"/>
      <point x="141" y="524"/>
      <point x="141" y="484" type="qcurve" smooth="yes"/>
      <point x="141" y="439" type="line" smooth="yes"/>
      <point x="141" y="399"/>
      <point x="101" y="399" type="qcurve" smooth="yes"/>
    </contour>
  </outline>
</glyph>
<glyph name="semicolon" format="2">
  <advance width="238"/>
  <unicode hex="003B"/>
  <outline>
    <contour>
      <point x="109" y="348" type="line" smooth="yes"/>
      <point x="69" y="348"/>
      <point x="69" y="388" type="qcurve" smooth="yes"/>
      <point x="69" y="433" type="line" smooth="yes"/>
      <point x="69" y="473"/>
      <point x="109" y="473" type="qcurve" smooth="yes"/>
      <point x="130" y="473" type="line" smooth="yes"/>
      <point x="170" y="473"/>
      <point x="170" y="433" type="qcurve" smooth="yes"/>
      <point x="170" y="388" type="line" smooth="yes"/>
      <point x="170" y="348"/>
      <point x="130" y="348" type="qcurve" smooth="yes"/>
    </contour>
    <contour>
      <point x="84" y="-92" type="qcurve" smooth="yes"/>
      <point x="84" y="-82"/>
      <point x="92" y="-64" type="qcurve" smooth="yes"/>
      <point x="101" y="-46"/>
      <point x="101" y="-34" type="qcurve" smooth="yes"/>
      <point x="101" y="-17"/>
      <point x="87" y="-17" type="qcurve" smooth="yes"/>
      <point x="74" y="-17"/>
      <point x="60" y="4"/>
      <point x="60" y="23" type="qcurve" smooth="yes"/>
      <point x="60" y="68" type="line" smooth="yes"/>
      <point x="60" y="108"/>
      <point x="100" y="108" type="qcurve" smooth="yes"/>
      <point x="138" y="108" type="line" smooth="yes"/>
      <point x="178" y="108"/>
      <point x="178" y="68" type="qcurve" smooth="yes"/>
      <point x="178" y="9" type="line" smooth="yes"/>
      <point x="178" y="-17"/>
      <point x="167" y="-40" type="qcurve" smooth="yes"/>
      <point x="148" y="-81" type="line" smooth="yes"/>
      <point x="134" y="-111"/>
      <point x="102" y="-111" type="qcurve" smooth="yes"/>
      <point x="84" y="-111"/>
    </contour>
  </outline>
</glyph>
<glyph name="less" format="2">
  <advance width="556"/>
  <unicode hex="003C"/>
  <outline>
    <contour>
      <point x="435" y="-61" type="qcurve" smooth="yes"/>
      <point x="53" y="355" type="line" smooth="yes"/>
      <point x="40" y="370"/>
      <point x="40" y="383" type="qcurve" smooth="yes"/>
      <point x="40" y="398"/>
      <point x="55" y="411" type="qcurve"/>
      <point x="434" y="768" type="line" smooth="yes"/>
      <point x="447" y="781"/>
      <point x="461" y="781" type="qcurve" smooth="yes"/>
      <point x="476" y="781"/>
      <point x="490" y="766" type="qcurve" smooth="yes"/>
      <point x="501" y="754" type="line"/>
      <point x="514" y="741"/>
      <point x="514" y="726" type="qcurve" smooth="yes"/>
      <point x="514" y="710"/>
      <point x="500" y="697" type="qcurve" smooth="yes"/>
      <point x="199" y="411" type="line" smooth="yes"/>
      <point x="185" y="397"/>
      <point x="185" y="383" type="qcurve" smooth="yes"/>
      <point x="185" y="370"/>
      <point x="197" y="355" type="qcurve"/>
      <point x="504" y="5" type="line" smooth="yes"/>
      <point x="516" y="-9"/>
      <point x="516" y="-23" type="qcurve" smooth="yes"/>
      <point x="516" y="-37"/>
      <point x="502" y="-51" type="qcurve"/>
      <point x="492" y="-62" type="line"/>
      <point x="478" y="-76"/>
      <point x="464" y="-76" type="qcurve" smooth="yes"/>
      <point x="449" y="-76"/>
    </contour>
  </outline>
</glyph>
<glyph name="equal" format="2">
  <advance width="615"/>
  <unicode hex="003D"/>
  <outline>
    <contour>
      <point x="82" y="437" type="line" smooth="yes"/>
      <point x="42" y="437"/>
      <point x="42" y="477" type="qcurve" smooth="yes"/>
      <point x="42" y="495" type="line" smooth="yes"/>
      <point x="42" y="535"/>
      <point x="82" y="535" type="qcurve" smooth="yes"/>
      <point x="533" y="535" type="line" smooth="yes"/>
      <point x="573" y="535"/>
      <point x="573" y="495" type="qcurve" smooth="yes"/>
      <point x="573" y="477" type="line" smooth="yes"/>
      <point x="573" y="437"/>
      <point x="533" y="437" type="qcurve" smooth="yes"/>
    </contour>
    <contour>
      <point x="82" y="201" type="line" smooth="yes"/>
      <point x="42" y="201"/>
      <point x="42" y="241" type="qcurve" smooth="yes"/>
      <point x="42" y="259" type="line" smooth="yes"/>
      <point x="42" y="299"/>
      <point x="82" y="299" type="qcurve" smooth="yes"/>
      <point x="533" y="299" type="line" smooth="yes"/>
      <point x="573" y="299"/>
      <point x="573" y="259" type="qcurve" smooth="yes"/>
      <point x="573" y="241" type="line" smooth="yes"/>
      <point x="573" y="201"/>
      <point x="533" y="201" type="qcurve" smooth="yes"/>
    </contour>
  </outline>
</glyph>
<glyph name="B" format="2">
  <advance width="495"/>
  <unicode hex="0042"/>
  <outline>
    <contour>
      <point x="90" y="-9" type="line" smooth="yes"/>
      <point x="50" y="-9"/>
      <point x="50" y="31" type="qcurve" smooth="yes"/>
      <point x="50" y="669" type="line" smooth="yes"/>
      <point x="50" y="709"/>
      <point x="90" y="709" type="qcurve" smooth="yes"/>
      <point x="344" y="709" type="line" smooth="yes"/>
      <point x="372" y="709"/>
      <point x="393" y="688" type="qcurve" smooth="yes"/>
      <point x="425" y="656" type="line" smooth="yes"/>
      <point x="445" y="636"/>
      <point x="445" y="607" type="qcurve" smooth="yes"/>
      <point x="445" y="421" type="line" smooth="yes"/>
      <point x="445" y="392"/>
      <point x="425" y="371" type="qcurve" smooth="yes"/>
      <point x="413" y="359"/>
      <point x="413" y="346" type="qcurve" smooth="yes"/>
      <point x="413" y="334"/>
      <point x="423" y="324" type="qcurve" smooth="yes"/>
      <point x="425" y="322" type="line" smooth="yes"/>
      <point x="445" y="302"/>
      <point x="445" y="272" type="qcurve" smooth="yes"/>
      <point x="445" y="93" type="line" smooth="yes"/>
      <point x="446" y="64"/>
      <point x="425" y="43" type="qcurve" smooth="yes"/>
      <point x="393" y="11" type="line" smooth="yes"/>
      <point x="373" y="-9"/>
      <point x="344" y="-9" type="qcurve" smooth="yes"/>
    </contour>
    <contour>
      <point x="141" y="432" type="line" smooth="yes"/>
      <point x="141" y="392"/>
      <point x="181" y="392" type="qcurve" smooth="yes"/>
      <point x="314" y="392" type="line" smooth="yes"/>
      <point x="354" y="392"/>
      <point x="354" y="432" type="qcurve" smooth="yes"/>
      <point x="354" y="578" type="line" smooth="yes"/>
      <point x="354" y="618"/>
      <point x="314" y="618" type="qcurve" smooth="yes"/>
      <point x="181" y="618" type="line" smooth="yes"/>
      <point x="141" y="618"/>
      <point x="141" y="578" type="qcurve" smooth="yes"/>
    </contour>
    <contour>
      <point x="141" y="122" type="line" smooth="yes"/>
      <point x="141" y="82"/>
      <point x="181" y="82" type="qcurve" smooth="yes"/>
      <point x="315" y="82" type="line" smooth="yes"/>
      <point x="355" y="82"/>
      <point x="355" y="122" type="qcurve" smooth="yes"/>
      <point x="355" y="261" type="line" smooth="yes"/>
      <point x="355" y="301"/>
      <point x="315" y="301" type="qcurve" smooth="yes"/>
      <point x="181" y="301" type="line" smooth="yes"/>
      <point x="141" y="301"/>
      <point x="141" y="261" type="qcurve" smooth="yes"/>
    </contour>
  </outline>
</glyph>
<glyph name="D" format="2">
  <advance width="496"/>
  <unicode hex="0044"/>
  <outline>
    <contour>
      <point x="90" y="-9" type="line" smooth="yes"/>
      <point x="50" y="-9"/>
      <point x="50" y="31" type="qcurve" smooth="yes"/>
      <point x="50" y="669" type="line" smooth="yes"/>
      <point x="50" y="709"/>
      <point x="90" y="709" type="qcurve" smooth="yes"/>
      <point x="345" y="709" type="line" smooth="yes"/>
      <point x="373" y="709"/>
      <point x="394" y="688" type="qcurve" smooth="yes"/>
      <point x="426" y="656" type="line" smooth="yes"/>
      <point x="446" y="636"/>
      <point x="446" y="607" type="qcurve" smooth="yes"/>
      <point x="446" y="93" type="line" smooth="yes"/>
      <point x="447" y="64"/>
      <point x="426" y="43" type="qcurve" smooth="yes"/>
      <point x="394" y="11" type="line" smooth="yes"/>
      <point x="374" y="-9"/>
      <point x="345" y="-9" type="qcurve" smooth="yes"/>
    </contour>
    <contour>
      <point x="141" y="122" type="line" smooth="yes"/>
      <point x="141" y="82"/>
      <point x="181" y="82" type="qcurve" smooth="yes"/>
      <point x="315" y="82" type="line" smooth="yes"/>
      <point x="355" y="82"/>
      <point x="355" y="122" type="qcurve" smooth="yes"/>
      <point x="355" y="578" type="line" smooth="yes"/>
      <point x="355" y="618"/>
      <point x="315" y="618" type="qcurve" smooth="yes"/>
      <point x="181" y="618" type="line" smooth="yes"/>
      <point x="141" y="618"/>
      <point x="141" y="578" type="qcurve" smooth="yes"/>
    </contour>
  </outline>
</glyph>
<glyph name="F" format="2">
  <advance width="470"/>
  <unicode hex="0046"/>
  <outline>
    <contour>
      <point x="90" y="-9" type="line" smooth="yes"/>
      <point x="50" y="-9"/>
      <point x="50" y="31" type="qcurve" smooth="yes"/>
      <point x="50" y="669" type="line" smooth="yes"/>
      <point x="50" y="709"/>
      <point x="90" y="709" type="qcurve" smooth="yes"/>
      <point x="390" y="709" type="line" smooth="yes"/>
      <point x="430" y="709"/>
      <point x="430" y="669" type="qcurve" smooth="yes"/>
      <point x="430" y="658" type="line" smooth="yes"/>
      <point x="430" y="618"/>
      <point x="390" y="618" type="qcurve" smooth="yes"/>
      <point x="181" y="618" type="line" smooth="yes"/>
      <point x="141" y="618"/>
      <point x="141" y="578" type="qcurve" smooth="yes"/>
      <point x="141" y="408" type="line" smooth="yes"/>
      <point x="141" y="368"/>
      <point x="181" y="368" type="qcurve" smooth="yes"/>
      <point x="381" y="368" type="line" smooth="yes"/>
      <point x="421" y="368"/>
      <point x="421" y="328" type="qcurve" smooth="yes"/>
      <point x="421" y="317" type="line" smooth="yes"/>
      <point x="421" y="277"/>
      <point x="381" y="277" type="qcurve" smooth="yes"/>
      <point x="181" y="277" type="line" smooth="yes"/>
      <point x="141" y="277"/>
      <point x="141" y="237" type="qcurve" smooth="yes"/>
      <point x="141" y="31" type="line" smooth="yes"/>
      <point x="141" y="-9"/>
      <point x="101" y="-9" type="qcurve" smooth="yes"/>
    </contour>
  </outline>
</glyph>
<glyph name="H" format="2">
  <advance width="496"/>
  <unicode hex="0048"/>
  <outline>
    <contour>
      <point x="90" y="-9" type="line" smooth="yes"/>
      <point x="50" y="-9"/>
      <point x="50" y="31" type="qcurve" smooth="yes"/>
      <point x="50" y="671" type="line" smooth="yes"/>
      <point x="50" y="711"/>
      <point x="90" y="711" type="qcurve" smooth="yes"/>
      <point x="101" y="711" type="line" smooth="yes"/>
      <point x="141" y="711"/>
      <point x="141" y="671" type="qcurve" smooth="yes"/>
      <point x="141" y="463" type="line" smooth="yes"/>
      <point x="141" y="423"/>
      <point x="181" y="423" type="qcurve" smooth="yes"/>
      <point x="315" y="423" type="line" smooth="yes"/>
      <point x="355" y="423"/>
      <point x="355" y="463" type="qcurve" smooth="yes"/>
      <point x="355" y="671" type="line" smooth="yes"/>
      <point x="355" y="711"/>
      <point x="395" y="711" type="qcurve" smooth="yes"/>
      <point x="406" y="711" type="line" smooth="yes"/>
      <point x="446" y="711"/>
      <point x="446" y="671" type="qcurve" smooth="yes"/>
      <point x="446" y="31" type="line" smooth="yes"/>
      <point x="446" y="-9"/>
      <point x="406" y="-9" type="qcurve" smooth="yes"/>
      <point x="395" y="-9" type="line" smooth="yes"/>
      <point x="355" y="-9"/>
      <point x="355" y="31" type="qcurve" smooth="yes"/>
      <point x="355" y="292" type="line" smooth="yes"/>
      <point x="355" y="332"/>
      <point x="315" y="332" type="qcurve" smooth="yes"/>
      <point x="181" y="332" type="line" smooth="yes"/>
      <point x="141" y="332"/>
      <point x="141" y="292" type="qcurve" smooth="yes"/>
      <point x="141" y="31" type="line" smooth="yes"/>
      <point x="141" y="-9"/>
      <point x="101" y="-9" type="qcurve" smooth="yes"/>
    </contour>
  </outline>
</glyph>
<glyph name="L" format="2">
  <advance width="485"/>
  <unicode hex="004C"/>
  <outline>
    <contour>
      <point x="102" y="12" type="qcurve" smooth="yes"/>
      <point x="70" y="44" type="line" smooth="yes"/>
      <point x="50" y="64"/>
      <point x="50" y="93" type="qcurve" smooth="yes"/>
      <point x="50" y="670" type="line" smooth="yes"/>
      <point x="50" y="710"/>
      <point x="90" y="710" type="qcurve" smooth="yes"/>
      <point x="101" y="710" type="line" smooth="yes"/>
      <point x="141" y="710"/>
      <point x="141" y="670" type="qcurve" smooth="yes"/>
      <point x="141" y="122" type="line" smooth="yes"/>
      <point x="141" y="82"/>
      <point x="181" y="82" type="qcurve" smooth="yes"/>
      <point x="405" y="82" type="line" smooth="yes"/>
      <point x="445" y="82"/>
      <point x="445" y="42" type="qcurve" smooth="yes"/>
      <point x="445" y="31" type="line" smooth="yes"/>
      <point x="445" y="-9"/>
      <point x="405" y="-9" type="qcurve" smooth="yes"/>
      <point x="151" y="-9" type="line" smooth="yes"/>
      <point x="123" y="-9"/>
    </contour>
  </outline>
</glyph>
<glyph name="S" format="2">
  <advance width="496"/>
  <unicode hex="0053"/>
  <anchor x="248" y="710" name="top"/>
  <outline>
    <contour>
      <point x="70" y="44" type="line" smooth="yes"/>
      <point x="50" y="64"/>
      <point x="50" y="93" type="qcurve" smooth="yes"/>
      <point x="50" y="187" type="line" smooth="yes"/>
      <point x="50" y="227"/>
      <point x="90" y="227" type="qcurve" smooth="yes"/>
      <point x="101" y="227" type="line" smooth="yes"/>
      <point x="141" y="227"/>
      <point x="141" y="187" type="qcurve" smooth="yes"/>
      <point x="141" y="122" type="line" smooth="yes"/>
      <point x="141" y="82"/>
      <point x="181" y="82" type="qcurve" smooth="yes"/>
      <point x="315" y="82" type="line" smooth="yes"/>
      <point x="355" y="82"/>
      <point x="355" y="122" type="qcurve" smooth="yes"/>
      <point x="355" y="268" type="line" smooth="yes"/>
      <point x="355" y="308"/>
      <point x="315" y="308" type="qcurve" smooth="yes"/>
      <point x="152" y="308" type="line" smooth="yes"/>
      <point x="122" y="308"/>
      <point x="102" y="328" type="qcurve" smooth="yes"/>
      <point x="70" y="360" type="line" smooth="yes"/>
      <point x="50" y="380"/>
      <point x="50" y="409" type="qcurve" smooth="yes"/>
      <point x="50" y="612" type="line" smooth="yes"/>
      <point x="49" y="641"/>
      <point x="70" y="662" type="qcurve" smooth="yes"/>
      <point x="102" y="694" type="line" smooth="yes"/>
      <point x="122" y="714"/>
      <point x="151" y="714" type="qcurve" smooth="yes"/>
      <point x="345" y="714" type="line" smooth="yes"/>
      <point x="373" y="714"/>
      <point x="394" y="693" type="qcurve" smooth="yes"/>
      <point x="426" y="661" type="line" smooth="yes"/>
      <point x="446" y="641"/>
      <point x="446" y="612" type="qcurve" smooth="yes"/>
      <point x="446" y="518" type="line" smooth="yes"/>
      <point x="446" y="478"/>
      <point x="406" y="478" type="qcurve" smooth="yes"/>
      <point x="395" y="478" type="line" smooth="yes"/>
      <point x="355" y="478"/>
      <point x="355" y="518" type="qcurve" smooth="yes"/>
      <point x="355" y="583" type="line" smooth="yes"/>
      <point x="355" y="623"/>
      <point x="315" y="623" type="qcurve" smooth="yes"/>
      <point x="181" y="623" type="line" smooth="yes"/>
      <point x="141" y="623"/>
      <point x="141" y="583" type="qcurve" smooth="yes"/>
      <point x="141" y="438" type="line" smooth="yes"/>
      <point x="141" y="398"/>
      <point x="181" y="398" type="qcurve" smooth="yes"/>
      <point x="345" y="398" type="line" smooth="yes"/>
      <point x="374" y="398"/>
      <point x="394" y="378" type="qcurve" smooth="yes"/>
      <point x="426" y="346" type="line" smooth="yes"/>
      <point x="446" y="326"/>
      <point x="446" y="297" type="qcurve" smooth="yes"/>
      <point x="446" y="93" type="line" smooth="yes"/>
      <point x="447" y="64"/>
      <point x="426" y="43" type="qcurve" smooth="yes"/>
      <point x="394" y="11" type="line" smooth="yes"/>
      <point x="374" y="-9"/>
      <point x="345" y="-9" type="qcurve" smooth="yes"/>
      <point x="152" y="-9" type="line" smooth="yes"/>
      <point x="123" y="-9"/>
      <point x="103" y="11" type="qcurve" smooth="yes"/>
    </contour>
  </outline>
</glyph>
<glyph name="U" format="2">
  <advance width="496"/>
  <unicode hex="0055"/>
  <anchor x="248" y="710" name="top"/>
  <outline>
    <contour>
      <point x="103" y="12" type="qcurve" smooth="yes"/>
      <point x="70" y="45" type="line" smooth="yes"/>
      <point x="50" y="65"/>
      <point x="50" y="94" type="qcurve" smooth="yes"/>
      <point x="50" y="671" type="line" smooth="yes"/>
      <point x="50" y="711"/>
      <point x="90" y="711" type="qcurve" smooth="yes"/>
      <point x="101" y="711" type="line" smooth="yes"/>
      <point x="141" y="711"/>
      <point x="141" y="671" type="qcurve" smooth="yes"/>
      <point x="141" y="123" type="line" smooth="yes"/>
      <point x="141" y="83"/>
      <point x="181" y="83" type="qcurve" smooth="yes"/>
      <point x="315" y="83" type="line" smooth="yes"/>
      <point x="355" y="83"/>
      <point x="355" y="123" type="qcurve" smooth="yes"/>
      <point x="355" y="671" type="line" smooth="yes"/>
      <point x="355" y="711"/>
      <point x="395" y="711" type="qcurve" smooth="yes"/>
      <point x="406" y="711" type="line" smooth="yes"/>
      <point x="446" y="711"/>
      <point x="446" y="671" type="qcurve" smooth="yes"/>
      <point x="446" y="94" type="line" smooth="yes"/>
      <point x="447" y="65"/>
      <point x="426" y="44" type="qcurve" smooth="yes"/>
      <point x="394" y="12" type="line" smooth="yes"/>
      <point x="374" y="-8"/>
      <point x="345" y="-8" type="qcurve" smooth="yes"/>
      <point x="152" y="-8" type="line" smooth="yes"/>
      <point x="123" y="-8"/>
    </contour>
  </outline>
</glyph>
<glyph name="bracketleft" format="2">
  <advance width="285"/>
  <unicode hex="005B"/>
  <outline>
    <contour>
      <point x="90" y="-99" type="line" smooth="yes"/>
      <point x="50" y="-99"/>
      <point x="50" y="-59" type="qcurve" smooth="yes"/>
      <point x="50" y="758" type="line" smooth="yes"/>
      <point x="50" y="798"/>
      <point x="90" y="798" type="qcurve" smooth="yes"/>
      <point x="235" y="798" type="line" smooth="yes"/>
      <point x="275" y="798"/>
      <point x="275" y="758" type="qcurve" smooth="yes"/>
      <point x="275" y="738" type="line" smooth="yes"/>
      <point x="275" y="698"/>
      <point x="235" y="698" type="qcurve" smooth="yes"/>
      <point x="190" y="698" type="line" smooth="yes"/>
      <point x="150" y="698"/>
      <point x="150" y="658" type="qcurve" smooth="yes"/>
      <point x="150" y="43" type="line" smooth="yes"/>
      <point x="150" y="3"/>
      <point x="190" y="3" type="qcurve" smooth="yes"/>
      <point x="235" y="3" type="line" smooth="yes"/>
      <point x="275" y="3"/>
      <point x="275" y="-37" type="qcurve" smooth="yes"/>
      <point x="275" y="-59" type="line" smooth="yes"/>
      <point x="275" y="-99"/>
      <point x="235" y="-99" type="qcurve" smooth="yes"/>
    </contour>
  </outline>
</glyph>
<glyph name="backslash" format="2">
  <advance width="310"/>
  <unicode hex="005C"/>
  <outline>
    <contour>
      <point x="250" y="-68" type="line"/>
      <point x="250" y="-84"/>
      <point x="230" y="-102"/>
      <point x="212" y="-102" type="qcurve" smooth="yes"/>
      <point x="187" y="-102" type="line" smooth="yes"/>
      <point x="151" y="-102"/>
      <point x="145" y="-65" type="qcurve" smooth="yes"/>
      <point x="21" y="767" type="line"/>
      <point x="20" y="776" type="line"/>
      <point x="20" y="792"/>
      <point x="40" y="810"/>
      <point x="58" y="810" type="qcurve" smooth="yes"/>
      <point x="83" y="810" type="line" smooth="yes"/>
      <point x="119" y="810"/>
      <point x="125" y="773" type="qcurve" smooth="yes"/>
      <point x="249" y="-59" type="line"/>
    </contour>
  </outline>
</glyph>
<glyph name="underscore" format="2">
  <advance width="510"/>
  <unicode hex="005F"/>
  <outline>
    <contour>
      <point x="30" y="100" type="qcurve" smooth="yes"/>
      <point x="30" y="137"/>
      <point x="70" y="137" type="qcurve" smooth="yes"/>
      <point x="440" y="137" type="line" smooth="yes"/>
      <point x="480" y="137"/>
      <point x="480" y="100" type="qcurve" smooth="yes"/>
      <point x="480" y="82"/>
      <point x="459" y="62"/>
      <point x="440" y="62" type="qcurve" smooth="yes"/>
      <point x="70" y="62" type="line" smooth="yes"/>
      <point x="51" y="62"/>
      <point x="30" y="82"/>
    </contour>
  </outline>
</glyph>
<glyph name="grave" format="2">
  <advance width="152"/>
  <unicode hex="0060"/>
  <outline>
    <contour>
      <point x="51" y="618" type="qcurve"/>
      <point x="15" y="694" type="line"/>
      <point x="10" y="703"/>
      <point x="10" y="714" type="qcurve" smooth="yes"/>
      <point x="10" y="726"/>
      <point x="28" y="741"/>
      <point x="43" y="741" type="qcurve" smooth="yes"/>
      <point x="59" y="741" type="line" smooth="yes"/>
      <point x="92" y="741"/>
      <point x="105" y="710" type="qcurve" smooth="yes"/>
      <point x="137" y="635" type="line" smooth="yes"/>
      <point x="142" y="622"/>
      <point x="142" y="614" type="qcurve" smooth="yes"/>
      <point x="142" y="602"/>
      <point x="126" y="588"/>
      <point x="111" y="588" type="qcurve" smooth="yes"/>
      <point x="98" y="588" type="line" smooth="yes"/>
      <point x="64" y="588"/>
    </contour>
  </outline>
</glyph>
<glyph name="b" format="2">
  <advance width="425"/>
  <unicode hex="0062"/>
  <outline>
    <contour>
      <point x="90" y="-7" type="line" smooth="yes"/>
      <point x="50" y="-7"/>
      <point x="50" y="33" type="qcurve" smooth="yes"/>
      <point x="50" y="671" type="line" smooth="yes"/>
      <point x="50" y="711"/>
      <point x="90" y="711" type="qcurve" smooth="yes"/>
      <point x="101" y="711" type="line" smooth="yes"/>
      <point x="141" y="711"/>
      <point x="141" y="671" type="qcurve" smooth="yes"/>
      <point x="141" y="525" type="line" smooth="yes"/>
      <point x="141" y="485"/>
      <point x="181" y="485" type="qcurve" smooth="yes"/>
      <point x="273" y="485" type="line" smooth="yes"/>
      <point x="302" y="485"/>
      <point x="322" y="465" type="qcurve" smooth="yes"/>
      <point x="355" y="432" type="line" smooth="yes"/>
      <point x="375" y="412"/>
      <point x="375" y="383" type="qcurve" smooth="yes"/>
      <point x="375" y="95" type="line" smooth="yes"/>
      <point x="375" y="66"/>
      <point x="355" y="46" type="qcurve" smooth="yes"/>
      <point x="322" y="13" type="line" smooth="yes"/>
      <point x="302" y="-7"/>
      <point x="273" y="-7" type="qcurve" smooth="yes"/>
    </contour>
    <contour>
      <point x="141" y="124" type="line" smooth="yes"/>
      <point x="141" y="84"/>
      <point x="181" y="84" type="qcurve" smooth="yes"/>
      <point x="244" y="84" type="line" smooth="yes"/>
      <point x="284" y="84"/>
      <point x="284" y="124" type="qcurve" smooth="yes"/>
      <point x="284" y="354" type="line" smooth="yes"/>
      <point x="284" y="394"/>
      <point x="244" y="394" type="qcurve" smooth="yes"/>
      <point x="181" y="394" type="line" smooth="yes"/>
      <point x="141" y="394"/>
      <point x="141" y="354" type="qcurve" smooth="yes"/>
    </contour>
  </outline>
</glyph>
<glyph name="c" format="2">
  <advance width="405"/>
  <unicode hex="0063"/>
  <anchor x="213" y="485" name="top"/>
  <outline>
    <contour>
      <point x="103" y="12" type="qcurve" smooth="yes"/>
      <point x="70" y="45" type="line" smooth="yes"/>
      <point x="50" y="65"/>
      <point x="50" y="94" type="qcurve" smooth="yes"/>
      <point x="50" y="383" type="line" smooth="yes"/>
      <point x="50" y="412"/>
      <point x="70" y="432" type="qcurve" smooth="yes"/>
      <point x="103" y="465" type="line" smooth="yes"/>
      <point x="123" y="485"/>
      <point x="152" y="485" type="qcurve" smooth="yes"/>
      <point x="335" y="485" type="line" smooth="yes"/>
      <point x="375" y="485"/>
      <point x="375" y="445" type="qcurve" smooth="yes"/>
      <point x="375" y="434" type="line" smooth="yes"/>
      <point x="375" y="394"/>
      <point x="335" y="394" type="qcurve" smooth="yes"/>
      <point x="181" y="394" type="line" smooth="yes"/>
      <point x="141" y="394"/>
      <point x="141" y="354" type="qcurve" smooth="yes"/>
      <point x="141" y="123" type="line" smooth="yes"/>
      <point x="141" y="83"/>
      <point x="181" y="83" type="qcurve" smooth="yes"/>
      <point x="335" y="83" type="line" smooth="yes"/>
      <point x="375" y="83"/>
      <point x="375" y="43" type="qcurve" smooth="yes"/>
      <point x="375" y="32" type="line" smooth="yes"/>
      <point x="375" y="-8"/>
      <point x="335" y="-8" type="qcurve" smooth="yes"/>
      <point x="152" y="-8" type="line" smooth="yes"/>
      <point x="123" y="-8"/>
    </contour>
  </outline>
</glyph>
<glyph name="h" format="2">
  <advance width="425"/>
  <unicode hex="0068"/>
  <outline>
    <contour>
      <point x="90" y="-10" type="line" smooth="yes"/>
      <point x="50" y="-10"/>
      <point x="50" y="30" type="qcurve" smooth="yes"/>
      <point x="50" y="667" type="line" smooth="yes"/>
      <point x="50" y="707"/>
      <point x="90" y="707" type="qcurve" smooth="yes"/>
      <point x="101" y="707" type="line" smooth="yes"/>
      <point x="141" y="707"/>
      <point x="141" y="667" type="qcurve" smooth="yes"/>
      <point x="141" y="525" type="line" smooth="yes"/>
      <point x="141" y="485"/>
      <point x="181" y="485" type="qcurve" smooth="yes"/>
      <point x="273" y="485" type="line" smooth="yes"/>
      <point x="302" y="485"/>
      <point x="322" y="465" type="qcurve" smooth="yes"/>
      <point x="355" y="432" type="line" smooth="yes"/>
      <point x="375" y="412"/>
      <point x="375" y="383" type="qcurve" smooth="yes"/>
      <point x="375" y="30" type="line" smooth="yes"/>
      <point x="375" y="-10"/>
      <point x="335" y="-10" type="qcurve" smooth="yes"/>
      <point x="324" y="-10" type="line" smooth="yes"/>
      <point x="284" y="-10"/>
      <point x="284" y="30" type="qcurve" smooth="yes"/>
      <point x="284" y="354" type="line" smooth="yes"/>
      <point x="284" y="394"/>
      <point x="244" y="394" type="qcurve" smooth="yes"/>
      <point x="181" y="394" type="line" smooth="yes"/>
      <point x="141" y="394"/>
      <point x="141" y="354" type="qcurve" smooth="yes"/>
      <point x="141" y="30" type="line" smooth="yes"/>
      <point x="141" y="-10"/>
      <point x="101" y="-10" type="qcurve" smooth="yes"/>
    </contour>
  </outline>
</glyph>
<glyph name="k" format="2">
  <advance width="363"/>
  <unicode hex="006B"/>
  <outline>
    <contour>
      <point x="90" y="-9" type="line" smooth="yes"/>
      <point x="50" y="-9"/>
      <point x="50" y="31" type="qcurve" smooth="yes"/>
      <point x="50" y="679" type="line" smooth="yes"/>
      <point x="50" y="719"/>
      <point x="90" y="719" type="qcurve" smooth="yes"/>
      <point x="101" y="719" type="line" smooth="yes"/>
      <point x="141" y="719"/>
      <point x="141" y="679" type="qcurve" smooth="yes"/>
      <point x="141" y="397" type="line" smooth="yes"/>
      <point x="141" y="381"/>
      <point x="152" y="363"/>
      <point x="161" y="363" type="qcurve" smooth="yes"/>
      <point x="175" y="363"/>
      <point x="190" y="382" type="qcurve" smooth="yes"/>
      <point x="250" y="459" type="line" smooth="yes"/>
      <point x="270" y="485"/>
      <point x="298" y="485" type="qcurve" smooth="yes"/>
      <point x="313" y="485" type="line" smooth="yes"/>
      <point x="329" y="485"/>
      <point x="347" y="471"/>
      <point x="347" y="460" type="qcurve" smooth="yes"/>
      <point x="347" y="450"/>
      <point x="339" y="437" type="qcurve"/>
      <point x="242" y="293" type="line" smooth="yes"/>
      <point x="233" y="280"/>
      <point x="233" y="265" type="qcurve" smooth="yes"/>
      <point x="233" y="251"/>
      <point x="240" y="238" type="qcurve" smooth="yes"/>
      <point x="347" y="39" type="line" smooth="yes"/>
      <point x="353" y="27"/>
      <point x="353" y="17" type="qcurve" smooth="yes"/>
      <point x="353" y="5"/>
      <point x="335" y="-9"/>
      <point x="320" y="-9" type="qcurve" smooth="yes"/>
      <point x="299" y="-9" type="line" smooth="yes"/>
      <point x="267" y="-9"/>
      <point x="251" y="19" type="qcurve" smooth="yes"/>
      <point x="189" y="129" type="line" smooth="yes"/>
      <point x="177" y="151"/>
      <point x="162" y="151" type="qcurve" smooth="yes"/>
      <point x="153" y="151"/>
      <point x="141" y="133"/>
      <point x="141" y="116" type="qcurve" smooth="yes"/>
      <point x="141" y="31" type="line" smooth="yes"/>
      <point x="141" y="-9"/>
      <point x="101" y="-9" type="qcurve" smooth="yes"/>
    </contour>
  </outline>
</glyph>
<glyph name="l" format="2">
  <advance width="190"/>
  <unicode hex="006C"/>
  <outline>
    <contour>
      <point x="90" y="-9" type="line" smooth="yes"/>
      <point x="50" y="-9"/>
      <point x="50" y="31" type="qcurve" smooth="yes"/>
      <point x="50" y="670" type="line" smooth="yes"/>
      <point x="50" y="710"/>
      <point x="90" y="710" type="qcurve" smooth="yes"/>
      <point x="100" y="710" type="line" smooth="yes"/>
      <point x="140" y="710"/>
      <point x="140" y="670" type="qcurve" smooth="yes"/>
      <point x="140" y="31" type="line" smooth="yes"/>
      <point x="140" y="-9"/>
      <point x="100" y="-9" type="qcurve" smooth="yes"/>
    </contour>
  </outline>
</glyph>
<glyph name="s" format="2">
  <advance width="426"/>
  <unicode hex="0073"/>
  <anchor x="213" y="485" name="top"/>
  <outline>
    <contour>
      <point x="103" y="11" type="qcurve" smooth="yes"/>
      <point x="70" y="44" type="line" smooth="yes"/>
      <point x="50" y="64"/>
      <point x="50" y="93" type="qcurve"/>
      <point x="50" y="94" type="line"/>
      <point x="50" y="134"/>
      <point x="90" y="134" type="qcurve" smooth="yes"/>
      <point x="101" y="134" type="line" smooth="yes"/>
      <point x="120" y="134"/>
      <point x="141" y="120"/>
      <point x="141" y="108" type="qcurve" smooth="yes"/>
      <point x="141" y="96"/>
      <point x="162" y="82"/>
      <point x="181" y="82" type="qcurve" smooth="yes"/>
      <point x="245" y="82" type="line" smooth="yes"/>
      <point x="285" y="82"/>
      <point x="285" y="122" type="qcurve" smooth="yes"/>
      <point x="285" y="152" type="line" smooth="yes"/>
      <point x="285" y="192"/>
      <point x="245" y="192" type="qcurve" smooth="yes"/>
      <point x="151" y="192" type="line" smooth="yes"/>
      <point x="136" y="192"/>
      <point x="114" y="201"/>
      <point x="102" y="211" type="qcurve" smooth="yes"/>
      <point x="72" y="237" type="line" smooth="yes"/>
      <point x="60" y="247"/>
      <point x="50" y="270"/>
      <point x="50" y="286" type="qcurve" smooth="yes"/>
      <point x="50" y="384" type="line" smooth="yes"/>
      <point x="50" y="399"/>
      <point x="60" y="422"/>
      <point x="71" y="433" type="qcurve" smooth="yes"/>
      <point x="103" y="465" type="line" smooth="yes"/>
      <point x="123" y="485"/>
      <point x="152" y="485" type="qcurve" smooth="yes"/>
      <point x="274" y="485" type="line" smooth="yes"/>
      <point x="304" y="485"/>
      <point x="324" y="465" type="qcurve" smooth="yes"/>
      <point x="356" y="433" type="line" smooth="yes"/>
      <point x="376" y="413"/>
      <point x="376" y="384" type="qcurve"/>
      <point x="376" y="382" type="line"/>
      <point x="376" y="342"/>
      <point x="336" y="342" type="qcurve" smooth="yes"/>
      <point x="325" y="342" type="line" smooth="yes"/>
      <point x="306" y="342"/>
      <point x="285" y="356"/>
      <point x="285" y="369" type="qcurve" smooth="yes"/>
      <point x="285" y="381"/>
      <point x="264" y="395"/>
      <point x="245" y="395" type="qcurve" smooth="yes"/>
      <point x="181" y="395" type="line" smooth="yes"/>
      <point x="141" y="395"/>
      <point x="141" y="355" type="qcurve" smooth="yes"/>
      <point x="141" y="314" type="line" smooth="yes"/>
      <point x="141" y="274"/>
      <point x="181" y="274" type="qcurve" smooth="yes"/>
      <point x="274" y="274" type="line" smooth="yes"/>
      <point x="303" y="274"/>
      <point x="323" y="254" type="qcurve" smooth="yes"/>
      <point x="356" y="221" type="line" smooth="yes"/>
      <point x="376" y="201"/>
      <point x="376" y="172" type="qcurve" smooth="yes"/>
      <point x="376" y="93" type="line" smooth="yes"/>
      <point x="376" y="64"/>
      <point x="356" y="44" type="qcurve" smooth="yes"/>
      <point x="323" y="11" type="line" smooth="yes"/>
      <point x="303" y="-9"/>
      <point x="274" y="-9" type="qcurve" smooth="yes"/>
      <point x="152" y="-9" type="line" smooth="yes"/>
      <point x="123" y="-9"/>
    </contour>
  </outline>
</glyph>
<glyph name="t" format="2">
  <advance width="340"/>
  <unicode hex="0074"/>
  <outline>
    <contour>
      <point x="129" y="44" type="line" smooth="yes"/>
      <point x="109" y="64"/>
      <point x="109" y="93" type="qcurve" smooth="yes"/>
      <point x="109" y="355" type="line" smooth="yes"/>
      <point x="109" y="374"/>
      <point x="89" y="395"/>
      <point x="70" y="395" type="qcurve" smooth="yes"/>
      <point x="30" y="395"/>
      <point x="30" y="435" type="qcurve" smooth="yes"/>
      <point x="30" y="445" type="line" smooth="yes"/>
      <point x="30" y="464"/>
      <point x="51" y="485"/>
      <point x="70" y="485" type="qcurve" smooth="yes"/>
      <point x="89" y="485"/>
      <point x="109" y="506"/>
      <point x="109" y="525" type="qcurve" smooth="yes"/>
      <point x="109" y="577" type="line" smooth="yes"/>
      <point x="109" y="617"/>
      <point x="149" y="617" type="qcurve" smooth="yes"/>
      <point x="160" y="617" type="line" smooth="yes"/>
      <point x="200" y="617"/>
      <point x="200" y="577" type="qcurve" smooth="yes"/>
      <point x="200" y="525" type="line" smooth="yes"/>
      <point x="200" y="485"/>
      <point x="240" y="485" type="qcurve" smooth="yes"/>
      <point x="280" y="485" type="line" smooth="yes"/>
      <point x="320" y="485"/>
      <point x="320" y="445" type="qcurve" smooth="yes"/>
      <point x="320" y="435" type="line" smooth="yes"/>
      <point x="320" y="395"/>
      <point x="280" y="395" type="qcurve" smooth="yes"/>
      <point x="240" y="395" type="line" smooth="yes"/>
      <point x="200" y="395"/>
      <point x="200" y="355" type="qcurve" smooth="yes"/>
      <point x="200" y="122" type="line" smooth="yes"/>
      <point x="200" y="82"/>
      <point x="240" y="82" type="qcurve" smooth="yes"/>
      <point x="280" y="82" type="line" smooth="yes"/>
      <point x="320" y="82"/>
      <point x="320" y="42" type="qcurve" smooth="yes"/>
      <point x="320" y="31" type="line" smooth="yes"/>
      <point x="320" y="-9"/>
      <point x="280" y="-9" type="qcurve" smooth="yes"/>
      <point x="211" y="-9" type="line" smooth="yes"/>
      <point x="182" y="-9"/>
      <point x="162" y="11" type="qcurve" smooth="yes"/>
    </contour>
  </outline>
</glyph>
<glyph name="w" format="2">
  <advance width="604"/>
  <unicode hex="0077"/>
  <outline>
    <contour>
      <point x="193" y="79" type="line"/>
      <point x="248" y="372" type="line" smooth="yes"/>
      <point x="255" y="408"/>
      <point x="292" y="408" type="qcurve" smooth="yes"/>
      <point x="313" y="408" type="line" smooth="yes"/>
      <point x="349" y="408"/>
      <point x="356" y="372" type="qcurve" smooth="yes"/>
      <point x="407" y="115" type="line" smooth="yes"/>
      <point x="414" y="79"/>
      <point x="416" y="79" type="qcurve"/>
      <point x="417" y="79" type="line"/>
      <point x="483" y="449" type="line" smooth="yes"/>
      <point x="489" y="485"/>
      <point x="526" y="485" type="qcurve" smooth="yes"/>
      <point x="537" y="485" type="line" smooth="yes"/>
      <point x="555" y="485"/>
      <point x="574" y="467"/>
      <point x="574" y="452" type="qcurve" smooth="yes"/>
      <point x="574" y="445"/>
      <point x="573" y="441" type="qcurve" smooth="yes"/>
      <point x="491" y="25" type="line" smooth="yes"/>
      <point x="484" y="-11"/>
      <point x="448" y="-11" type="qcurve" smooth="yes"/>
      <point x="385" y="-11" type="line" smooth="yes"/>
      <point x="348" y="-11"/>
      <point x="342" y="26" type="qcurve" smooth="yes"/>
      <point x="316" y="197" type="line" smooth="yes"/>
      <point x="312" y="225"/>
      <point x="304" y="225" type="qcurve" smooth="yes"/>
      <point x="297" y="225"/>
      <point x="292" y="198" type="qcurve"/>
      <point x="266" y="26" type="line" smooth="yes"/>
      <point x="260" y="-11"/>
      <point x="223" y="-11" type="qcurve" smooth="yes"/>
      <point x="159" y="-11" type="line" smooth="yes"/>
      <point x="123" y="-11"/>
      <point x="116" y="25" type="qcurve" smooth="yes"/>
      <point x="31" y="441" type="line" smooth="yes"/>
      <point x="30" y="445"/>
      <point x="30" y="453" type="qcurve" smooth="yes"/>
      <point x="30" y="485"/>
      <point x="67" y="485" type="qcurve" smooth="yes"/>
      <point x="78" y="485" type="line" smooth="yes"/>
      <point x="116" y="485"/>
      <point x="122" y="449" type="qcurve" smooth="yes"/>
      <point x="182" y="115" type="line" smooth="yes"/>
      <point x="185" y="99"/>
      <point x="189" y="81"/>
      <point x="191" y="79" type="qcurve"/>
    </contour>
  </outline>
</glyph>
<glyph name="x" format="2">
  <advance width="357"/>
  <unicode hex="0078"/>
  <outline>
    <contour>
      <point x="11" y="7" type="qcurve" smooth="yes"/>
      <point x="11" y="16"/>
      <point x="17" y="28" type="qcurve" smooth="yes"/>
      <point x="105" y="201" type="line" smooth="yes"/>
      <point x="113" y="217"/>
      <point x="113" y="229" type="qcurve" smooth="yes"/>
      <point x="113" y="241"/>
      <point x="106" y="255" type="qcurve" smooth="yes"/>
      <point x="16" y="438" type="line" smooth="yes"/>
      <point x="10" y="450"/>
      <point x="10" y="459" type="qcurve" smooth="yes"/>
      <point x="10" y="471"/>
      <point x="26" y="485"/>
      <point x="41" y="485" type="qcurve" smooth="yes"/>
      <point x="55" y="485" type="line" smooth="yes"/>
      <point x="88" y="485"/>
      <point x="102" y="456" type="qcurve" smooth="yes"/>
      <point x="150" y="356" type="line" smooth="yes"/>
      <point x="161" y="333"/>
      <point x="177" y="333" type="qcurve" smooth="yes"/>
      <point x="193" y="333"/>
      <point x="205" y="356" type="qcurve" smooth="yes"/>
      <point x="256" y="456" type="line" smooth="yes"/>
      <point x="271" y="485"/>
      <point x="303" y="485" type="qcurve" smooth="yes"/>
      <point x="313" y="485" type="line" smooth="yes"/>
      <point x="347" y="485"/>
      <point x="347" y="460" type="qcurve" smooth="yes"/>
      <point x="347" y="450"/>
      <point x="341" y="438" type="qcurve" smooth="yes"/>
      <point x="247" y="257" type="line" smooth="yes"/>
      <point x="239" y="241"/>
      <point x="239" y="229" type="qcurve" smooth="yes"/>
      <point x="239" y="219"/>
      <point x="246" y="203" type="qcurve"/>
      <point x="332" y="28" type="line" smooth="yes"/>
      <point x="338" y="16"/>
      <point x="338" y="6" type="qcurve" smooth="yes"/>
      <point x="338" y="-6"/>
      <point x="322" y="-19"/>
      <point x="308" y="-19" type="qcurve" smooth="yes"/>
      <point x="294" y="-19" type="line" smooth="yes"/>
      <point x="261" y="-19"/>
      <point x="247" y="10" type="qcurve" smooth="yes"/>
      <point x="201" y="103" type="line" smooth="yes"/>
      <point x="190" y="126"/>
      <point x="174" y="126" type="qcurve" smooth="yes"/>
      <point x="158" y="126"/>
      <point x="146" y="103" type="qcurve" smooth="yes"/>
      <point x="98" y="10" type="line"/>
      <point x="84" y="-19"/>
      <point x="51" y="-19" type="qcurve" smooth="yes"/>
      <point x="46" y="-19" type="line" smooth="yes"/>
      <point x="30" y="-19"/>
      <point x="11" y="-5"/>
    </contour>
  </outline>
</glyph>
<glyph name="z" format="2">
  <advance width="384"/>
  <unicode hex="007A"/>
  <anchor x="192" y="485" name="top"/>
  <outline>
    <contour>
      <point x="70" y="0" type="line" smooth="yes"/>
      <point x="30" y="0"/>
      <point x="30" y="40" type="qcurve" smooth="yes"/>
      <point x="30" y="67" type="line" smooth="yes"/>
      <point x="30" y="97"/>
      <point x="44" y="117" type="qcurve" smooth="yes"/>
      <point x="210" y="346" type="line" smooth="yes"/>
      <point x="219" y="358"/>
      <point x="219" y="368" type="qcurve" smooth="yes"/>
      <point x="219" y="380"/>
      <point x="200" y="394"/>
      <point x="183" y="394" type="qcurve" smooth="yes"/>
      <point x="70" y="394" type="line" smooth="yes"/>
      <point x="30" y="394"/>
      <point x="30" y="434" type="qcurve" smooth="yes"/>
      <point x="30" y="445" type="line" smooth="yes"/>
      <point x="30" y="485"/>
      <point x="70" y="485" type="qcurve" smooth="yes"/>
      <point x="314" y="485" type="line" smooth="yes"/>
      <point x="354" y="485"/>
      <point x="354" y="445" type="qcurve" smooth="yes"/>
      <point x="354" y="412" type="line" smooth="yes"/>
      <point x="354" y="382"/>
      <point x="340" y="362" type="qcurve" smooth="yes"/>
      <point x="181" y="139" type="line" smooth="yes"/>
      <point x="173" y="128"/>
      <point x="173" y="117" type="qcurve" smooth="yes"/>
      <point x="173" y="106"/>
      <point x="193" y="91"/>
      <point x="209" y="91" type="qcurve" smooth="yes"/>
      <point x="313" y="91" type="line" smooth="yes"/>
      <point x="353" y="91"/>
      <point x="353" y="51" type="qcurve" smooth="yes"/>
      <point x="353" y="40" type="line" smooth="yes"/>
      <point x="353" y="0"/>
      <point x="313" y="0" type="qcurve" smooth="yes"/>
    </contour>
  </outline>
</glyph>
<glyph name="bar" format="2">
  <advance width="185"/>
  <unicode hex="007C"/>
  <outline>
    <contour>
      <point x="90" y="-103" type="line" smooth="yes"/>
      <point x="50" y="-103"/>
      <point x="50" y="-63" type="qcurve" smooth="yes"/>
      <point x="50" y="768" type="line" smooth="yes"/>
      <point x="50" y="808"/>
      <point x="90" y="808" type="qcurve" smooth="yes"/>
      <point x="95" y="808" type="line" smooth="yes"/>
      <point x="135" y="808"/>
      <point x="135" y="768" type="qcurve" smooth="yes"/>
      <point x="135" y="-63" type="line" smooth="yes"/>
      <point x="135" y="-103"/>
      <point x="95" y="-103" type="qcurve" smooth="yes"/>
    </contour>
  </outline>
</glyph>
<glyph name="braceright" format="2">
  <advance width="273"/>
  <unicode hex="007D"/>
  <outline>
    <contour>
      <point x="11" y="-72" type="qcurve" smooth="yes"/>
      <point x="11" y="-61"/>
      <point x="22" y="-47" type="qcurve" smooth="yes"/>
      <point x="72" y="16" type="line"/>
      <point x="89" y="39"/>
      <point x="89" y="66" type="qcurve" smooth="yes"/>
      <point x="89" y="285" type="line" smooth="yes"/>
      <point x="89" y="315"/>
      <point x="112" y="334" type="qcurve" smooth="yes"/>
      <point x="123" y="343"/>
      <point x="123" y="354" type="qcurve" smooth="yes"/>
      <point x="123" y="364"/>
      <point x="112" y="373" type="qcurve" smooth="yes"/>
      <point x="99" y="383"/>
      <point x="89" y="406"/>
      <point x="89" y="422" type="qcurve" smooth="yes"/>
      <point x="89" y="641" type="line" smooth="yes"/>
      <point x="89" y="670"/>
      <point x="72" y="691" type="qcurve"/>
      <point x="21" y="758" type="line" smooth="yes"/>
      <point x="10" y="772"/>
      <point x="10" y="786" type="qcurve" smooth="yes"/>
      <point x="10" y="795"/>
      <point x="25" y="807"/>
      <point x="37" y="807" type="qcurve" smooth="yes"/>
      <point x="59" y="807" type="line" smooth="yes"/>
      <point x="88" y="807"/>
      <point x="108" y="784" type="qcurve" smooth="yes"/>
      <point x="174" y="708" type="line" smooth="yes"/>
      <point x="184" y="696"/>
      <point x="192" y="674"/>
      <point x="192" y="659" type="qcurve" smooth="yes"/>
      <point x="192" y="435" type="line" smooth="yes"/>
      <point x="192" y="406"/>
      <point x="213" y="386" type="qcurve"/>
      <point x="220" y="380" type="line" smooth="yes"/>
      <point x="234" y="368"/>
      <point x="234" y="355" type="qcurve" smooth="yes"/>
      <point x="234" y="341"/>
      <point x="220" y="329" type="qcurve" smooth="yes"/>
      <point x="214" y="324" type="line"/>
      <point x="192" y="303"/>
      <point x="192" y="275" type="qcurve" smooth="yes"/>
      <point x="192" y="51" type="line" smooth="yes"/>
      <point x="192" y="36"/>
      <point x="184" y="14"/>
      <point x="174" y="2" type="qcurve" smooth="yes"/>
      <point x="108" y="-74" type="line"/>
      <point x="90" y="-96"/>
      <point x="59" y="-96" type="qcurve" smooth="yes"/>
      <point x="46" y="-96" type="line" smooth="yes"/>
      <point x="30" y="-96"/>
      <point x="11" y="-83"/>
    </contour>
  </outline>
</glyph>
<glyph name="asciitilde" format="2">
  <advance width="429"/>
  <unicode hex="007E"/>
  <outline>
    <contour>
      <point x="55" y="306" type="qcurve" smooth="yes"/>
      <point x="44" y="306"/>
      <point x="30" y="323"/>
      <point x="30" y="339" type="qcurve" smooth="yes"/>
      <point x="30" y="364" type="line" smooth="yes"/>
      <point x="30" y="395"/>
      <point x="56" y="412" type="qcurve" smooth="yes"/>
      <point x="107" y="444" type="line"/>
      <point x="120" y="453"/>
      <point x="134" y="453" type="qcurve" smooth="yes"/>
      <point x="149" y="453"/>
      <point x="162" y="443" type="qcurve"/>
      <point x="269" y="369" type="line"/>
      <point x="282" y="359"/>
      <point x="296" y="359" type="qcurve" smooth="yes"/>
      <point x="311" y="359"/>
      <point x="325" y="369" type="qcurve" smooth="yes"/>
      <point x="350" y="387" type="line"/>
      <point x="365" y="397"/>
      <point x="375" y="397" type="qcurve" smooth="yes"/>
      <point x="386" y="397"/>
      <point x="399" y="379"/>
      <point x="399" y="363" type="qcurve" smooth="yes"/>
      <point x="399" y="338" type="line" smooth="yes"/>
      <point x="399" y="308"/>
      <point x="372" y="290" type="qcurve"/>
      <point x="322" y="259" type="line"/>
      <point x="309" y="250"/>
      <point x="294" y="250" type="qcurve" smooth="yes"/>
      <point x="281" y="250"/>
      <point x="266" y="259" type="qcurve"/>
      <point x="160" y="330" type="line" smooth="yes"/>
      <point x="146" y="340"/>
      <point x="131" y="340" type="qcurve" smooth="yes"/>
      <point x="119" y="340"/>
      <point x="104" y="331" type="qcurve"/>
      <point x="78" y="314" type="line" smooth="yes"/>
      <point x="66" y="306"/>
    </contour>
  </outline>
</glyph>
<glyph name="uni00A1" format="2">
  <advance width="196"/>
  <unicode hex="00A1"/>
  <outline>
    <contour>
      <point x="93" y="-120" type="line" smooth="yes"/>
      <point x="53" y="-120"/>
      <point x="53" y="-80" type="qcurve" smooth="yes"/>
      <point x="53" y="401" type="line" smooth="yes"/>
      <point x="53" y="441"/>
      <point x="93" y="441" type="qcurve" smooth="yes"/>
      <point x="103" y="441" type="line" smooth="yes"/>
      <point x="143" y="441"/>
      <point x="143" y="401" type="qcurve" smooth="yes"/>
      <point x="143" y="-80" type="line" smooth="yes"/>
      <point x="143" y="-120"/>
      <point x="103" y="-120" type="qcurve" smooth="yes"/>
    </contour>
    <contour>
      <point x="64" y="514" type="qcurve" smooth="yes"/>
      <point x="57" y="521" type="line" smooth="yes"/>
      <point x="40" y="538"/>
      <point x="40" y="555" type="qcurve" smooth="yes"/>
      <point x="40" y="572"/>
      <point x="57" y="589" type="qcurve" smooth="yes"/>
      <point x="64" y="596" type="line" smooth="yes"/>
      <point x="81" y="613"/>
      <point x="98" y="613" type="qcurve" smooth="yes"/>
      <point x="115" y="613"/>
      <point x="132" y="596" type="qcurve" smooth="yes"/>
      <point x="139" y="589" type="line" smooth="yes"/>
      <point x="156" y="572"/>
      <point x="156" y="555" type="qcurve" smooth="yes"/>
      <point x="156" y="538"/>
      <point x="139" y="521" type="qcurve" smooth="yes"/>
      <point x="132" y="514" type="line" smooth="yes"/>
      <point x="115" y="497"/>
      <point x="98" y="497" type="qcurve" smooth="yes"/>
      <point x="81" y="497"/>
    </contour>
  </outline>
</glyph>
<glyph name="cent" format="2">
  <advance width="405"/>
  <unicode hex="00A2"/>
  <outline>
    <contour>
      <point x="103" y="12" type="qcurve" smooth="yes"/>
      <point x="70" y="45" type="line" smooth="yes"/>
      <point x="50" y="65"/>
      <point x="50" y="94" type="qcurve" smooth="yes"/>
      <point x="50" y="379" type="line" smooth="yes"/>
      <point x="50" y="408"/>
      <point x="70" y="428" type="qcurve" smooth="yes"/>
      <point x="103" y="461" type="line" smooth="yes"/>
      <point x="123" y="481"/>
      <point x="152" y="481" type="qcurve"/>
      <point x="153" y="481" type="line"/>
      <point x="193" y="481"/>
      <point x="193" y="521" type="qcurve" smooth="yes"/>
      <point x="193" y="536" type="line" smooth="yes"/>
      <point x="193" y="576"/>
      <point x="233" y="576" type="qcurve" smooth="yes"/>
      <point x="247" y="576" type="line" smooth="yes"/>
      <point x="287" y="576"/>
      <point x="287" y="536" type="qcurve" smooth="yes"/>
      <point x="287" y="521" type="line" smooth="yes"/>
      <point x="287" y="481"/>
      <point x="327" y="481" type="qcurve" smooth="yes"/>
      <point x="335" y="481" type="line" smooth="yes"/>
      <point x="375" y="481"/>
      <point x="375" y="441" type="qcurve" smooth="yes"/>
      <point x="375" y="430" type="line" smooth="yes"/>
      <point x="375" y="390"/>
      <point x="335" y="390" type="qcurve" smooth="yes"/>
      <point x="327" y="390" type="line" smooth="yes"/>
      <point x="287" y="390"/>
      <point x="287" y="350" type="qcurve" smooth="yes"/>
      <point x="287" y="123" type="line" smooth="yes"/>
      <point x="287" y="83"/>
      <point x="327" y="83" type="qcurve" smooth="yes"/>
      <point x="335" y="83" type="line" smooth="yes"/>
      <point x="375" y="83"/>
      <point x="375" y="43" type="qcurve" smooth="yes"/>
      <point x="375" y="32" type="line" smooth="yes"/>
      <point x="375" y="-8"/>
      <point x="335" y="-8" type="qcurve" smooth="yes"/>
      <point x="327" y="-8" type="line" smooth="yes"/>
      <point x="287" y="-8"/>
      <point x="287" y="-48" type="qcurve" smooth="yes"/>
      <point x="287" y="-63" type="line" smooth="yes"/>
      <point x="287" y="-103"/>
      <point x="247" y="-103" type="qcurve" smooth="yes"/>
      <point x="233" y="-103" type="line" smooth="yes"/>
      <point x="193" y="-103"/>
      <point x="193" y="-63" type="qcurve" smooth="yes"/>
      <point x="193" y="-48" type="line" smooth="yes"/>
      <point x="193" y="-8"/>
      <point x="153" y="-8" type="qcurve"/>
      <point x="152" y="-8" type="line"/>
      <point x="123" y="-8"/>
    </contour>
    <contour>
      <point x="141" y="123" type="line" smooth="yes"/>
      <point x="141" y="83"/>
      <point x="181" y="83" type="qcurve" smooth="yes"/>
      <point x="187" y="83" type="line" smooth="yes"/>
      <point x="193" y="83"/>
      <point x="193" y="123" type="qcurve" smooth="yes"/>
      <point x="193" y="350" type="line" smooth="yes"/>
      <point x="193" y="390"/>
      <point x="181" y="390" type="qcurve" smooth="yes"/>
      <point x="141" y="390"/>
      <point x="141" y="350" type="qcurve" smooth="yes"/>
    </contour>
  </outline>
</glyph>
<glyph name="brokenbar" format="2">
  <advance width="194"/>
  <unicode hex="00A6"/>
  <outline>
    <contour>
      <point x="90" y="397" type="line" smooth="yes"/>
      <point x="50" y="397"/>
      <point x="50" y="437" type="qcurve" smooth="yes"/>
      <point x="50" y="768" type="line" smooth="yes"/>
      <point x="50" y="808"/>
      <point x="90" y="808" type="qcurve" smooth="yes"/>
      <point x="104" y="808" type="line" smooth="yes"/>
      <point x="144" y="808"/>
      <point x="144" y="768" type="qcurve" smooth="yes"/>
      <point x="144" y="437" type="line" smooth="yes"/>
      <point x="144" y="397"/>
      <point x="104" y="397" type="qcurve" smooth="yes"/>
    </contour>
    <contour>
      <point x="90" y="-103" type="line" smooth="yes"/>
      <point x="50" y="-103"/>
      <point x="50" y="-63" type="qcurve" smooth="yes"/>
      <point x="50" y="288" type="line" smooth="yes"/>
      <point x="50" y="328"/>
      <point x="90" y="328" type="qcurve" smooth="yes"/>
      <point x="104" y="328" type="line" smooth="yes"/>
      <point x="144" y="328"/>
      <point x="144" y="288" type="qcurve" smooth="yes"/>
      <point x="144" y="-63" type="line" smooth="yes"/>
      <point x="144" y="-103"/>
      <point x="104" y="-103" type="qcurve" smooth="yes"/>
    </contour>
  </outline>
</glyph>
<glyph name="copyright" format="2">
  <advance width="610"/>
  <unicode hex="00A9"/>
  <outline>
    <contour>
      <point x="16" y="343" type="qcurve" smooth="yes"/>
      <point x="16" y="403"/>
      <point x="61" y="508"/>
      <point x="139" y="586"/>
      <point x="245" y="632"/>
      <point x="305" y="632" type="qcurve" smooth="yes"/>
      <point x="365" y="632"/>
      <point x="470" y="587"/>
      <point x="548" y="509"/>
      <point x="594" y="404"/>
      <point x="594" y="343" type="qcurve" smooth="yes"/>
      <point x="594" y="283"/>
      <point x="549" y="178"/>
      <point x="471" y="100"/>
      <point x="366" y="55"/>
      <point x="305" y="55" type="qcurve" smooth="yes"/>
      <point x="245" y="55"/>
      <point x="140" y="100"/>
      <point x="62" y="178"/>
      <point x="16" y="283"/>
    </contour>
    <contour>
      <point x="81" y="343" type="qcurve" smooth="yes"/>
      <point x="81" y="297"/>
      <point x="116" y="216"/>
      <point x="176" y="155"/>
      <point x="258" y="120"/>
      <point x="305" y="120" type="qcurve" smooth="yes"/>
      <point x="351" y="120"/>
      <point x="433" y="155"/>
      <point x="494" y="215"/>
      <point x="529" y="296"/>
      <point x="529" y="343" type="qcurve" smooth="yes"/>
      <point x="529" y="389"/>
      <point x="494" y="471"/>
      <point x="434" y="532"/>
      <point x="352" y="567"/>
      <point x="305" y="567" type="qcurve" smooth="yes"/>
      <point x="259" y="567"/>
      <point x="177" y="532"/>
      <point x="116" y="472"/>
      <point x="81" y="390"/>
    </contour>
    <contour>
      <point x="208" y="200" type="qcurve" smooth="yes"/>
      <point x="175" y="233" type="line" smooth="yes"/>
      <point x="155" y="253"/>
      <point x="155" y="282" type="qcurve" smooth="yes"/>
      <point x="155" y="401" type="line" smooth="yes"/>
      <point x="155" y="430"/>
      <point x="175" y="450" type="qcurve" smooth="yes"/>
      <point x="208" y="483" type="line" smooth="yes"/>
      <point x="228" y="503"/>
      <point x="257" y="503" type="qcurve" smooth="yes"/>
      <point x="354" y="503" type="line" smooth="yes"/>
      <point x="382" y="503"/>
      <point x="403" y="482" type="qcurve" smooth="yes"/>
      <point x="435" y="450" type="line" smooth="yes"/>
      <point x="455" y="430"/>
      <point x="455" y="401" type="qcurve"/>
      <point x="455" y="399" type="line"/>
      <point x="455" y="359"/>
      <point x="415" y="359" type="qcurve" smooth="yes"/>
      <point x="410" y="359" type="line" smooth="yes"/>
      <point x="391" y="359"/>
      <point x="370" y="379"/>
      <point x="370" y="392" type="qcurve" smooth="yes"/>
      <point x="370" y="404"/>
      <point x="349" y="418"/>
      <point x="330" y="418" type="qcurve" smooth="yes"/>
      <point x="280" y="418" type="line" smooth="yes"/>
      <point x="240" y="418"/>
      <point x="240" y="378" type="qcurve" smooth="yes"/>
      <point x="240" y="305" type="line" smooth="yes"/>
      <point x="240" y="265"/>
      <point x="280" y="265" type="qcurve" smooth="yes"/>
      <point x="330" y="265" type="line" smooth="yes"/>
      <point x="349" y="265"/>
      <point x="370" y="279"/>
      <point x="370" y="291" type="qcurve" smooth="yes"/>
      <point x="370" y="303"/>
      <point x="391" y="323"/>
      <point x="410" y="323" type="qcurve" smooth="yes"/>
      <point x="415" y="323" type="line" smooth="yes"/>
      <point x="434" y="323"/>
      <point x="455" y="305"/>
      <point x="455" y="288" type="qcurve" smooth="yes"/>
      <point x="455" y="282" type="line" smooth="yes"/>
      <point x="456" y="253"/>
      <point x="435" y="232" type="qcurve" smooth="yes"/>
      <point x="403" y="200" type="line" smooth="yes"/>
      <point x="383" y="180"/>
      <point x="354" y="180" type="qcurve" smooth="yes"/>
      <point x="257" y="180" type="line" smooth="yes"/>
      <point x="228" y="180"/>
    </contour>
  </outline>
</glyph>
<glyph name="threesuperior" format="2">
  <advance width="315"/>
  <unicode hex="00B3"/>
  <outline>
    <contour>
      <point x="262" y="587" type="qcurve" smooth="yes"/>
      <point x="280" y="569"/>
      <point x="280" y="543" type="qcurve" smooth="yes"/>
      <point x="280" y="459" type="line" smooth="yes"/>
      <point x="280" y="427"/>
      <point x="258" y="405" type="qcurve" smooth="yes"/>
      <point x="235" y="382"/>
      <point x="203" y="382" type="qcurve" smooth="yes"/>
      <point x="67" y="382" type="line" smooth="yes"/>
      <point x="35" y="382"/>
      <point x="35" y="414" type="qcurve" smooth="yes"/>
      <point x="35" y="446"/>
      <point x="67" y="446" type="qcurve" smooth="yes"/>
      <point x="176" y="446" type="line" smooth="yes"/>
      <point x="216" y="446"/>
      <point x="216" y="486" type="qcurve" smooth="yes"/>
      <point x="216" y="525" type="line" smooth="yes"/>
      <point x="216" y="565"/>
      <point x="176" y="565" type="qcurve" smooth="yes"/>
      <point x="72" y="565" type="line" smooth="yes"/>
      <point x="40" y="565"/>
      <point x="40" y="597" type="qcurve" smooth="yes"/>
      <point x="40" y="629"/>
      <point x="72" y="629" type="qcurve" smooth="yes"/>
      <point x="176" y="629" type="line" smooth="yes"/>
      <point x="216" y="629"/>
      <point x="216" y="669" type="qcurve" smooth="yes"/>
      <point x="216" y="710" type="line" smooth="yes"/>
      <point x="216" y="750"/>
      <point x="176" y="750" type="qcurve" smooth="yes"/>
      <point x="67" y="750" type="line" smooth="yes"/>
      <point x="35" y="750"/>
      <point x="35" y="782" type="qcurve" smooth="yes"/>
      <point x="35" y="814"/>
      <point x="67" y="814" type="qcurve" smooth="yes"/>
      <point x="203" y="814" type="line" smooth="yes"/>
      <point x="235" y="814"/>
      <point x="258" y="791" type="qcurve" smooth="yes"/>
      <point x="280" y="769"/>
      <point x="280" y="737" type="qcurve" smooth="yes"/>
      <point x="280" y="643" type="line" smooth="yes"/>
      <point x="280" y="623"/>
      <point x="262" y="605" type="qcurve" smooth="yes"/>
      <point x="258" y="601"/>
      <point x="258" y="596" type="qcurve" smooth="yes"/>
      <point x="258" y="592"/>
    </contour>
  </outline>
</glyph>
<glyph name="acute" format="2">
  <advance width="168"/>
  <unicode hex="00B4"/>
  <outline>
    <contour>
      <point x="22" y="641" type="qcurve" smooth="yes"/>
      <point x="22" y="649"/>
      <point x="27" y="662" type="qcurve" smooth="yes"/>
      <point x="60" y="747" type="line" smooth="yes"/>
      <point x="72" y="778"/>
      <point x="106" y="778" type="qcurve" smooth="yes"/>
      <point x="112" y="778" type="line" smooth="yes"/>
      <point x="127" y="778"/>
      <point x="145" y="763"/>
      <point x="145" y="751" type="qcurve" smooth="yes"/>
      <point x="145" y="740"/>
      <point x="141" y="731" type="qcurve" smooth="yes"/>
      <point x="105" y="645" type="line" smooth="yes"/>
      <point x="92" y="615"/>
      <point x="59" y="615" type="qcurve" smooth="yes"/>
      <point x="53" y="615" type="line" smooth="yes"/>
      <point x="38" y="615"/>
      <point x="22" y="629"/>
    </contour>
  </outline>
</glyph>
<glyph name="onesuperior" format="2">
  <advance width="215"/>
  <unicode hex="00B9"/>
  <outline>
    <contour>
      <point x="35" y="414" type="qcurve" smooth="yes"/>
      <point x="35" y="446"/>
      <point x="54" y="446" type="qcurve" smooth="yes"/>
      <point x="79" y="446"/>
      <point x="79" y="486" type="qcurve" smooth="yes"/>
      <point x="79" y="728" type="line" smooth="yes"/>
      <point x="79" y="750"/>
      <point x="57" y="750" type="qcurve" smooth="yes"/>
      <point x="35" y="750"/>
      <point x="35" y="772" type="qcurve" smooth="yes"/>
      <point x="35" y="783" type="line" smooth="yes"/>
      <point x="35" y="814"/>
      <point x="66" y="814" type="qcurve" smooth="yes"/>
      <point x="70" y="814" type="line" smooth="yes"/>
      <point x="98" y="814"/>
      <point x="118" y="794" type="qcurve" smooth="yes"/>
      <point x="143" y="769"/>
      <point x="143" y="734" type="qcurve" smooth="yes"/>
      <point x="143" y="486" type="line" smooth="yes"/>
      <point x="143" y="446"/>
      <point x="161" y="446" type="qcurve" smooth="yes"/>
      <point x="180" y="446"/>
      <point x="180" y="414" type="qcurve" smooth="yes"/>
      <point x="180" y="382"/>
      <point x="140" y="382" type="qcurve" smooth="yes"/>
      <point x="75" y="382" type="line" smooth="yes"/>
      <point x="35" y="382"/>
    </contour>
  </outline>
</glyph>
<glyph name="ordmasculine" format="2">
  <advance width="268"/>
  <unicode hex="00BA"/>
  <outline>
    <contour>
      <point x="53" y="404" type="qcurve" smooth="yes"/>
      <point x="30" y="427"/>
      <point x="30" y="459" type="qcurve" smooth="yes"/>
      <point x="30" y="601" type="line" smooth="yes"/>
      <point x="30" y="633"/>
      <point x="52" y="655" type="qcurve" smooth="yes"/>
      <point x="75" y="678"/>
      <point x="107" y="678" type="qcurve" smooth="yes"/>
      <point x="161" y="678" type="line" smooth="yes"/>
      <point x="193" y="678"/>
      <point x="216" y="655" type="qcurve" smooth="yes"/>
      <point x="238" y="633"/>
      <point x="238" y="601" type="qcurve" smooth="yes"/>
      <point x="238" y="459" type="line" smooth="yes"/>
      <point x="238" y="427"/>
      <point x="216" y="405" type="qcurve" smooth="yes"/>
      <point x="193" y="382"/>
      <point x="161" y="382" type="qcurve" smooth="yes"/>
      <point x="107" y="382" type="line" smooth="yes"/>
      <point x="75" y="382"/>
    </contour>
    <contour>
      <point x="94" y="486" type="line" smooth="yes"/>
      <point x="94" y="446"/>
      <point x="134" y="446" type="qcurve" smooth="yes"/>
      <point x="174" y="446"/>
      <point x="174" y="486" type="qcurve" smooth="yes"/>
      <point x="174" y="574" type="line" smooth="yes"/>
      <point x="174" y="614"/>
      <point x="134" y="614" type="qcurve" smooth="yes"/>
      <point x="94" y="614"/>
      <point x="94" y="574" type="qcurve" smooth="yes"/>
    </contour>
  </outline>
</glyph>
<glyph name="divide" format="2">
  <advance width="638"/>
  <unicode hex="00F7"/>
  <outline>
    <contour>
      <point x="272" y="590" type="qcurve"/>
      <point x="294" y="610"/>
      <point x="319" y="610" type="qcurve" smooth="yes"/>
      <point x="347" y="610"/>
      <point x="367" y="590" type="qcurve" smooth="yes"/>
      <point x="387" y="570"/>
      <point x="387" y="542" type="qcurve" smooth="yes"/>
      <point x="387" y="514"/>
      <point x="367" y="494" type="qcurve" smooth="yes"/>
      <point x="348" y="475"/>
      <point x="319" y="475" type="qcurve" smooth="yes"/>
      <point x="291" y="475"/>
      <point x="272" y="494" type="qcurve" smooth="yes"/>
      <point x="252" y="514"/>
      <point x="252" y="542" type="qcurve" smooth="yes"/>
      <point x="252" y="567"/>
    </contour>
    <contour>
      <point x="80" y="313" type="line" smooth="yes"/>
      <point x="40" y="313"/>
      <point x="40" y="353" type="qcurve" smooth="yes"/>
      <point x="40" y="373" type="line" smooth="yes"/>
      <point x="40" y="413"/>
      <point x="80" y="413" type="qcurve" smooth="yes"/>
      <point x="558" y="413" type="line" smooth="yes"/>
      <point x="598" y="413"/>
      <point x="598" y="373" type="qcurve" smooth="yes"/>
      <point x="598" y="353" type="line" smooth="yes"/>
      <point x="598" y="313"/>
      <point x="558" y="313" type="qcurve" smooth="yes"/>
    </contour>
    <contour>
      <point x="272" y="219" type="qcurve"/>
      <point x="294" y="239"/>
      <point x="319" y="239" type="qcurve" smooth="yes"/>
      <point x="347" y="239"/>
      <point x="367" y="219" type="qcurve" smooth="yes"/>
      <point x="387" y="199"/>
      <point x="387" y="172" type="qcurve" smooth="yes"/>
      <point x="387" y="143"/>
      <point x="367" y="123" type="qcurve" smooth="yes"/>
      <point x="348" y="104"/>
      <point x="319" y="104" type="qcurve" smooth="yes"/>
      <point x="291" y="104"/>
      <point x="272" y="123" type="qcurve" smooth="yes"/>
      <point x="252" y="143"/>
      <point x="252" y="172" type="qcurve" smooth="yes"/>
      <point x="252" y="197"/>
    </contour>
  </outline>
</glyph>
<glyph name="imacron" format="2">
  <advance width="275"/>
  <unicode hex="012B"/>
  <anchor x="138" y="485" name="top"/>
  <outline>
    <component base="dotlessi" xOffset="32"/>
    <contour>
      <point x="5" y="597" type="qcurve" smooth="yes"/>
      <point x="5" y="634"/>
      <point x="45" y="634" type="qcurve" smooth="yes"/>
      <point x="230" y="634" type="line" smooth="yes"/>
      <point x="270" y="634"/>
      <point x="270" y="597" type="qcurve" smooth="yes"/>
      <point x="270" y="560"/>
      <point x="230" y="560" type="qcurve" smooth="yes"/>
      <point x="45" y="560" type="line" smooth="yes"/>
      <point x="5" y="560"/>
    </contour>
  </outline>
</glyph>
<glyph name="dotlessi" format="2">
  <advance width="212"/>
  <unicode hex="0131"/>
  <anchor x="106" y="485" name="top"/>
  <outline>
    <contour>
      <point x="101" y="-9" type="line" smooth="yes"/>
      <point x="61" y="-9"/>
      <point x="61" y="31" type="qcurve" smooth="yes"/>
      <point x="61" y="445" type="line" smooth="yes"/>
      <point x="61" y="485"/>
      <point x="101" y="485" type="qcurve" smooth="yes"/>
      <point x="111" y="485" type="line" smooth="yes"/>
      <point x="151" y="485"/>
      <point x="151" y="445" type="qcurve" smooth="yes"/>
      <point x="151" y="31" type="line" smooth="yes"/>
      <point x="151" y="-9"/>
      <point x="111" y="-9" type="qcurve" smooth="yes"/>
    </contour>
  </outline>
</glyph>
<glyph name="tilde" format="2">
  <advance width="418"/>
  <unicode hex="02DC"/>
  <outline>
    <contour>
      <point x="331" y="780" type="line"/>
      <point x="344" y="806" type="line"/>
      <point x="356" y="832"/>
      <point x="356" y="845" type="qcurve" smooth="yes"/>
      <point x="356" y="852"/>
      <point x="372" y="860"/>
      <point x="387" y="860" type="qcurve" smooth="yes"/>
      <point x="418" y="860"/>
      <point x="418" y="837" type="qcurve" smooth="yes"/>
      <point x="418" y="817"/>
      <point x="406" y="791" type="qcurve" smooth="yes"/>
      <point x="392" y="762" type="line" smooth="yes"/>
      <point x="381" y="740"/>
      <point x="368" y="730" type="qcurve" smooth="yes"/>
      <point x="353" y="720"/>
      <point x="333" y="713" type="qcurve" smooth="yes"/>
      <point x="300" y="701" type="line" smooth="yes"/>
      <point x="277" y="692"/>
      <point x="251" y="692" type="qcurve" smooth="yes"/>
      <point x="188" y="691" type="line" smooth="yes"/>
      <point x="162" y="691"/>
      <point x="139" y="683" type="qcurve"/>
      <point x="126" y="679" type="line"/>
      <point x="101" y="670"/>
      <point x="95" y="665" type="qcurve" smooth="yes"/>
      <point x="85" y="656"/>
      <point x="75" y="636" type="qcurve"/>
      <point x="74" y="633" type="line"/>
      <point x="62" y="608"/>
      <point x="62" y="591" type="qcurve" smooth="yes"/>
      <point x="62" y="572"/>
      <point x="31" y="572" type="qcurve" smooth="yes"/>
      <point x="16" y="572"/>
      <point x="0" y="586"/>
      <point x="0" y="598" type="qcurve" smooth="yes"/>
      <point x="0" y="624"/>
      <point x="11" y="647" type="qcurve" smooth="yes"/>
      <point x="25" y="677" type="line" smooth="yes"/>
      <point x="35" y="699"/>
      <point x="53" y="712" type="qcurve"/>
      <point x="66" y="722"/>
      <point x="92" y="732" type="qcurve" smooth="yes"/>
      <point x="124" y="744" type="line" smooth="yes"/>
      <point x="147" y="753"/>
      <point x="173" y="752" type="qcurve"/>
      <point x="236" y="753" type="line" smooth="yes"/>
      <point x="262" y="753"/>
      <point x="285" y="761" type="qcurve" smooth="yes"/>
      <point x="299" y="766" type="line" smooth="yes"/>
      <point x="323" y="775"/>
      <point x="327" y="777" type="qcurve"/>
    </contour>
  </outline>
</glyph>
<glyph name="gravecomb" format="2">
  <unicode hex="0300"/>
  <anchor x="-60" y="540" name="_top"/>
  <outline>
    <contour>
      <point x="-107" y="660" type="qcurve" smooth="yes"/>
      <point x="-147" y="748" type="line" smooth="yes"/>
      <point x="-153" y="762"/>
      <point x="-138" y="781"/>
      <point x="-122" y="781" type="qcurve" smooth="yes"/>
      <point x="-101" y="781" type="line" smooth="yes"/>
      <point x="-84" y="781"/>
      <point x="-61" y="762"/>
      <point x="-55" y="748" type="qcurve" smooth="yes"/>
      <point x="-15" y="660" type="line" smooth="yes"/>
      <point x="-9" y="646"/>
      <point x="-24" y="627"/>
      <point x="-40" y="627" type="qcurve" smooth="yes"/>
      <point x="-61" y="627" type="line" smooth="yes"/>
      <point x="-78" y="627"/>
      <point x="-101" y="646"/>
    </contour>
  </outline>
</glyph>
<glyph name="circumflexcomb" format="2">
  <unicode hex="0302"/>
  <anchor x="-109" y="532" name="_top"/>
  <anchor x="-109" y="749" name="top"/>
  <outline>
    <contour>
      <point x="-206" y="626" type="qcurve" smooth="yes"/>
      <point x="-206" y="639"/>
      <point x="-196" y="655" type="qcurve" smooth="yes"/>
      <point x="-137" y="749" type="line" smooth="yes"/>
      <point x="-125" y="769"/>
      <point x="-109" y="769" type="qcurve" smooth="yes"/>
      <point x="-93" y="769"/>
      <point x="-81" y="749" type="qcurve"/>
      <point x="-21" y="655" type="line"/>
      <point x="-10" y="639"/>
      <point x="-10" y="623" type="qcurve" smooth="yes"/>
      <point x="-10" y="607"/>
      <point x="-26" y="607" type="qcurve" smooth="yes"/>
      <point x="-30" y="607" type="line" smooth="yes"/>
      <point x="-62" y="607"/>
      <point x="-78" y="634" type="qcurve" smooth="yes"/>
      <point x="-81" y="639" type="line" smooth="yes"/>
      <point x="-95" y="663"/>
      <point x="-111" y="663" type="qcurve" smooth="yes"/>
      <point x="-122" y="663"/>
      <point x="-131" y="648" type="qcurve"/>
      <point x="-138" y="635" type="line" smooth="yes"/>
      <point x="-153" y="607"/>
      <point x="-186" y="607" type="qcurve" smooth="yes"/>
      <point x="-206" y="607"/>
    </contour>
  </outline>
</glyph>
<glyph name="macroncomb" format="2">
  <unicode hex="0304"/>
  <anchor x="-170" y="613" name="_top"/>
  <outline>
    <contour>
      <point x="-330" y="725" type="qcurve" smooth="yes"/>
      <point x="-330" y="762"/>
      <point x="-290" y="762" type="qcurve" smooth="yes"/>
      <point x="-50" y="762" type="line" smooth="yes"/>
      <point x="-10" y="762"/>
      <point x="-10" y="725" type="qcurve" smooth="yes"/>
      <point x="-10" y="688"/>
      <point x="-50" y="688" type="qcurve" smooth="yes"/>
      <point x="-290" y="688" type="line" smooth="yes"/>
      <point x="-330" y="688"/>
    </contour>
  </outline>
</glyph>
<glyph name="dotaccentcomb" format="2">
  <unicode hex="0307"/>
  <anchor x="-61" y="574" name="_top"/>
  <outline>
    <contour>
      <point x="-61" y="649" type="qcurve" smooth="yes"/>
      <point x="-83" y="649"/>
      <point x="-110" y="680"/>
      <point x="-110" y="699" type="qcurve" smooth="yes"/>
      <point x="-110" y="719"/>
      <point x="-82" y="748"/>
      <point x="-61" y="748" type="qcurve" smooth="yes"/>
      <point x="-38" y="748"/>
      <point x="-10" y="717"/>
      <point x="-10" y="699" type="qcurve" smooth="yes"/>
      <point x="-10" y="680"/>
      <point x="-39" y="649"/>
    </contour>
  </outline>
</glyph>
<glyph name="dieresiscomb" format="2">
  <unicode hex="0308"/>
  <anchor x="-142" y="574" name="_top"/>
  <anchor x="-142" y="725" name="top"/>
  <outline>
    <contour>
      <point x="-223" y="649" type="qcurve" smooth="yes"/>
      <point x="-246" y="649"/>
      <point x="-273" y="679"/>
      <point x="-273" y="699" type="qcurve" smooth="yes"/>
      <point x="-273" y="719"/>
      <point x="-244" y="748"/>
      <point x="-223" y="748" type="qcurve" smooth="yes"/>
      <point x="-201" y="748"/>
      <point x="-173" y="717"/>
      <point x="-173" y="699" type="qcurve" smooth="yes"/>
      <point x="-173" y="680"/>
      <point x="-202" y="649"/>
    </contour>
    <contour>
      <point x="-60" y="649" type="qcurve" smooth="yes"/>
      <point x="-82" y="649"/>
      <point x="-109" y="680"/>
      <point x="-109" y="699" type="qcurve" smooth="yes"/>
      <point x="-109" y="719"/>
      <point x="-81" y="748"/>
      <point x="-60" y="748" type="qcurve" smooth="yes"/>
      <point x="-38" y="748"/>
      <point x="-10" y="717"/>
      <point x="-10" y="699" type="qcurve" smooth="yes"/>
      <point x="-10" y="680"/>
      <point x="-39" y="649"/>
    </contour>
  </outline>
</glyph>
<glyph name="caroncomb" format="2">
  <unicode hex="030C"/>
  <anchor x="-128" y="566" name="_top"/>
  <outline>
    <contour>
      <point x="-188" y="665" type="qcurve" smooth="yes"/>
      <point x="-229" y="717" type="line" smooth="yes"/>
      <point x="-241" y="732"/>
      <point x="-241" y="747" type="qcurve" smooth="yes"/>
      <point x="-241" y="761"/>
      <point x="-230" y="769" type="qcurve" smooth="yes"/>
      <point x="-220" y="776"/>
      <point x="-210" y="776" type="qcurve" smooth="yes"/>
      <point x="-194" y="776"/>
      <point x="-179" y="757" type="qcurve" smooth="yes"/>
      <point x="-158" y="731" type="line" smooth="yes"/>
      <point x="-139" y="708"/>
      <point x="-128" y="708" type="qcurve" smooth="yes"/>
      <point x="-119" y="708"/>
      <point x="-98" y="730" type="qcurve"/>
      <point x="-73" y="759" type="line" smooth="yes"/>
      <point x="-58" y="777"/>
      <point x="-42" y="777" type="qcurve" smooth="yes"/>
      <point x="-33" y="777"/>
      <point x="-21" y="769" type="qcurve" smooth="yes"/>
      <point x="-10" y="761"/>
      <point x="-10" y="748" type="qcurve" smooth="yes"/>
      <point x="-10" y="734"/>
      <point x="-24" y="717" type="qcurve" smooth="yes"/>
      <point x="-70" y="663" type="line" smooth="yes"/>
      <point x="-88" y="641"/>
      <point x="-119" y="641" type="qcurve" smooth="yes"/>
      <point x="-139" y="641" type="line" smooth="yes"/>
      <point x="-169" y="641"/>
    </contour>
  </outline>
</glyph>
<glyph name="Delta" format="2">
  <advance width="531"/>
  <unicode hex="0394"/>
  <outline>
    <contour>
      <point x="32" y="27" type="qcurve" smooth="yes"/>
      <point x="32" y="31"/>
      <point x="33" y="36" type="qcurve" smooth="yes"/>
      <point x="160" y="674" type="line" smooth="yes"/>
      <point x="166" y="710"/>
      <point x="204" y="710" type="qcurve" smooth="yes"/>
      <point x="328" y="710" type="line" smooth="yes"/>
      <point x="366" y="710"/>
      <point x="372" y="674" type="qcurve" smooth="yes"/>
      <point x="502" y="36" type="line" smooth="yes"/>
      <point x="503" y="31"/>
      <point x="503" y="27" type="qcurve" smooth="yes"/>
      <point x="503" y="0"/>
      <point x="472" y="0" type="qcurve" smooth="yes"/>
      <point x="63" y="0" type="line" smooth="yes"/>
      <point x="32" y="0"/>
    </contour>
    <contour>
      <point x="143" y="117" type="qcurve" smooth="yes"/>
      <point x="143" y="90"/>
      <point x="174" y="90" type="qcurve" smooth="yes"/>
      <point x="361" y="90" type="line" smooth="yes"/>
      <point x="392" y="90"/>
      <point x="392" y="117" type="qcurve" smooth="yes"/>
      <point x="392" y="121"/>
      <point x="391" y="126" type="qcurve" smooth="yes"/>
      <point x="294" y="597" type="line" smooth="yes"/>
      <point x="289" y="619"/>
      <point x="266" y="619" type="qcurve" smooth="yes"/>
      <point x="244" y="619"/>
      <point x="239" y="597" type="qcurve" smooth="yes"/>
      <point x="144" y="126" type="line" smooth="yes"/>
      <point x="143" y="121"/>
    </contour>
  </outline>
</glyph>
<glyph name="Iota" format="2">
  <advance width="272"/>
  <unicode hex="0399"/>
  <outline>
    <contour>
      <point x="60" y="-9" type="line" smooth="yes"/>
      <point x="20" y="-9"/>
      <point x="20" y="31" type="qcurve" smooth="yes"/>
      <point x="20" y="42" type="line" smooth="yes"/>
      <point x="20" y="61"/>
      <point x="38" y="82"/>
      <point x="55" y="82" type="qcurve" smooth="yes"/>
      <point x="72" y="82"/>
      <point x="90" y="103"/>
      <point x="90" y="122" type="qcurve" smooth="yes"/>
      <point x="90" y="579" type="line" smooth="yes"/>
      <point x="90" y="598"/>
      <point x="72" y="619"/>
      <point x="55" y="619" type="qcurve" smooth="yes"/>
      <point x="38" y="619"/>
      <point x="20" y="640"/>
      <point x="20" y="659" type="qcurve" smooth="yes"/>
      <point x="20" y="670" type="line" smooth="yes"/>
      <point x="20" y="710"/>
      <point x="60" y="710" type="qcurve" smooth="yes"/>
      <point x="212" y="710" type="line" smooth="yes"/>
      <point x="252" y="710"/>
      <point x="252" y="670" type="qcurve" smooth="yes"/>
      <point x="252" y="659" type="line" smooth="yes"/>
      <point x="252" y="619"/>
      <point x="217" y="619" type="qcurve" smooth="yes"/>
      <point x="200" y="619"/>
      <point x="181" y="598"/>
      <point x="181" y="579" type="qcurve" smooth="yes"/>
      <point x="181" y="122" type="line" smooth="yes"/>
      <point x="181" y="103"/>
      <point x="200" y="82"/>
      <point x="217" y="82" type="qcurve" smooth="yes"/>
      <point x="234" y="82"/>
      <point x="252" y="61"/>
      <point x="252" y="42" type="qcurve" smooth="yes"/>
      <point x="252" y="31" type="line" smooth="yes"/>
      <point x="252" y="-9"/>
      <point x="212" y="-9" type="qcurve" smooth="yes"/>
    </contour>
  </outline>
</glyph>
<glyph name="Chi" format="2">
  <advance width="514"/>
  <unicode hex="03A7"/>
  <outline>
    <contour>
      <point x="80" y="-9" type="line" smooth="yes"/>
      <point x="40" y="-9"/>
      <point x="40" y="31" type="qcurve" smooth="yes"/>
      <point x="40" y="42" type="line" smooth="yes"/>
      <point x="40" y="61"/>
      <point x="55" y="82"/>
      <point x="68" y="82" type="qcurve" smooth="yes"/>
      <point x="95" y="82"/>
      <point x="108" y="113" type="qcurve" smooth="yes"/>
      <point x="196" y="325" type="line" smooth="yes"/>
      <point x="202" y="340"/>
      <point x="202" y="352" type="qcurve" smooth="yes"/>
      <point x="202" y="366"/>
      <point x="196" y="379" type="qcurve"/>
      <point x="108" y="592" type="line" smooth="yes"/>
      <point x="95" y="623"/>
      <point x="68" y="623" type="qcurve" smooth="yes"/>
      <point x="40" y="623"/>
      <point x="40" y="663" type="qcurve" smooth="yes"/>
      <point x="40" y="674" type="line" smooth="yes"/>
      <point x="40" y="714"/>
      <point x="80" y="714" type="qcurve" smooth="yes"/>
      <point x="119" y="714" type="line" smooth="yes"/>
      <point x="136" y="714"/>
      <point x="158" y="699"/>
      <point x="165" y="683" type="qcurve" smooth="yes"/>
      <point x="228" y="530" type="line" smooth="yes"/>
      <point x="238" y="505"/>
      <point x="255" y="505" type="qcurve" smooth="yes"/>
      <point x="271" y="505"/>
      <point x="282" y="530" type="qcurve" smooth="yes"/>
      <point x="346" y="683" type="line" smooth="yes"/>
      <point x="359" y="714"/>
      <point x="392" y="714" type="qcurve" smooth="yes"/>
      <point x="434" y="714" type="line" smooth="yes"/>
      <point x="474" y="714"/>
      <point x="474" y="674" type="qcurve" smooth="yes"/>
      <point x="474" y="663" type="line" smooth="yes"/>
      <point x="474" y="644"/>
      <point x="459" y="623"/>
      <point x="445" y="623" type="qcurve" smooth="yes"/>
      <point x="416" y="623"/>
      <point x="403" y="592" type="qcurve" smooth="yes"/>
      <point x="314" y="379" type="line" smooth="yes"/>
      <point x="308" y="366"/>
      <point x="308" y="352" type="qcurve" smooth="yes"/>
      <point x="308" y="340"/>
      <point x="314" y="325" type="qcurve" smooth="yes"/>
      <point x="403" y="113" type="line" smooth="yes"/>
      <point x="416" y="82"/>
      <point x="445" y="82" type="qcurve" smooth="yes"/>
      <point x="459" y="82"/>
      <point x="474" y="61"/>
      <point x="474" y="42" type="qcurve" smooth="yes"/>
      <point x="474" y="31" type="line" smooth="yes"/>
      <point x="474" y="-9"/>
      <point x="434" y="-9" type="qcurve" smooth="yes"/>
      <point x="392" y="-9" type="line" smooth="yes"/>
      <point x="359" y="-9"/>
      <point x="346" y="22" type="qcurve" smooth="yes"/>
      <point x="282" y="174" type="line" smooth="yes"/>
      <point x="272" y="199"/>
      <point x="255" y="199" type="qcurve" smooth="yes"/>
      <point x="238" y="199"/>
      <point x="228" y="174" type="qcurve" smooth="yes"/>
      <point x="165" y="22" type="line" smooth="yes"/>
      <point x="158" y="6"/>
      <point x="136" y="-9"/>
      <point x="119" y="-9" type="qcurve" smooth="yes"/>
    </contour>
  </outline>
</glyph>
<glyph name="Psi" format="2">
  <advance width="563"/>
  <unicode hex="03A8"/>
  <outline>
    <contour>
      <point x="236" y="31" type="qcurve" smooth="yes"/>
      <point x="236" y="115" type="line" smooth="yes"/>
      <point x="236" y="155"/>
      <point x="196" y="155" type="qcurve" smooth="yes"/>
      <point x="152" y="155" type="line" smooth="yes"/>
      <point x="123" y="155"/>
      <point x="103" y="175" type="qcurve" smooth="yes"/>
      <point x="70" y="208" type="line" smooth="yes"/>
      <point x="50" y="228"/>
      <point x="50" y="257" type="qcurve" smooth="yes"/>
      <point x="50" y="671" type="line" smooth="yes"/>
      <point x="50" y="711"/>
      <point x="90" y="711" type="qcurve" smooth="yes"/>
      <point x="101" y="711" type="line" smooth="yes"/>
      <point x="141" y="711"/>
      <point x="141" y="671" type="qcurve" smooth="yes"/>
      <point x="141" y="286" type="line" smooth="yes"/>
      <point x="141" y="246"/>
      <point x="181" y="246" type="qcurve" smooth="yes"/>
      <point x="196" y="246" type="line" smooth="yes"/>
      <point x="236" y="246"/>
      <point x="236" y="286" type="qcurve" smooth="yes"/>
      <point x="236" y="670" type="line" smooth="yes"/>
      <point x="236" y="710"/>
      <point x="276" y="710" type="qcurve" smooth="yes"/>
      <point x="288" y="710" type="line" smooth="yes"/>
      <point x="328" y="710"/>
      <point x="328" y="670" type="qcurve" smooth="yes"/>
      <point x="328" y="286" type="line" smooth="yes"/>
      <point x="328" y="246"/>
      <point x="368" y="246" type="qcurve" smooth="yes"/>
      <point x="382" y="246" type="line" smooth="yes"/>
      <point x="422" y="246"/>
      <point x="422" y="286" type="qcurve" smooth="yes"/>
      <point x="422" y="671" type="line" smooth="yes"/>
      <point x="422" y="711"/>
      <point x="462" y="711" type="qcurve" smooth="yes"/>
      <point x="473" y="711" type="line" smooth="yes"/>
      <point x="513" y="711"/>
      <point x="513" y="671" type="qcurve" smooth="yes"/>
      <point x="513" y="257" type="line" smooth="yes"/>
      <point x="513" y="228"/>
      <point x="493" y="207" type="qcurve" smooth="yes"/>
      <point x="461" y="175" type="line" smooth="yes"/>
      <point x="441" y="155"/>
      <point x="412" y="155" type="qcurve" smooth="yes"/>
      <point x="368" y="155" type="line" smooth="yes"/>
      <point x="328" y="155"/>
      <point x="328" y="115" type="qcurve" smooth="yes"/>
      <point x="328" y="31" type="line" smooth="yes"/>
      <point x="328" y="-9"/>
      <point x="288" y="-9" type="qcurve" smooth="yes"/>
      <point x="276" y="-9" type="line" smooth="yes"/>
      <point x="236" y="-9"/>
    </contour>
  </outline>
</glyph>
<glyph name="Omega" format="2">
  <advance width="565"/>
  <unicode hex="03A9"/>
  <outline>
    <contour>
      <point x="30" y="28" type="qcurve" smooth="yes"/>
      <point x="30" y="45" type="line" smooth="yes"/>
      <point x="30" y="82"/>
      <point x="67" y="82" type="qcurve" smooth="yes"/>
      <point x="122" y="82" type="line" smooth="yes"/>
      <point x="156" y="82"/>
      <point x="156" y="117" type="qcurve" smooth="yes"/>
      <point x="156" y="151"/>
      <point x="132" y="175" type="qcurve" smooth="yes"/>
      <point x="109" y="198" type="line" smooth="yes"/>
      <point x="83" y="224"/>
      <point x="83" y="261" type="qcurve" smooth="yes"/>
      <point x="83" y="601" type="line" smooth="yes"/>
      <point x="83" y="637"/>
      <point x="109" y="664" type="qcurve" smooth="yes"/>
      <point x="129" y="685" type="line" smooth="yes"/>
      <point x="154" y="711"/>
      <point x="192" y="711" type="qcurve" smooth="yes"/>
      <point x="370" y="711" type="line" smooth="yes"/>
      <point x="408" y="711"/>
      <point x="433" y="685" type="qcurve" smooth="yes"/>
      <point x="453" y="664" type="line" smooth="yes"/>
      <point x="479" y="637"/>
      <point x="479" y="601" type="qcurve" smooth="yes"/>
      <point x="479" y="261" type="line" smooth="yes"/>
      <point x="479" y="224"/>
      <point x="453" y="198" type="qcurve" smooth="yes"/>
      <point x="430" y="175" type="line" smooth="yes"/>
      <point x="406" y="151"/>
      <point x="406" y="116" type="qcurve" smooth="yes"/>
      <point x="406" y="82"/>
      <point x="440" y="82" type="qcurve" smooth="yes"/>
      <point x="498" y="82" type="line" smooth="yes"/>
      <point x="535" y="82"/>
      <point x="535" y="45" type="qcurve" smooth="yes"/>
      <point x="535" y="28" type="line" smooth="yes"/>
      <point x="535" y="-9"/>
      <point x="498" y="-9" type="qcurve" smooth="yes"/>
      <point x="425" y="-9" type="line" smooth="yes"/>
      <point x="388" y="-9"/>
      <point x="362" y="17" type="qcurve" smooth="yes"/>
      <point x="341" y="38" type="line" smooth="yes"/>
      <point x="315" y="64"/>
      <point x="315" y="101" type="qcurve" smooth="yes"/>
      <point x="315" y="132" type="line" smooth="yes"/>
      <point x="315" y="169"/>
      <point x="341" y="195" type="qcurve" smooth="yes"/>
      <point x="362" y="216" type="line" smooth="yes"/>
      <point x="388" y="242"/>
      <point x="388" y="279" type="qcurve" smooth="yes"/>
      <point x="388" y="583" type="line" smooth="yes"/>
      <point x="388" y="620"/>
      <point x="351" y="620" type="qcurve" smooth="yes"/>
      <point x="211" y="620" type="line" smooth="yes"/>
      <point x="174" y="620"/>
      <point x="174" y="583" type="qcurve" smooth="yes"/>
      <point x="174" y="279" type="line" smooth="yes"/>
      <point x="174" y="242"/>
      <point x="200" y="216" type="qcurve" smooth="yes"/>
      <point x="221" y="195" type="line" smooth="yes"/>
      <point x="247" y="169"/>
      <point x="247" y="132" type="qcurve" smooth="yes"/>
      <point x="247" y="101" type="line" smooth="yes"/>
      <point x="247" y="64"/>
      <point x="221" y="38" type="qcurve" smooth="yes"/>
      <point x="200" y="17" type="line" smooth="yes"/>
      <point x="174" y="-9"/>
      <point x="137" y="-9" type="qcurve" smooth="yes"/>
      <point x="67" y="-9" type="line" smooth="yes"/>
      <point x="30" y="-9"/>
    </contour>
  </outline>
</glyph>
<glyph name="alpha" format="2">
  <advance width="455"/>
  <unicode hex="03B1"/>
  <outline>
    <contour>
      <point x="140" y="136" type="line" smooth="yes"/>
      <point x="140" y="96"/>
      <point x="180" y="96" type="qcurve" smooth="yes"/>
      <point x="244" y="96" type="line" smooth="yes"/>
      <point x="284" y="96"/>
      <point x="284" y="136" type="qcurve" smooth="yes"/>
      <point x="284" y="355" type="line" smooth="yes"/>
      <point x="284" y="395"/>
      <point x="244" y="395" type="qcurve" smooth="yes"/>
      <point x="180" y="395" type="line" smooth="yes"/>
      <point x="140" y="395"/>
      <point x="140" y="355" type="qcurve" smooth="yes"/>
    </contour>
    <contour>
      <point x="102" y="26" type="qcurve" smooth="yes"/>
      <point x="70" y="58" type="line" smooth="yes"/>
      <point x="50" y="78"/>
      <point x="50" y="107" type="qcurve" smooth="yes"/>
      <point x="50" y="384" type="line" smooth="yes"/>
      <point x="50" y="413"/>
      <point x="70" y="433" type="qcurve" smooth="yes"/>
      <point x="102" y="465" type="line" smooth="yes"/>
      <point x="122" y="485"/>
      <point x="151" y="485" type="qcurve" smooth="yes"/>
      <point x="335" y="485" type="line" smooth="yes"/>
      <point x="375" y="485"/>
      <point x="375" y="445" type="qcurve" smooth="yes"/>
      <point x="375" y="131" type="line" smooth="yes"/>
      <point x="375" y="96"/>
      <point x="405" y="96" type="qcurve" smooth="yes"/>
      <point x="435" y="96"/>
      <point x="435" y="61" type="qcurve" smooth="yes"/>
      <point x="435" y="42" type="line" smooth="yes"/>
      <point x="435" y="6"/>
      <point x="403" y="6" type="qcurve" smooth="yes"/>
      <point x="375" y="6"/>
      <point x="349" y="29" type="qcurve" smooth="yes"/>
      <point x="340" y="38"/>
      <point x="328" y="38" type="qcurve" smooth="yes"/>
      <point x="316" y="38"/>
      <point x="305" y="27" type="qcurve" smooth="yes"/>
      <point x="283" y="5"/>
      <point x="251" y="5" type="qcurve" smooth="yes"/>
      <point x="151" y="5" type="line" smooth="yes"/>
      <point x="123" y="5"/>
    </contour>
  </outline>
</glyph>
<glyph name="delta" format="2">
  <advance width="427"/>
  <unicode hex="03B4"/>
  <outline>
    <contour>
      <point x="103" y="11" type="qcurve" smooth="yes"/>
      <point x="70" y="44" type="line" smooth="yes"/>
      <point x="50" y="64"/>
      <point x="50" y="93" type="qcurve" smooth="yes"/>
      <point x="50" y="362" type="line" smooth="yes"/>
      <point x="50" y="394"/>
      <point x="72" y="416" type="qcurve" smooth="yes"/>
      <point x="83" y="427"/>
      <point x="83" y="439" type="qcurve" smooth="yes"/>
      <point x="83" y="451"/>
      <point x="74" y="460" type="qcurve" smooth="yes"/>
      <point x="50" y="484"/>
      <point x="50" y="518" type="qcurve" smooth="yes"/>
      <point x="50" y="612" type="line" smooth="yes"/>
      <point x="50" y="641"/>
      <point x="70" y="661" type="qcurve" smooth="yes"/>
      <point x="102" y="693" type="line" smooth="yes"/>
      <point x="122" y="713"/>
      <point x="151" y="713" type="qcurve" smooth="yes"/>
      <point x="283" y="713" type="line" smooth="yes"/>
      <point x="323" y="713"/>
      <point x="323" y="673" type="qcurve" smooth="yes"/>
      <point x="323" y="662" type="line" smooth="yes"/>
      <point x="323" y="622"/>
      <point x="283" y="622" type="qcurve" smooth="yes"/>
      <point x="181" y="622" type="line" smooth="yes"/>
      <point x="141" y="622"/>
      <point x="141" y="582" type="qcurve" smooth="yes"/>
      <point x="141" y="522" type="line" smooth="yes"/>
      <point x="141" y="485"/>
      <point x="178" y="485" type="qcurve" smooth="yes"/>
      <point x="276" y="485" type="line" smooth="yes"/>
      <point x="305" y="485"/>
      <point x="325" y="465" type="qcurve" smooth="yes"/>
      <point x="357" y="433" type="line" smooth="yes"/>
      <point x="377" y="412"/>
      <point x="377" y="383" type="qcurve" smooth="yes"/>
      <point x="377" y="93" type="line"/>
      <point x="378" y="64"/>
      <point x="357" y="43" type="qcurve" smooth="yes"/>
      <point x="325" y="11" type="line" smooth="yes"/>
      <point x="305" y="-9"/>
      <point x="276" y="-9" type="qcurve" smooth="yes"/>
      <point x="152" y="-9" type="line" smooth="yes"/>
      <point x="123" y="-9"/>
    </contour>
    <contour>
      <point x="141" y="122" type="line" smooth="yes"/>
      <point x="141" y="82"/>
      <point x="181" y="82" type="qcurve" smooth="yes"/>
      <point x="246" y="82" type="line" smooth="yes"/>
      <point x="286" y="82"/>
      <point x="286" y="122" type="qcurve" smooth="yes"/>
      <point x="286" y="354" type="line" smooth="yes"/>
      <point x="286" y="394"/>
      <point x="246" y="394" type="qcurve" smooth="yes"/>
      <point x="181" y="394" type="line" smooth="yes"/>
      <point x="141" y="394"/>
      <point x="141" y="354" type="qcurve" smooth="yes"/>
    </contour>
  </outline>
</glyph>
<glyph name="epsilon" format="2">
  <advance width="406"/>
  <unicode hex="03B5"/>
  <outline>
    <contour>
      <point x="102" y="13" type="qcurve" smooth="yes"/>
      <point x="70" y="45" type="line" smooth="yes"/>
      <point x="50" y="65"/>
      <point x="50" y="94" type="qcurve" smooth="yes"/>
      <point x="50" y="167" type="line" smooth="yes"/>
      <point x="50" y="197"/>
      <point x="70" y="217" type="qcurve" smooth="yes"/>
      <point x="72" y="219" type="line" smooth="yes"/>
      <point x="82" y="229"/>
      <point x="82" y="241" type="qcurve" smooth="yes"/>
      <point x="82" y="254"/>
      <point x="70" y="266" type="qcurve" smooth="yes"/>
      <point x="50" y="287"/>
      <point x="50" y="316" type="qcurve" smooth="yes"/>
      <point x="50" y="384" type="line" smooth="yes"/>
      <point x="50" y="413"/>
      <point x="70" y="433" type="qcurve" smooth="yes"/>
      <point x="102" y="465" type="line" smooth="yes"/>
      <point x="122" y="485"/>
      <point x="151" y="485" type="qcurve" smooth="yes"/>
      <point x="326" y="485" type="line" smooth="yes"/>
      <point x="366" y="485"/>
      <point x="366" y="445" type="qcurve" smooth="yes"/>
      <point x="366" y="434" type="line" smooth="yes"/>
      <point x="366" y="394"/>
      <point x="326" y="394" type="qcurve" smooth="yes"/>
      <point x="180" y="394" type="line" smooth="yes"/>
      <point x="140" y="394"/>
      <point x="140" y="354" type="qcurve" smooth="yes"/>
      <point x="140" y="327" type="line" smooth="yes"/>
      <point x="140" y="287"/>
      <point x="180" y="287" type="qcurve" smooth="yes"/>
      <point x="304" y="287" type="line" smooth="yes"/>
      <point x="344" y="287"/>
      <point x="344" y="247" type="qcurve" smooth="yes"/>
      <point x="344" y="236" type="line" smooth="yes"/>
      <point x="344" y="196"/>
      <point x="304" y="196" type="qcurve" smooth="yes"/>
      <point x="180" y="196" type="line" smooth="yes"/>
      <point x="140" y="196"/>
      <point x="140" y="156" type="qcurve" smooth="yes"/>
      <point x="140" y="123" type="line" smooth="yes"/>
      <point x="140" y="83"/>
      <point x="180" y="83" type="qcurve" smooth="yes"/>
      <point x="332" y="83" type="line" smooth="yes"/>
      <point x="372" y="83"/>
      <point x="372" y="43" type="qcurve" smooth="yes"/>
      <point x="372" y="33" type="line" smooth="yes"/>
      <point x="372" y="-7"/>
      <point x="332" y="-7" type="qcurve" smooth="yes"/>
      <point x="151" y="-7" type="line" smooth="yes"/>
      <point x="122" y="-7"/>
    </contour>
  </outline>
</glyph>
<glyph name="eta" format="2">
  <advance width="447"/>
  <unicode hex="03B7"/>
  <outline>
    <contour>
      <point x="100" y="-10" type="line" smooth="yes"/>
      <point x="60" y="-10"/>
      <point x="60" y="30" type="qcurve" smooth="yes"/>
      <point x="60" y="383" type="line" smooth="yes"/>
      <point x="60" y="412"/>
      <point x="80" y="432" type="qcurve" smooth="yes"/>
      <point x="113" y="465" type="line" smooth="yes"/>
      <point x="133" y="485"/>
      <point x="162" y="485" type="qcurve" smooth="yes"/>
      <point x="286" y="485" type="line" smooth="yes"/>
      <point x="314" y="485"/>
      <point x="335" y="464" type="qcurve" smooth="yes"/>
      <point x="367" y="432" type="line" smooth="yes"/>
      <point x="387" y="412"/>
      <point x="387" y="383" type="qcurve" smooth="yes"/>
      <point x="387" y="-161" type="line" smooth="yes"/>
      <point x="387" y="-201"/>
      <point x="347" y="-201" type="qcurve" smooth="yes"/>
      <point x="337" y="-201" type="line" smooth="yes"/>
      <point x="297" y="-201"/>
      <point x="297" y="-161" type="qcurve" smooth="yes"/>
      <point x="297" y="354" type="line" smooth="yes"/>
      <point x="297" y="394"/>
      <point x="257" y="394" type="qcurve" smooth="yes"/>
      <point x="191" y="394" type="line" smooth="yes"/>
      <point x="151" y="394"/>
      <point x="151" y="354" type="qcurve" smooth="yes"/>
      <point x="151" y="30" type="line" smooth="yes"/>
      <point x="151" y="-10"/>
      <point x="111" y="-10" type="qcurve" smooth="yes"/>
    </contour>
  </outline>
</glyph>
<glyph name="kappa" format="2">
  <advance width="368"/>
  <unicode hex="03BA"/>
  <outline>
    <contour>
      <point x="85" y="-9" type="line" smooth="yes"/>
      <point x="45" y="-9"/>
      <point x="45" y="31" type="qcurve" smooth="yes"/>
      <point x="45" y="445" type="line" smooth="yes"/>
      <point x="45" y="485"/>
      <point x="85" y="485" type="qcurve" smooth="yes"/>
      <point x="95" y="485" type="line" smooth="yes"/>
      <point x="135" y="485"/>
      <point x="135" y="445" type="qcurve" smooth="yes"/>
      <point x="135" y="335" type="line" smooth="yes"/>
      <point x="135" y="312"/>
      <point x="143" y="312" type="qcurve" smooth="yes"/>
      <point x="150" y="312"/>
      <point x="160" y="327" type="qcurve" smooth="yes"/>
      <point x="242" y="452" type="line" smooth="yes"/>
      <point x="264" y="485"/>
      <point x="304" y="485" type="qcurve" smooth="yes"/>
      <point x="328" y="485" type="line" smooth="yes"/>
      <point x="352" y="485"/>
      <point x="352" y="469" type="qcurve" smooth="yes"/>
      <point x="352" y="463"/>
      <point x="346" y="452" type="qcurve"/>
      <point x="231" y="277" type="line" smooth="yes"/>
      <point x="221" y="261"/>
      <point x="221" y="242" type="qcurve" smooth="yes"/>
      <point x="221" y="225"/>
      <point x="230" y="210" type="qcurve" smooth="yes"/>
      <point x="347" y="25" type="line" smooth="yes"/>
      <point x="353" y="16"/>
      <point x="353" y="8" type="qcurve" smooth="yes"/>
      <point x="353" y="-9"/>
      <point x="328" y="-9" type="qcurve" smooth="yes"/>
      <point x="301" y="-9" type="line" smooth="yes"/>
      <point x="263" y="-9"/>
      <point x="240" y="25" type="qcurve"/>
      <point x="158" y="159" type="line" smooth="yes"/>
      <point x="149" y="174"/>
      <point x="142" y="174" type="qcurve" smooth="yes"/>
      <point x="135" y="174"/>
      <point x="135" y="152" type="qcurve" smooth="yes"/>
      <point x="135" y="31" type="line" smooth="yes"/>
      <point x="135" y="-9"/>
      <point x="95" y="-9" type="qcurve" smooth="yes"/>
    </contour>
    <contour>
      <point x="347" y="-91" type="line"/>
      <point x="346" y="-89" type="line"/>
      <point x="347" y="-89" type="line"/>
    </contour>
  </outline>
</glyph>
<glyph name="mu" format="2">
  <advance width="440"/>
  <unicode hex="03BC"/>
  <outline>
    <contour>
      <point x="100" y="-214" type="line" smooth="yes"/>
      <point x="60" y="-214"/>
      <point x="60" y="-174" type="qcurve" smooth="yes"/>
      <point x="60" y="445" type="line" smooth="yes"/>
      <point x="60" y="485"/>
      <point x="100" y="485" type="qcurve" smooth="yes"/>
      <point x="111" y="485" type="line" smooth="yes"/>
      <point x="151" y="485"/>
      <point x="151" y="445" type="qcurve" smooth="yes"/>
      <point x="151" y="122" type="line" smooth="yes"/>
      <point x="151" y="82"/>
      <point x="191" y="82" type="qcurve" smooth="yes"/>
      <point x="259" y="82" type="line" smooth="yes"/>
      <point x="299" y="82"/>
      <point x="299" y="122" type="qcurve" smooth="yes"/>
      <point x="299" y="445" type="line" smooth="yes"/>
      <point x="299" y="485"/>
      <point x="339" y="485" type="qcurve" smooth="yes"/>
      <point x="350" y="485" type="line" smooth="yes"/>
      <point x="390" y="485"/>
      <point x="390" y="445" type="qcurve" smooth="yes"/>
      <point x="390" y="93" type="line"/>
      <point x="391" y="64"/>
      <point x="370" y="43" type="qcurve" smooth="yes"/>
      <point x="338" y="11" type="line" smooth="yes"/>
      <point x="318" y="-9"/>
      <point x="289" y="-9" type="qcurve" smooth="yes"/>
      <point x="191" y="-9" type="line" smooth="yes"/>
      <point x="151" y="-9"/>
      <point x="151" y="-49" type="qcurve" smooth="yes"/>
      <point x="151" y="-174" type="line" smooth="yes"/>
      <point x="151" y="-214"/>
      <point x="111" y="-214" type="qcurve" smooth="yes"/>
    </contour>
  </outline>
</glyph>
<glyph name="nu" format="2">
  <advance width="372"/>
  <unicode hex="03BD"/>
  <outline>
    <contour>
      <point x="108" y="27" type="qcurve" smooth="yes"/>
      <point x="31" y="442" type="line" smooth="yes"/>
      <point x="30" y="446"/>
      <point x="30" y="453" type="qcurve" smooth="yes"/>
      <point x="30" y="469"/>
      <point x="50" y="485"/>
      <point x="67" y="485" type="qcurve" smooth="yes"/>
      <point x="79" y="485" type="line" smooth="yes"/>
      <point x="116" y="485"/>
      <point x="122" y="448" type="qcurve" smooth="yes"/>
      <point x="175" y="119" type="line" smooth="yes"/>
      <point x="181" y="82"/>
      <point x="187" y="82" type="qcurve" smooth="yes"/>
      <point x="193" y="82"/>
      <point x="199" y="119" type="qcurve" smooth="yes"/>
      <point x="250" y="448" type="line" smooth="yes"/>
      <point x="256" y="485"/>
      <point x="293" y="485" type="qcurve" smooth="yes"/>
      <point x="305" y="485" type="line" smooth="yes"/>
      <point x="322" y="485"/>
      <point x="342" y="469"/>
      <point x="342" y="453" type="qcurve" smooth="yes"/>
      <point x="342" y="446"/>
      <point x="341" y="442" type="qcurve" smooth="yes"/>
      <point x="267" y="27" type="line" smooth="yes"/>
      <point x="261" y="-9"/>
      <point x="223" y="-9" type="qcurve" smooth="yes"/>
      <point x="152" y="-9" type="line" smooth="yes"/>
      <point x="115" y="-9"/>
    </contour>
  </outline>
</glyph>
<glyph name="pi" format="2">
  <advance width="536"/>
  <unicode hex="03C0"/>
  <outline>
    <contour>
      <point x="110" y="32" type="qcurve" smooth="yes"/>
      <point x="110" y="355" type="line" smooth="yes"/>
      <point x="110" y="395"/>
      <point x="70" y="395" type="qcurve" smooth="yes"/>
      <point x="30" y="395"/>
      <point x="30" y="435" type="qcurve" smooth="yes"/>
      <point x="30" y="445" type="line" smooth="yes"/>
      <point x="30" y="485"/>
      <point x="70" y="485" type="qcurve" smooth="yes"/>
      <point x="466" y="485" type="line" smooth="yes"/>
      <point x="506" y="485"/>
      <point x="506" y="445" type="qcurve" smooth="yes"/>
      <point x="506" y="435" type="line" smooth="yes"/>
      <point x="506" y="395"/>
      <point x="466" y="395" type="qcurve" smooth="yes"/>
      <point x="426" y="395"/>
      <point x="426" y="355" type="qcurve" smooth="yes"/>
      <point x="426" y="32" type="line" smooth="yes"/>
      <point x="426" y="-8"/>
      <point x="386" y="-8" type="qcurve" smooth="yes"/>
      <point x="375" y="-8" type="line" smooth="yes"/>
      <point x="335" y="-8"/>
      <point x="335" y="32" type="qcurve" smooth="yes"/>
      <point x="335" y="355" type="line" smooth="yes"/>
      <point x="335" y="395"/>
      <point x="295" y="395" type="qcurve" smooth="yes"/>
      <point x="241" y="395" type="line" smooth="yes"/>
      <point x="201" y="395"/>
      <point x="201" y="355" type="qcurve" smooth="yes"/>
      <point x="201" y="32" type="line" smooth="yes"/>
      <point x="201" y="-8"/>
      <point x="161" y="-8" type="qcurve" smooth="yes"/>
      <point x="150" y="-8" type="line" smooth="yes"/>
      <point x="110" y="-8"/>
    </contour>
  </outline>
</glyph>
<glyph name="tau" format="2">
  <advance width="401"/>
  <unicode hex="03C4"/>
  <outline>
    <contour>
      <point x="155" y="32" type="qcurve" smooth="yes"/>
      <point x="155" y="355" type="line" smooth="yes"/>
      <point x="155" y="395"/>
      <point x="115" y="395" type="qcurve" smooth="yes"/>
      <point x="70" y="395" type="line" smooth="yes"/>
      <point x="30" y="395"/>
      <point x="30" y="435" type="qcurve" smooth="yes"/>
      <point x="30" y="445" type="line" smooth="yes"/>
      <point x="30" y="485"/>
      <point x="70" y="485" type="qcurve" smooth="yes"/>
      <point x="331" y="485" type="line" smooth="yes"/>
      <point x="371" y="485"/>
      <point x="371" y="445" type="qcurve" smooth="yes"/>
      <point x="371" y="435" type="line" smooth="yes"/>
      <point x="371" y="395"/>
      <point x="331" y="395" type="qcurve" smooth="yes"/>
      <point x="286" y="395" type="line" smooth="yes"/>
      <point x="246" y="395"/>
      <point x="246" y="355" type="qcurve" smooth="yes"/>
      <point x="246" y="32" type="line" smooth="yes"/>
      <point x="246" y="-8"/>
      <point x="206" y="-8" type="qcurve" smooth="yes"/>
      <point x="195" y="-8" type="line" smooth="yes"/>
      <point x="155" y="-8"/>
    </contour>
  </outline>
</glyph>
<glyph name="phi" format="2">
  <advance width="534"/>
  <unicode hex="03C6"/>
  <outline>
    <contour>
      <point x="221" y="-174" type="qcurve" smooth="yes"/>
      <point x="221" y="-49" type="line" smooth="yes"/>
      <point x="221" y="-9"/>
      <point x="181" y="-9" type="qcurve" smooth="yes"/>
      <point x="152" y="-9" type="line" smooth="yes"/>
      <point x="123" y="-9"/>
      <point x="103" y="11" type="qcurve" smooth="yes"/>
      <point x="70" y="44" type="line" smooth="yes"/>
      <point x="50" y="64"/>
      <point x="50" y="93" type="qcurve" smooth="yes"/>
      <point x="50" y="437" type="line" smooth="yes"/>
      <point x="50" y="477"/>
      <point x="90" y="477" type="qcurve" smooth="yes"/>
      <point x="101" y="477" type="line" smooth="yes"/>
      <point x="141" y="477"/>
      <point x="141" y="437" type="qcurve" smooth="yes"/>
      <point x="141" y="122" type="line" smooth="yes"/>
      <point x="141" y="82"/>
      <point x="181" y="82" type="qcurve" smooth="yes"/>
      <point x="221" y="82"/>
      <point x="221" y="122" type="qcurve" smooth="yes"/>
      <point x="221" y="377" type="line" smooth="yes"/>
      <point x="221" y="417"/>
      <point x="249" y="445" type="qcurve" smooth="yes"/>
      <point x="266" y="462" type="line" smooth="yes"/>
      <point x="294" y="490"/>
      <point x="334" y="490" type="qcurve" smooth="yes"/>
      <point x="381" y="490" type="line" smooth="yes"/>
      <point x="421" y="490"/>
      <point x="449" y="462" type="qcurve" smooth="yes"/>
      <point x="466" y="445" type="line" smooth="yes"/>
      <point x="494" y="417"/>
      <point x="494" y="377" type="qcurve" smooth="yes"/>
      <point x="494" y="93" type="line" smooth="yes"/>
      <point x="494" y="64"/>
      <point x="474" y="43" type="qcurve" smooth="yes"/>
      <point x="442" y="11" type="line" smooth="yes"/>
      <point x="422" y="-9"/>
      <point x="393" y="-9" type="qcurve" smooth="yes"/>
      <point x="353" y="-9" type="line" smooth="yes"/>
      <point x="313" y="-9"/>
      <point x="313" y="-49" type="qcurve" smooth="yes"/>
      <point x="313" y="-174" type="line" smooth="yes"/>
      <point x="313" y="-214"/>
      <point x="273" y="-214" type="qcurve" smooth="yes"/>
      <point x="261" y="-214" type="line" smooth="yes"/>
      <point x="221" y="-214"/>
    </contour>
    <contour>
      <point x="313" y="122" type="line" smooth="yes"/>
      <point x="313" y="82"/>
      <point x="353" y="82" type="qcurve" smooth="yes"/>
      <point x="363" y="82" type="line" smooth="yes"/>
      <point x="403" y="82"/>
      <point x="403" y="122" type="qcurve" smooth="yes"/>
      <point x="403" y="361" type="line" smooth="yes"/>
      <point x="403" y="401"/>
      <point x="363" y="401" type="qcurve" smooth="yes"/>
      <point x="353" y="401" type="line" smooth="yes"/>
      <point x="313" y="401"/>
      <point x="313" y="361" type="qcurve" smooth="yes"/>
    </contour>
  </outline>
</glyph>
<glyph name="chi" format="2">
  <advance width="392"/>
  <unicode hex="03C7"/>
  <outline>
    <contour>
      <point x="131" y="243" type="qcurve"/>
      <point x="31" y="449" type="line" smooth="yes"/>
      <point x="26" y="459"/>
      <point x="26" y="466" type="qcurve" smooth="yes"/>
      <point x="26" y="485"/>
      <point x="53" y="485" type="qcurve" smooth="yes"/>
      <point x="68" y="485" type="line" smooth="yes"/>
      <point x="108" y="485"/>
      <point x="125" y="449" type="qcurve" smooth="yes"/>
      <point x="180" y="337" type="line"/>
      <point x="187" y="321"/>
      <point x="197" y="321" type="qcurve" smooth="yes"/>
      <point x="206" y="321"/>
      <point x="215" y="337" type="qcurve"/>
      <point x="262" y="428" type="line" smooth="yes"/>
      <point x="280" y="464"/>
      <point x="320" y="464" type="qcurve" smooth="yes"/>
      <point x="335" y="464" type="line" smooth="yes"/>
      <point x="362" y="464"/>
      <point x="362" y="444" type="qcurve" smooth="yes"/>
      <point x="362" y="438"/>
      <point x="357" y="428" type="qcurve" smooth="yes"/>
      <point x="261" y="245" type="line" smooth="yes"/>
      <point x="253" y="229"/>
      <point x="253" y="209" type="qcurve" smooth="yes"/>
      <point x="253" y="191"/>
      <point x="261" y="173" type="qcurve"/>
      <point x="357" y="-25" type="line" smooth="yes"/>
      <point x="362" y="-35"/>
      <point x="362" y="-42" type="qcurve" smooth="yes"/>
      <point x="362" y="-61"/>
      <point x="335" y="-61" type="qcurve" smooth="yes"/>
      <point x="321" y="-61" type="line" smooth="yes"/>
      <point x="280" y="-61"/>
      <point x="263" y="-25" type="qcurve" smooth="yes"/>
      <point x="212" y="79" type="line"/>
      <point x="205" y="95"/>
      <point x="194" y="95" type="qcurve" smooth="yes"/>
      <point x="185" y="95"/>
      <point x="176" y="79" type="qcurve" smooth="yes"/>
      <point x="137" y="5" type="line" smooth="yes"/>
      <point x="119" y="-31"/>
      <point x="79" y="-31" type="qcurve" smooth="yes"/>
      <point x="68" y="-31" type="line" smooth="yes"/>
      <point x="41" y="-31"/>
      <point x="41" y="-11" type="qcurve" smooth="yes"/>
      <point x="41" y="-5"/>
      <point x="46" y="5" type="qcurve" smooth="yes"/>
      <point x="131" y="171" type="line" smooth="yes"/>
      <point x="139" y="186"/>
      <point x="139" y="207" type="qcurve" smooth="yes"/>
      <point x="139" y="230"/>
    </contour>
  </outline>
</glyph>
<glyph name="omega" format="2">
  <advance width="600"/>
  <unicode hex="03C9"/>
  <outline>
    <contour>
      <point x="95" y="19" type="qcurve" smooth="yes"/>
      <point x="78" y="36" type="line" smooth="yes"/>
      <point x="50" y="64"/>
      <point x="50" y="104" type="qcurve" smooth="yes"/>
      <point x="50" y="445" type="line" smooth="yes"/>
      <point x="50" y="485"/>
      <point x="90" y="485" type="qcurve" smooth="yes"/>
      <point x="100" y="485" type="line" smooth="yes"/>
      <point x="140" y="485"/>
      <point x="140" y="445" type="qcurve" smooth="yes"/>
      <point x="140" y="122" type="line" smooth="yes"/>
      <point x="140" y="82"/>
      <point x="180" y="82" type="qcurve" smooth="yes"/>
      <point x="214" y="82" type="line" smooth="yes"/>
      <point x="254" y="82"/>
      <point x="254" y="122" type="qcurve" smooth="yes"/>
      <point x="254" y="445" type="line" smooth="yes"/>
      <point x="254" y="485"/>
      <point x="294" y="485" type="qcurve" smooth="yes"/>
      <point x="304" y="485" type="line" smooth="yes"/>
      <point x="344" y="485"/>
      <point x="344" y="445" type="qcurve" smooth="yes"/>
      <point x="344" y="122" type="line" smooth="yes"/>
      <point x="344" y="82"/>
      <point x="384" y="82" type="qcurve" smooth="yes"/>
      <point x="420" y="82" type="line" smooth="yes"/>
      <point x="460" y="82"/>
      <point x="460" y="122" type="qcurve" smooth="yes"/>
      <point x="460" y="445" type="line" smooth="yes"/>
      <point x="460" y="485"/>
      <point x="500" y="485" type="qcurve" smooth="yes"/>
      <point x="510" y="485" type="line" smooth="yes"/>
      <point x="550" y="485"/>
      <point x="550" y="445" type="qcurve" smooth="yes"/>
      <point x="550" y="104" type="line" smooth="yes"/>
      <point x="550" y="64"/>
      <point x="522" y="36" type="qcurve"/>
      <point x="506" y="19" type="line"/>
      <point x="478" y="-9"/>
      <point x="438" y="-9" type="qcurve" smooth="yes"/>
      <point x="376" y="-9" type="line" smooth="yes"/>
      <point x="344" y="-9"/>
      <point x="319" y="16" type="qcurve" smooth="yes"/>
      <point x="310" y="25"/>
      <point x="299" y="25" type="qcurve" smooth="yes"/>
      <point x="288" y="25"/>
      <point x="279" y="16" type="qcurve" smooth="yes"/>
      <point x="254" y="-9"/>
      <point x="219" y="-9" type="qcurve" smooth="yes"/>
      <point x="163" y="-9" type="line" smooth="yes"/>
      <point x="123" y="-9"/>
    </contour>
  </outline>
</glyph>
<glyph name="Acyr" format="2">
  <advance width="531"/>
  <unicode hex="0410"/>
  <anchor x="266" y="710" name="top"/>
  <outline>
    <contour>
      <point x="30" y="24" type="qcurve" smooth="yes"/>
      <point x="30" y="31"/>
      <point x="31" y="35" type="qcurve" smooth="yes"/>
      <point x="158" y="673" type="line" smooth="yes"/>
      <point x="165" y="709"/>
      <point x="201" y="709" type="qcurve" smooth="yes"/>
      <point x="327" y="709" type="line" smooth="yes"/>
      <point x="363" y="709"/>
      <point x="370" y="673" type="qcurve" smooth="yes"/>
      <point x="500" y="35" type="line" smooth="yes"/>
      <point x="501" y="31"/>
      <point x="501" y="23" type="qcurve" smooth="yes"/>
      <point x="501" y="-9"/>
      <point x="464" y="-9" type="qcurve" smooth="yes"/>
      <point x="452" y="-9" type="line" smooth="yes"/>
      <point x="417" y="-9"/>
      <point x="409" y="27" type="qcurve" smooth="yes"/>
      <point x="384" y="147" type="line" smooth="yes"/>
      <point x="376" y="183"/>
      <point x="341" y="183" type="qcurve" smooth="yes"/>
      <point x="190" y="183" type="line" smooth="yes"/>
      <point x="155" y="183"/>
      <point x="147" y="147" type="qcurve" smooth="yes"/>
      <point x="122" y="27" type="line" smooth="yes"/>
      <point x="114" y="-9"/>
      <point x="79" y="-9" type="qcurve" smooth="yes"/>
      <point x="67" y="-9" type="line" smooth="yes"/>
      <point x="49" y="-9"/>
      <point x="30" y="9"/>
    </contour>
    <contour>
      <point x="180" y="306" type="qcurve" smooth="yes"/>
      <point x="180" y="291"/>
      <point x="199" y="273"/>
      <point x="217" y="273" type="qcurve" smooth="yes"/>
      <point x="313" y="273" type="line" smooth="yes"/>
      <point x="350" y="273"/>
      <point x="350" y="305" type="qcurve" smooth="yes"/>
      <point x="350" y="313"/>
      <point x="349" y="317" type="qcurve" smooth="yes"/>
      <point x="294" y="582" type="line" smooth="yes"/>
      <point x="287" y="618"/>
      <point x="264" y="618" type="qcurve" smooth="yes"/>
      <point x="241" y="618"/>
      <point x="234" y="582" type="qcurve" smooth="yes"/>
      <point x="181" y="317" type="line" smooth="yes"/>
      <point x="180" y="313"/>
    </contour>
  </outline>
</glyph>
<glyph name="Zhecyr" format="2">
  <advance width="801"/>
  <unicode hex="0416"/>
  <outline>
    <contour>
      <point x="90" y="-9" type="line" smooth="yes"/>
      <point x="50" y="-9"/>
      <point x="50" y="31" type="qcurve" smooth="yes"/>
      <point x="50" y="134" type="line" smooth="yes"/>
      <point x="50" y="150"/>
      <point x="60" y="173"/>
      <point x="73" y="183" type="qcurve" smooth="yes"/>
      <point x="235" y="315" type="line" smooth="yes"/>
      <point x="251" y="328"/>
      <point x="251" y="344" type="qcurve" smooth="yes"/>
      <point x="251" y="359"/>
      <point x="238" y="372" type="qcurve" smooth="yes"/>
      <point x="70" y="543" type="line" smooth="yes"/>
      <point x="50" y="564"/>
      <point x="50" y="593" type="qcurve" smooth="yes"/>
      <point x="50" y="671" type="line" smooth="yes"/>
      <point x="50" y="711"/>
      <point x="90" y="711" type="qcurve" smooth="yes"/>
      <point x="101" y="711" type="line" smooth="yes"/>
      <point x="141" y="711"/>
      <point x="141" y="671" type="qcurve" smooth="yes"/>
      <point x="141" y="630" type="line" smooth="yes"/>
      <point x="141" y="601"/>
      <point x="161" y="580" type="qcurve" smooth="yes"/>
      <point x="306" y="433" type="line" smooth="yes"/>
      <point x="321" y="418"/>
      <point x="333" y="418" type="qcurve" smooth="yes"/>
      <point x="343" y="418"/>
      <point x="355" y="437"/>
      <point x="355" y="453" type="qcurve" smooth="yes"/>
      <point x="355" y="671" type="line" smooth="yes"/>
      <point x="355" y="711"/>
      <point x="395" y="711" type="qcurve" smooth="yes"/>
      <point x="406" y="711" type="line" smooth="yes"/>
      <point x="446" y="711"/>
      <point x="446" y="671" type="qcurve" smooth="yes"/>
      <point x="446" y="453" type="line" smooth="yes"/>
      <point x="446" y="437"/>
      <point x="458" y="418"/>
      <point x="468" y="418" type="qcurve" smooth="yes"/>
      <point x="480" y="418"/>
      <point x="495" y="433" type="qcurve" smooth="yes"/>
      <point x="640" y="580" type="line" smooth="yes"/>
      <point x="660" y="601"/>
      <point x="660" y="630" type="qcurve" smooth="yes"/>
      <point x="660" y="671" type="line" smooth="yes"/>
      <point x="660" y="711"/>
      <point x="700" y="711" type="qcurve" smooth="yes"/>
      <point x="711" y="711" type="line" smooth="yes"/>
      <point x="751" y="711"/>
      <point x="751" y="671" type="qcurve" smooth="yes"/>
      <point x="751" y="593" type="line" smooth="yes"/>
      <point x="751" y="564"/>
      <point x="731" y="543" type="qcurve" smooth="yes"/>
      <point x="563" y="372" type="line" smooth="yes"/>
      <point x="550" y="359"/>
      <point x="550" y="344" type="qcurve" smooth="yes"/>
      <point x="550" y="328"/>
      <point x="566" y="315" type="qcurve" smooth="yes"/>
      <point x="728" y="183" type="line" smooth="yes"/>
      <point x="741" y="173"/>
      <point x="751" y="150"/>
      <point x="751" y="134" type="qcurve" smooth="yes"/>
      <point x="751" y="31" type="line" smooth="yes"/>
      <point x="751" y="-9"/>
      <point x="711" y="-9" type="qcurve" smooth="yes"/>
      <point x="700" y="-9" type="line" smooth="yes"/>
      <point x="660" y="-9"/>
      <point x="660" y="31" type="qcurve" smooth="yes"/>
      <point x="660" y="90" type="line" smooth="yes"/>
      <point x="660" y="106"/>
      <point x="650" y="129"/>
      <point x="637" y="139" type="qcurve" smooth="yes"/>
      <point x="495" y="256" type="line"/>
      <point x="483" y="267"/>
      <point x="470" y="267" type="qcurve" smooth="yes"/>
      <point x="459" y="267"/>
      <point x="446" y="249"/>
      <point x="446" y="233" type="qcurve" smooth="yes"/>
      <point x="446" y="31" type="line" smooth="yes"/>
      <point x="446" y="-9"/>
      <point x="406" y="-9" type="qcurve" smooth="yes"/>
      <point x="395" y="-9" type="line" smooth="yes"/>
      <point x="355" y="-9"/>
      <point x="355" y="31" type="qcurve" smooth="yes"/>
      <point x="355" y="233" type="line" smooth="yes"/>
      <point x="355" y="249"/>
      <point x="342" y="267"/>
      <point x="331" y="267" type="qcurve" smooth="yes"/>
      <point x="318" y="267"/>
      <point x="306" y="256" type="qcurve"/>
      <point x="164" y="139" type="line" smooth="yes"/>
      <point x="151" y="129"/>
      <point x="141" y="106"/>
      <point x="141" y="90" type="qcurve" smooth="yes"/>
      <point x="141" y="31" type="line" smooth="yes"/>
      <point x="141" y="-9"/>
      <point x="101" y="-9" type="qcurve" smooth="yes"/>
    </contour>
  </outline>
</glyph>
<glyph name="Icyr" format="2">
  <advance width="505"/>
  <unicode hex="0418"/>
  <outline>
    <contour>
      <point x="90" y="-9" type="line" smooth="yes"/>
      <point x="50" y="-9"/>
      <point x="50" y="31" type="qcurve" smooth="yes"/>
      <point x="50" y="670" type="line" smooth="yes"/>
      <point x="50" y="710"/>
      <point x="90" y="710" type="qcurve" smooth="yes"/>
      <point x="101" y="710" type="line" smooth="yes"/>
      <point x="141" y="710"/>
      <point x="141" y="670" type="qcurve" smooth="yes"/>
      <point x="141" y="318" type="line" smooth="yes"/>
      <point x="141" y="302"/>
      <point x="152" y="285"/>
      <point x="161" y="285" type="qcurve" smooth="yes"/>
      <point x="168" y="285"/>
      <point x="183" y="298"/>
      <point x="188" y="309" type="qcurve" smooth="yes"/>
      <point x="349" y="680" type="line" smooth="yes"/>
      <point x="362" y="710"/>
      <point x="395" y="710" type="qcurve" smooth="yes"/>
      <point x="415" y="710" type="line" smooth="yes"/>
      <point x="455" y="710"/>
      <point x="455" y="670" type="qcurve" smooth="yes"/>
      <point x="455" y="31" type="line" smooth="yes"/>
      <point x="455" y="-9"/>
      <point x="415" y="-9" type="qcurve" smooth="yes"/>
      <point x="404" y="-9" type="line" smooth="yes"/>
      <point x="364" y="-9"/>
      <point x="364" y="31" type="qcurve" smooth="yes"/>
      <point x="364" y="400" type="line" smooth="yes"/>
      <point x="364" y="416"/>
      <point x="352" y="434"/>
      <point x="343" y="434" type="qcurve" smooth="yes"/>
      <point x="327" y="434"/>
      <point x="317" y="410" type="qcurve" smooth="yes"/>
      <point x="147" y="21" type="line" smooth="yes"/>
      <point x="134" y="-9"/>
      <point x="101" y="-9" type="qcurve" smooth="yes"/>
    </contour>
  </outline>
</glyph>
<glyph name="Ishortcyr" format="2">
  <advance width="505"/>
  <unicode hex="0419"/>
  <outline>
    <contour>
      <point x="90" y="-9" type="line" smooth="yes"/>
      <point x="50" y="-9"/>
      <point x="50" y="31" type="qcurve" smooth="yes"/>
      <point x="50" y="670" type="line" smooth="yes"/>
      <point x="50" y="710"/>
      <point x="90" y="710" type="qcurve" smooth="yes"/>
      <point x="101" y="710" type="line" smooth="yes"/>
      <point x="141" y="710"/>
      <point x="141" y="670" type="qcurve" smooth="yes"/>
      <point x="141" y="318" type="line" smooth="yes"/>
      <point x="141" y="302"/>
      <point x="152" y="285"/>
      <point x="161" y="285" type="qcurve" smooth="yes"/>
      <point x="168" y="285"/>
      <point x="183" y="298"/>
      <point x="188" y="309" type="qcurve" smooth="yes"/>
      <point x="349" y="680" type="line" smooth="yes"/>
      <point x="362" y="710"/>
      <point x="395" y="710" type="qcurve" smooth="yes"/>
      <point x="415" y="710" type="line" smooth="yes"/>
      <point x="455" y="710"/>
      <point x="455" y="670" type="qcurve" smooth="yes"/>
      <point x="455" y="31" type="line" smooth="yes"/>
      <point x="455" y="-9"/>
      <point x="415" y="-9" type="qcurve" smooth="yes"/>
      <point x="404" y="-9" type="line" smooth="yes"/>
      <point x="364" y="-9"/>
      <point x="364" y="31" type="qcurve" smooth="yes"/>
      <point x="364" y="400" type="line" smooth="yes"/>
      <point x="364" y="416"/>
      <point x="352" y="434"/>
      <point x="343" y="434" type="qcurve" smooth="yes"/>
      <point x="327" y="434"/>
      <point x="317" y="410" type="qcurve" smooth="yes"/>
      <point x="147" y="21" type="line" smooth="yes"/>
      <point x="134" y="-9"/>
      <point x="101" y="-9" type="qcurve" smooth="yes"/>
    </contour>
    <contour>
      <point x="129" y="861" type="qcurve" smooth="yes"/>
      <point x="129" y="871"/>
      <point x="146" y="887"/>
      <point x="161" y="887" type="qcurve" smooth="yes"/>
      <point x="189" y="887"/>
      <point x="192" y="856" type="qcurve" smooth="yes"/>
      <point x="194" y="834"/>
      <point x="230" y="806"/>
      <point x="253" y="806" type="qcurve" smooth="yes"/>
      <point x="276" y="806"/>
      <point x="314" y="834"/>
      <point x="316" y="856" type="qcurve" smooth="yes"/>
      <point x="319" y="887"/>
      <point x="347" y="887" type="qcurve" smooth="yes"/>
      <point x="362" y="887"/>
      <point x="378" y="871"/>
      <point x="378" y="861" type="qcurve" smooth="yes"/>
      <point x="378" y="837"/>
      <point x="356" y="794"/>
      <point x="321" y="763"/>
      <point x="276" y="745"/>
      <point x="253" y="745" type="qcurve" smooth="yes"/>
      <point x="230" y="745"/>
      <point x="186" y="763"/>
      <point x="151" y="794"/>
      <point x="129" y="837"/>
    </contour>
  </outline>
</glyph>
<glyph name="Elcyr" format="2">
  <advance width="580"/>
  <unicode hex="041B"/>
  <outline>
    <contour>
      <point x="30" y="31" type="qcurve" smooth="yes"/>
      <point x="30" y="43" type="line" smooth="yes"/>
      <point x="30" y="83"/>
      <point x="70" y="83" type="qcurve" smooth="yes"/>
      <point x="110" y="83"/>
      <point x="110" y="123" type="qcurve" smooth="yes"/>
      <point x="110" y="669" type="line" smooth="yes"/>
      <point x="110" y="709"/>
      <point x="150" y="709" type="qcurve" smooth="yes"/>
      <point x="490" y="709" type="line" smooth="yes"/>
      <point x="530" y="709"/>
      <point x="530" y="669" type="qcurve" smooth="yes"/>
      <point x="530" y="31" type="line" smooth="yes"/>
      <point x="530" y="-9"/>
      <point x="490" y="-9" type="qcurve" smooth="yes"/>
      <point x="479" y="-9" type="line" smooth="yes"/>
      <point x="439" y="-9"/>
      <point x="439" y="31" type="qcurve" smooth="yes"/>
      <point x="439" y="578" type="line" smooth="yes"/>
      <point x="439" y="618"/>
      <point x="399" y="618" type="qcurve" smooth="yes"/>
      <point x="241" y="618" type="line" smooth="yes"/>
      <point x="201" y="618"/>
      <point x="201" y="578" type="qcurve" smooth="yes"/>
      <point x="201" y="104" type="line" smooth="yes"/>
      <point x="201" y="64"/>
      <point x="173" y="36" type="qcurve" smooth="yes"/>
      <point x="156" y="19" type="line" smooth="yes"/>
      <point x="128" y="-9"/>
      <point x="88" y="-9" type="qcurve" smooth="yes"/>
      <point x="70" y="-9" type="line" smooth="yes"/>
      <point x="30" y="-9"/>
    </contour>
  </outline>
</glyph>
<glyph name="Pecyr" format="2">
  <advance width="520"/>
  <unicode hex="041F"/>
  <outline>
    <contour>
      <point x="90" y="-9" type="line" smooth="yes"/>
      <point x="50" y="-9"/>
      <point x="50" y="31" type="qcurve" smooth="yes"/>
      <point x="50" y="669" type="line" smooth="yes"/>
      <point x="50" y="709"/>
      <point x="90" y="709" type="qcurve" smooth="yes"/>
      <point x="430" y="709" type="line" smooth="yes"/>
      <point x="470" y="709"/>
      <point x="470" y="669" type="qcurve" smooth="yes"/>
      <point x="470" y="31" type="line" smooth="yes"/>
      <point x="470" y="-9"/>
      <point x="430" y="-9" type="qcurve" smooth="yes"/>
      <point x="419" y="-9" type="line" smooth="yes"/>
      <point x="379" y="-9"/>
      <point x="379" y="31" type="qcurve" smooth="yes"/>
      <point x="379" y="578" type="line" smooth="yes"/>
      <point x="379" y="618"/>
      <point x="339" y="618" type="qcurve" smooth="yes"/>
      <point x="181" y="618" type="line" smooth="yes"/>
      <point x="141" y="618"/>
      <point x="141" y="578" type="qcurve" smooth="yes"/>
      <point x="141" y="31" type="line" smooth="yes"/>
      <point x="141" y="-9"/>
      <point x="101" y="-9" type="qcurve" smooth="yes"/>
    </contour>
  </outline>
</glyph>
<glyph name="Tecyr" format="2">
  <advance width="400"/>
  <unicode hex="0422"/>
  <outline>
    <contour>
      <point x="155" y="32" type="qcurve" smooth="yes"/>
      <point x="155" y="579" type="line" smooth="yes"/>
      <point x="155" y="619"/>
      <point x="115" y="619" type="qcurve" smooth="yes"/>
      <point x="42" y="619" type="line" smooth="yes"/>
      <point x="2" y="619"/>
      <point x="2" y="659" type="qcurve" smooth="yes"/>
      <point x="2" y="670" type="line" smooth="yes"/>
      <point x="2" y="710"/>
      <point x="42" y="710" type="qcurve" smooth="yes"/>
      <point x="358" y="710" type="line" smooth="yes"/>
      <point x="398" y="710"/>
      <point x="398" y="670" type="qcurve" smooth="yes"/>
      <point x="398" y="659" type="line" smooth="yes"/>
      <point x="398" y="619"/>
      <point x="358" y="619" type="qcurve" smooth="yes"/>
      <point x="286" y="619" type="line" smooth="yes"/>
      <point x="246" y="619"/>
      <point x="246" y="579" type="qcurve" smooth="yes"/>
      <point x="246" y="32" type="line" smooth="yes"/>
      <point x="246" y="-8"/>
      <point x="206" y="-8" type="qcurve" smooth="yes"/>
      <point x="195" y="-8" type="line" smooth="yes"/>
      <point x="155" y="-8"/>
    </contour>
  </outline>
</glyph>
<glyph name="Ucyr" format="2">
  <advance width="542"/>
  <unicode hex="0423"/>
  <outline>
    <contour>
      <point x="107" y="31" type="qcurve" smooth="yes"/>
      <point x="107" y="42" type="line" smooth="yes"/>
      <point x="107" y="82"/>
      <point x="147" y="82" type="qcurve" smooth="yes"/>
      <point x="152" y="82" type="line" smooth="yes"/>
      <point x="193" y="82"/>
      <point x="206" y="120" type="qcurve"/>
      <point x="210" y="133" type="line" smooth="yes"/>
      <point x="216" y="151"/>
      <point x="216" y="171" type="qcurve" smooth="yes"/>
      <point x="216" y="193"/>
      <point x="210" y="209" type="qcurve" smooth="yes"/>
      <point x="43" y="672" type="line" smooth="yes"/>
      <point x="40" y="680"/>
      <point x="40" y="686" type="qcurve" smooth="yes"/>
      <point x="40" y="710"/>
      <point x="69" y="710" type="qcurve" smooth="yes"/>
      <point x="84" y="710" type="line" smooth="yes"/>
      <point x="124" y="710"/>
      <point x="138" y="672" type="qcurve" smooth="yes"/>
      <point x="257" y="340" type="line" smooth="yes"/>
      <point x="263" y="323"/>
      <point x="271" y="323" type="qcurve" smooth="yes"/>
      <point x="279" y="323"/>
      <point x="285" y="340" type="qcurve" smooth="yes"/>
      <point x="404" y="672" type="line" smooth="yes"/>
      <point x="418" y="710"/>
      <point x="458" y="710" type="qcurve" smooth="yes"/>
      <point x="473" y="710" type="line" smooth="yes"/>
      <point x="502" y="710"/>
      <point x="502" y="686" type="qcurve" smooth="yes"/>
      <point x="502" y="680"/>
      <point x="499" y="672" type="qcurve" smooth="yes"/>
      <point x="268" y="29" type="line" smooth="yes"/>
      <point x="254" y="-9"/>
      <point x="214" y="-9" type="qcurve" smooth="yes"/>
      <point x="147" y="-9" type="line" smooth="yes"/>
      <point x="107" y="-9"/>
    </contour>
  </outline>
</glyph>
<glyph name="Tsecyr" format="2">
  <advance width="591"/>
  <unicode hex="0426"/>
  <outline>
    <contour>
      <point x="90" y="-9" type="line" smooth="yes"/>
      <point x="50" y="-9"/>
      <point x="50" y="31" type="qcurve" smooth="yes"/>
      <point x="50" y="669" type="line" smooth="yes"/>
      <point x="50" y="709"/>
      <point x="90" y="709" type="qcurve" smooth="yes"/>
      <point x="101" y="709" type="line" smooth="yes"/>
      <point x="141" y="709"/>
      <point x="141" y="669" type="qcurve" smooth="yes"/>
      <point x="141" y="122" type="line" smooth="yes"/>
      <point x="141" y="82"/>
      <point x="181" y="82" type="qcurve" smooth="yes"/>
      <point x="339" y="82" type="line" smooth="yes"/>
      <point x="379" y="82"/>
      <point x="379" y="122" type="qcurve" smooth="yes"/>
      <point x="379" y="669" type="line" smooth="yes"/>
      <point x="379" y="709"/>
      <point x="419" y="709" type="qcurve" smooth="yes"/>
      <point x="430" y="709" type="line" smooth="yes"/>
      <point x="470" y="709"/>
      <point x="470" y="669" type="qcurve" smooth="yes"/>
      <point x="470" y="122" type="line" smooth="yes"/>
      <point x="470" y="82"/>
      <point x="510" y="82" type="qcurve" smooth="yes"/>
      <point x="521" y="82" type="line" smooth="yes"/>
      <point x="561" y="82"/>
      <point x="561" y="42" type="qcurve" smooth="yes"/>
      <point x="561" y="-97" type="line" smooth="yes"/>
      <point x="561" y="-137"/>
      <point x="521" y="-137" type="qcurve" smooth="yes"/>
      <point x="510" y="-137" type="line" smooth="yes"/>
      <point x="470" y="-137"/>
      <point x="470" y="-97" type="qcurve" smooth="yes"/>
      <point x="470" y="-49" type="line" smooth="yes"/>
      <point x="470" y="-9"/>
      <point x="430" y="-9" type="qcurve" smooth="yes"/>
    </contour>
  </outline>
</glyph>
<glyph name="Checyr" format="2">
  <advance width="540"/>
  <unicode hex="0427"/>
  <outline>
    <contour>
      <point x="163" y="255" type="line" smooth="yes"/>
      <point x="123" y="255"/>
      <point x="95" y="283" type="qcurve" smooth="yes"/>
      <point x="78" y="300" type="line" smooth="yes"/>
      <point x="50" y="328"/>
      <point x="50" y="368" type="qcurve" smooth="yes"/>
      <point x="50" y="670" type="line" smooth="yes"/>
      <point x="50" y="710"/>
      <point x="90" y="710" type="qcurve" smooth="yes"/>
      <point x="102" y="710" type="line" smooth="yes"/>
      <point x="142" y="710"/>
      <point x="142" y="670" type="qcurve" smooth="yes"/>
      <point x="142" y="385" type="line" smooth="yes"/>
      <point x="142" y="345"/>
      <point x="182" y="345" type="qcurve" smooth="yes"/>
      <point x="285" y="345" type="line" smooth="yes"/>
      <point x="325" y="345"/>
      <point x="353" y="373" type="qcurve" smooth="yes"/>
      <point x="370" y="390" type="line" smooth="yes"/>
      <point x="398" y="418"/>
      <point x="398" y="458" type="qcurve" smooth="yes"/>
      <point x="398" y="670" type="line" smooth="yes"/>
      <point x="398" y="710"/>
      <point x="438" y="710" type="qcurve" smooth="yes"/>
      <point x="450" y="710" type="line" smooth="yes"/>
      <point x="490" y="710"/>
      <point x="490" y="670" type="qcurve" smooth="yes"/>
      <point x="490" y="31" type="line" smooth="yes"/>
      <point x="490" y="-9"/>
      <point x="450" y="-9" type="qcurve" smooth="yes"/>
      <point x="438" y="-9" type="line" smooth="yes"/>
      <point x="398" y="-9"/>
      <point x="398" y="31" type="qcurve" smooth="yes"/>
      <point x="398" y="246" type="line" smooth="yes"/>
      <point x="398" y="286"/>
      <point x="389" y="286" type="qcurve" smooth="yes"/>
      <point x="384" y="286"/>
      <point x="376" y="278" type="qcurve" smooth="yes"/>
      <point x="353" y="255"/>
      <point x="321" y="255" type="qcurve" smooth="yes"/>
    </contour>
  </outline>
</glyph>
<glyph name="Shacyr" format="2">
  <advance width="747"/>
  <unicode hex="0428"/>
  <outline>
    <contour>
      <point x="50" y="31" type="qcurve" smooth="yes"/>
      <point x="50" y="669" type="line" smooth="yes"/>
      <point x="50" y="709"/>
      <point x="90" y="709" type="qcurve" smooth="yes"/>
      <point x="101" y="709" type="line" smooth="yes"/>
      <point x="141" y="709"/>
      <point x="141" y="669" type="qcurve" smooth="yes"/>
      <point x="141" y="122" type="line" smooth="yes"/>
      <point x="141" y="82"/>
      <point x="181" y="82" type="qcurve" smooth="yes"/>
      <point x="287" y="82" type="line" smooth="yes"/>
      <point x="327" y="82"/>
      <point x="327" y="122" type="qcurve" smooth="yes"/>
      <point x="327" y="669" type="line" smooth="yes"/>
      <point x="327" y="709"/>
      <point x="367" y="709" type="qcurve" smooth="yes"/>
      <point x="378" y="709" type="line" smooth="yes"/>
      <point x="418" y="709"/>
      <point x="418" y="669" type="qcurve" smooth="yes"/>
      <point x="418" y="122" type="line" smooth="yes"/>
      <point x="418" y="82"/>
      <point x="458" y="82" type="qcurve" smooth="yes"/>
      <point x="566" y="82" type="line" smooth="yes"/>
      <point x="606" y="82"/>
      <point x="606" y="122" type="qcurve" smooth="yes"/>
      <point x="606" y="669" type="line" smooth="yes"/>
      <point x="606" y="709"/>
      <point x="646" y="709" type="qcurve" smooth="yes"/>
      <point x="657" y="709" type="line" smooth="yes"/>
      <point x="697" y="709"/>
      <point x="697" y="669" type="qcurve" smooth="yes"/>
      <point x="697" y="31" type="line" smooth="yes"/>
      <point x="697" y="-9"/>
      <point x="657" y="-9" type="qcurve" smooth="yes"/>
      <point x="90" y="-9" type="line" smooth="yes"/>
      <point x="50" y="-9"/>
    </contour>
  </outline>
</glyph>
<glyph name="Hardcyr" format="2">
  <advance width="625"/>
  <unicode hex="042A"/>
  <outline>
    <contour>
      <point x="281" y="122" type="line" smooth="yes"/>
      <point x="281" y="82"/>
      <point x="321" y="82" type="qcurve" smooth="yes"/>
      <point x="455" y="82" type="line" smooth="yes"/>
      <point x="495" y="82"/>
      <point x="495" y="122" type="qcurve" smooth="yes"/>
      <point x="495" y="277" type="line" smooth="yes"/>
      <point x="495" y="317"/>
      <point x="455" y="317" type="qcurve" smooth="yes"/>
      <point x="321" y="317" type="line" smooth="yes"/>
      <point x="281" y="317"/>
      <point x="281" y="277" type="qcurve" smooth="yes"/>
    </contour>
    <contour>
      <point x="190" y="31" type="qcurve" smooth="yes"/>
      <point x="190" y="578" type="line" smooth="yes"/>
      <point x="190" y="618"/>
      <point x="150" y="618" type="qcurve" smooth="yes"/>
      <point x="50" y="618" type="line" smooth="yes"/>
      <point x="10" y="618"/>
      <point x="10" y="658" type="qcurve" smooth="yes"/>
      <point x="10" y="669" type="line" smooth="yes"/>
      <point x="10" y="709"/>
      <point x="50" y="709" type="qcurve" smooth="yes"/>
      <point x="241" y="709" type="line" smooth="yes"/>
      <point x="281" y="709"/>
      <point x="281" y="669" type="qcurve" smooth="yes"/>
      <point x="281" y="448" type="line" smooth="yes"/>
      <point x="281" y="408"/>
      <point x="321" y="408" type="qcurve" smooth="yes"/>
      <point x="454" y="408" type="line" smooth="yes"/>
      <point x="494" y="408"/>
      <point x="522" y="380" type="qcurve" smooth="yes"/>
      <point x="557" y="345" type="line" smooth="yes"/>
      <point x="585" y="317"/>
      <point x="585" y="277" type="qcurve" smooth="yes"/>
      <point x="585" y="104" type="line" smooth="yes"/>
      <point x="585" y="65"/>
      <point x="557" y="36" type="qcurve" smooth="yes"/>
      <point x="541" y="19" type="line" smooth="yes"/>
      <point x="514" y="-9"/>
      <point x="473" y="-9" type="qcurve" smooth="yes"/>
      <point x="230" y="-9" type="line" smooth="yes"/>
      <point x="190" y="-9"/>
    </contour>
  </outline>
</glyph>
<glyph name="Ereversedcyr" format="2">
  <advance width="499"/>
  <unicode hex="042D"/>
  <outline>
    <contour>
      <point x="103" y="11" type="qcurve" smooth="yes"/>
      <point x="70" y="44" type="line" smooth="yes"/>
      <point x="50" y="64"/>
      <point x="50" y="93" type="qcurve" smooth="yes"/>
      <point x="50" y="187" type="line" smooth="yes"/>
      <point x="50" y="227"/>
      <point x="90" y="227" type="qcurve" smooth="yes"/>
      <point x="101" y="227" type="line" smooth="yes"/>
      <point x="141" y="227"/>
      <point x="141" y="187" type="qcurve" smooth="yes"/>
      <point x="141" y="122" type="line" smooth="yes"/>
      <point x="141" y="82"/>
      <point x="181" y="82" type="qcurve" smooth="yes"/>
      <point x="318" y="82" type="line" smooth="yes"/>
      <point x="358" y="82"/>
      <point x="358" y="122" type="qcurve" smooth="yes"/>
      <point x="358" y="277" type="line" smooth="yes"/>
      <point x="358" y="317"/>
      <point x="318" y="317" type="qcurve" smooth="yes"/>
      <point x="191" y="317" type="line" smooth="yes"/>
      <point x="151" y="317"/>
      <point x="151" y="357" type="qcurve" smooth="yes"/>
      <point x="151" y="365" type="line" smooth="yes"/>
      <point x="151" y="405"/>
      <point x="191" y="405" type="qcurve" smooth="yes"/>
      <point x="318" y="405" type="line" smooth="yes"/>
      <point x="358" y="405"/>
      <point x="358" y="445" type="qcurve" smooth="yes"/>
      <point x="358" y="579" type="line" smooth="yes"/>
      <point x="358" y="619"/>
      <point x="318" y="619" type="qcurve" smooth="yes"/>
      <point x="181" y="619" type="line" smooth="yes"/>
      <point x="141" y="619"/>
      <point x="141" y="579" type="qcurve" smooth="yes"/>
      <point x="141" y="518" type="line" smooth="yes"/>
      <point x="141" y="478"/>
      <point x="101" y="478" type="qcurve" smooth="yes"/>
      <point x="90" y="478" type="line" smooth="yes"/>
      <point x="50" y="478"/>
      <point x="50" y="518" type="qcurve" smooth="yes"/>
      <point x="50" y="608" type="line" smooth="yes"/>
      <point x="50" y="637"/>
      <point x="70" y="657" type="qcurve" smooth="yes"/>
      <point x="103" y="690" type="line" smooth="yes"/>
      <point x="123" y="710"/>
      <point x="152" y="710" type="qcurve" smooth="yes"/>
      <point x="347" y="710" type="line" smooth="yes"/>
      <point x="376" y="710"/>
      <point x="396" y="690" type="qcurve" smooth="yes"/>
      <point x="429" y="657" type="line" smooth="yes"/>
      <point x="449" y="637"/>
      <point x="449" y="608" type="qcurve" smooth="yes"/>
      <point x="449" y="93" type="line" smooth="yes"/>
      <point x="449" y="64"/>
      <point x="429" y="44" type="qcurve" smooth="yes"/>
      <point x="396" y="11" type="line" smooth="yes"/>
      <point x="376" y="-9"/>
      <point x="347" y="-9" type="qcurve" smooth="yes"/>
      <point x="152" y="-9" type="line" smooth="yes"/>
      <point x="123" y="-9"/>
    </contour>
  </outline>
</glyph>
<glyph name="Yucyr" format="2">
  <advance width="695"/>
  <unicode hex="042E"/>
  <outline>
    <contour>
      <point x="90" y="-11" type="line" smooth="yes"/>
      <point x="50" y="-11"/>
      <point x="50" y="29" type="qcurve" smooth="yes"/>
      <point x="50" y="672" type="line" smooth="yes"/>
      <point x="50" y="712"/>
      <point x="90" y="712" type="qcurve" smooth="yes"/>
      <point x="102" y="712" type="line" smooth="yes"/>
      <point x="142" y="712"/>
      <point x="142" y="672" type="qcurve" smooth="yes"/>
      <point x="142" y="442" type="line" smooth="yes"/>
      <point x="142" y="402"/>
      <point x="182" y="402" type="qcurve" smooth="yes"/>
      <point x="209" y="402" type="line" smooth="yes"/>
      <point x="249" y="402"/>
      <point x="249" y="442" type="qcurve" smooth="yes"/>
      <point x="249" y="609" type="line" smooth="yes"/>
      <point x="249" y="638"/>
      <point x="269" y="659" type="qcurve" smooth="yes"/>
      <point x="301" y="691" type="line" smooth="yes"/>
      <point x="321" y="711"/>
      <point x="350" y="711" type="qcurve" smooth="yes"/>
      <point x="544" y="711" type="line" smooth="yes"/>
      <point x="572" y="711"/>
      <point x="593" y="690" type="qcurve" smooth="yes"/>
      <point x="625" y="658" type="line" smooth="yes"/>
      <point x="645" y="638"/>
      <point x="645" y="609" type="qcurve" smooth="yes"/>
      <point x="645" y="93" type="line" smooth="yes"/>
      <point x="645" y="64"/>
      <point x="625" y="43" type="qcurve" smooth="yes"/>
      <point x="593" y="11" type="line" smooth="yes"/>
      <point x="573" y="-9"/>
      <point x="544" y="-9" type="qcurve" smooth="yes"/>
      <point x="351" y="-9" type="line" smooth="yes"/>
      <point x="322" y="-9"/>
      <point x="302" y="11" type="qcurve" smooth="yes"/>
      <point x="269" y="44" type="line" smooth="yes"/>
      <point x="249" y="64"/>
      <point x="249" y="93" type="qcurve" smooth="yes"/>
      <point x="249" y="269" type="line" smooth="yes"/>
      <point x="249" y="309"/>
      <point x="209" y="309" type="qcurve" smooth="yes"/>
      <point x="182" y="309" type="line" smooth="yes"/>
      <point x="142" y="309"/>
      <point x="142" y="269" type="qcurve" smooth="yes"/>
      <point x="142" y="29" type="line" smooth="yes"/>
      <point x="142" y="-11"/>
      <point x="102" y="-11" type="qcurve" smooth="yes"/>
    </contour>
    <contour>
      <point x="340" y="122" type="line" smooth="yes"/>
      <point x="340" y="82"/>
      <point x="380" y="82" type="qcurve" smooth="yes"/>
      <point x="514" y="82" type="line" smooth="yes"/>
      <point x="554" y="82"/>
      <point x="554" y="122" type="qcurve" smooth="yes"/>
      <point x="554" y="580" type="line" smooth="yes"/>
      <point x="554" y="620"/>
      <point x="514" y="620" type="qcurve" smooth="yes"/>
      <point x="380" y="620" type="line" smooth="yes"/>
      <point x="340" y="620"/>
      <point x="340" y="580" type="qcurve" smooth="yes"/>
    </contour>
  </outline>
</glyph>
<glyph name="Yacyr" format="2">
  <advance width="485"/>
  <unicode hex="042F"/>
  <outline>
    <contour>
      <point x="90" y="-9" type="line" smooth="yes"/>
      <point x="50" y="-9"/>
      <point x="50" y="31" type="qcurve" smooth="yes"/>
      <point x="50" y="42" type="line" smooth="yes"/>
      <point x="50" y="82"/>
      <point x="90" y="82" type="qcurve" smooth="yes"/>
      <point x="103" y="82" type="line" smooth="yes"/>
      <point x="143" y="82"/>
      <point x="143" y="122" type="qcurve" smooth="yes"/>
      <point x="143" y="247" type="line" smooth="yes"/>
      <point x="143" y="287"/>
      <point x="136" y="287" type="qcurve" smooth="yes"/>
      <point x="130" y="287"/>
      <point x="110" y="307" type="qcurve" smooth="yes"/>
      <point x="81" y="336" type="line" smooth="yes"/>
      <point x="70" y="347"/>
      <point x="61" y="373"/>
      <point x="61" y="388" type="qcurve" smooth="yes"/>
      <point x="61" y="607" type="line" smooth="yes"/>
      <point x="61" y="636"/>
      <point x="81" y="656" type="qcurve" smooth="yes"/>
      <point x="114" y="689" type="line" smooth="yes"/>
      <point x="134" y="709"/>
      <point x="163" y="709" type="qcurve" smooth="yes"/>
      <point x="416" y="709" type="line" smooth="yes"/>
      <point x="456" y="709"/>
      <point x="456" y="669" type="qcurve" smooth="yes"/>
      <point x="456" y="32" type="line" smooth="yes"/>
      <point x="456" y="-8"/>
      <point x="416" y="-8" type="qcurve" smooth="yes"/>
      <point x="405" y="-8" type="line" smooth="yes"/>
      <point x="365" y="-8"/>
      <point x="365" y="32" type="qcurve" smooth="yes"/>
      <point x="365" y="247" type="line" smooth="yes"/>
      <point x="365" y="287"/>
      <point x="325" y="287" type="qcurve" smooth="yes"/>
      <point x="274" y="287" type="line" smooth="yes"/>
      <point x="234" y="287"/>
      <point x="234" y="247" type="qcurve" smooth="yes"/>
      <point x="234" y="93" type="line" smooth="yes"/>
      <point x="234" y="64"/>
      <point x="214" y="44" type="qcurve" smooth="yes"/>
      <point x="181" y="11" type="line" smooth="yes"/>
      <point x="161" y="-9"/>
      <point x="132" y="-9" type="qcurve" smooth="yes"/>
    </contour>
    <contour>
      <point x="152" y="417" type="line" smooth="yes"/>
      <point x="152" y="377"/>
      <point x="192" y="377" type="qcurve" smooth="yes"/>
      <point x="325" y="377" type="line" smooth="yes"/>
      <point x="365" y="377"/>
      <point x="365" y="417" type="qcurve" smooth="yes"/>
      <point x="365" y="578" type="line" smooth="yes"/>
      <point x="365" y="618"/>
      <point x="325" y="618" type="qcurve" smooth="yes"/>
      <point x="192" y="618" type="line" smooth="yes"/>
      <point x="152" y="618"/>
      <point x="152" y="578" type="qcurve" smooth="yes"/>
    </contour>
  </outline>
</glyph>
<glyph name="acyr" format="2">
  <advance width="438"/>
  <unicode hex="0430"/>
  <anchor x="214" y="485" name="top"/>
  <outline>
    <contour>
      <point x="103" y="12" type="qcurve" smooth="yes"/>
      <point x="70" y="45" type="line" smooth="yes"/>
      <point x="50" y="65"/>
      <point x="50" y="94" type="qcurve" smooth="yes"/>
      <point x="50" y="210" type="line" smooth="yes"/>
      <point x="50" y="225"/>
      <point x="60" y="248"/>
      <point x="71" y="259" type="qcurve" smooth="yes"/>
      <point x="103" y="291" type="line" smooth="yes"/>
      <point x="123" y="311"/>
      <point x="152" y="311" type="qcurve" smooth="yes"/>
      <point x="247" y="311" type="line" smooth="yes"/>
      <point x="287" y="311"/>
      <point x="287" y="351" type="qcurve" smooth="yes"/>
      <point x="287" y="354" type="line" smooth="yes"/>
      <point x="287" y="394"/>
      <point x="247" y="394" type="qcurve" smooth="yes"/>
      <point x="93" y="394" type="line" smooth="yes"/>
      <point x="53" y="394"/>
      <point x="53" y="434" type="qcurve" smooth="yes"/>
      <point x="53" y="445" type="line" smooth="yes"/>
      <point x="53" y="485"/>
      <point x="93" y="485" type="qcurve" smooth="yes"/>
      <point x="276" y="485" type="line" smooth="yes"/>
      <point x="305" y="485"/>
      <point x="325" y="465" type="qcurve" smooth="yes"/>
      <point x="358" y="432" type="line" smooth="yes"/>
      <point x="378" y="412"/>
      <point x="378" y="383" type="qcurve" smooth="yes"/>
      <point x="378" y="32" type="line" smooth="yes"/>
      <point x="378" y="-8"/>
      <point x="338" y="-8" type="qcurve" smooth="yes"/>
      <point x="152" y="-8" type="line" smooth="yes"/>
      <point x="123" y="-8"/>
    </contour>
    <contour>
      <point x="141" y="114" type="line" smooth="yes"/>
      <point x="141" y="74"/>
      <point x="181" y="74" type="qcurve" smooth="yes"/>
      <point x="247" y="74" type="line" smooth="yes"/>
      <point x="287" y="74"/>
      <point x="287" y="114" type="qcurve" smooth="yes"/>
      <point x="287" y="189" type="line" smooth="yes"/>
      <point x="287" y="229"/>
      <point x="247" y="229" type="qcurve" smooth="yes"/>
      <point x="181" y="229" type="line" smooth="yes"/>
      <point x="141" y="229"/>
      <point x="141" y="189" type="qcurve" smooth="yes"/>
    </contour>
  </outline>
</glyph>
<glyph name="becyr" format="2">
  <advance width="450"/>
  <unicode hex="0431"/>
  <outline>
    <contour>
      <point x="103" y="11" type="qcurve" smooth="yes"/>
      <point x="70" y="44" type="line" smooth="yes"/>
      <point x="50" y="64"/>
      <point x="50" y="93" type="qcurve" smooth="yes"/>
      <point x="50" y="612" type="line" smooth="yes"/>
      <point x="50" y="641"/>
      <point x="70" y="661" type="qcurve" smooth="yes"/>
      <point x="102" y="693" type="line" smooth="yes"/>
      <point x="122" y="713"/>
      <point x="151" y="713" type="qcurve" smooth="yes"/>
      <point x="360" y="713" type="line" smooth="yes"/>
      <point x="400" y="713"/>
      <point x="400" y="673" type="qcurve" smooth="yes"/>
      <point x="400" y="662" type="line" smooth="yes"/>
      <point x="400" y="622"/>
      <point x="360" y="622" type="qcurve" smooth="yes"/>
      <point x="181" y="622" type="line" smooth="yes"/>
      <point x="141" y="622"/>
      <point x="141" y="582" type="qcurve" smooth="yes"/>
      <point x="141" y="494" type="line" smooth="yes"/>
      <point x="141" y="454"/>
      <point x="150" y="454" type="qcurve" smooth="yes"/>
      <point x="155" y="454"/>
      <point x="163" y="462" type="qcurve" smooth="yes"/>
      <point x="186" y="485"/>
      <point x="218" y="485" type="qcurve" smooth="yes"/>
      <point x="299" y="485" type="line" smooth="yes"/>
      <point x="328" y="485"/>
      <point x="348" y="465" type="qcurve" smooth="yes"/>
      <point x="380" y="433" type="line"/>
      <point x="400" y="413"/>
      <point x="400" y="383" type="qcurve" smooth="yes"/>
      <point x="400" y="93" type="line" smooth="yes"/>
      <point x="400" y="65"/>
      <point x="380" y="43" type="qcurve" smooth="yes"/>
      <point x="348" y="11" type="line" smooth="yes"/>
      <point x="328" y="-9"/>
      <point x="299" y="-9" type="qcurve" smooth="yes"/>
      <point x="152" y="-9" type="line" smooth="yes"/>
      <point x="123" y="-9"/>
    </contour>
    <contour>
      <point x="141" y="122" type="line" smooth="yes"/>
      <point x="141" y="82"/>
      <point x="181" y="82" type="qcurve" smooth="yes"/>
      <point x="269" y="82" type="line" smooth="yes"/>
      <point x="309" y="82"/>
      <point x="309" y="122" type="qcurve" smooth="yes"/>
      <point x="309" y="354" type="line" smooth="yes"/>
      <point x="309" y="394"/>
      <point x="269" y="394" type="qcurve" smooth="yes"/>
      <point x="254" y="394" type="line" smooth="yes"/>
      <point x="214" y="394"/>
      <point x="186" y="366" type="qcurve" smooth="yes"/>
      <point x="169" y="349" type="line" smooth="yes"/>
      <point x="141" y="321"/>
      <point x="141" y="281" type="qcurve" smooth="yes"/>
    </contour>
  </outline>
</glyph>
<glyph name="vecyr" format="2">
  <advance width="386"/>
  <unicode hex="0432"/>
  <outline>
    <contour>
      <point x="90" y="-9" type="line" smooth="yes"/>
      <point x="50" y="-9"/>
      <point x="50" y="31" type="qcurve" smooth="yes"/>
      <point x="50" y="445" type="line" smooth="yes"/>
      <point x="50" y="485"/>
      <point x="90" y="485" type="qcurve" smooth="yes"/>
      <point x="233" y="485" type="line" smooth="yes"/>
      <point x="273" y="485"/>
      <point x="301" y="457" type="qcurve" smooth="yes"/>
      <point x="317" y="440" type="line" smooth="yes"/>
      <point x="345" y="412"/>
      <point x="345" y="372" type="qcurve" smooth="yes"/>
      <point x="345" y="315" type="line" smooth="yes"/>
      <point x="345" y="286"/>
      <point x="320" y="257" type="qcurve" smooth="yes"/>
      <point x="312" y="248"/>
      <point x="312" y="237" type="qcurve" smooth="yes"/>
      <point x="312" y="226"/>
      <point x="321" y="217" type="qcurve" smooth="yes"/>
      <point x="346" y="192"/>
      <point x="346" y="157" type="qcurve" smooth="yes"/>
      <point x="346" y="104" type="line" smooth="yes"/>
      <point x="346" y="64"/>
      <point x="318" y="36" type="qcurve" smooth="yes"/>
      <point x="302" y="19" type="line" smooth="yes"/>
      <point x="274" y="-9"/>
      <point x="234" y="-9" type="qcurve" smooth="yes"/>
    </contour>
    <contour>
      <point x="140" y="323" type="line" smooth="yes"/>
      <point x="140" y="283"/>
      <point x="180" y="283" type="qcurve" smooth="yes"/>
      <point x="215" y="283" type="line" smooth="yes"/>
      <point x="255" y="283"/>
      <point x="255" y="323" type="qcurve" smooth="yes"/>
      <point x="255" y="356" type="line" smooth="yes"/>
      <point x="255" y="396"/>
      <point x="215" y="396" type="qcurve" smooth="yes"/>
      <point x="180" y="396" type="line" smooth="yes"/>
      <point x="140" y="396"/>
      <point x="140" y="356" type="qcurve" smooth="yes"/>
    </contour>
    <contour>
      <point x="140" y="120" type="line" smooth="yes"/>
      <point x="140" y="80"/>
      <point x="180" y="80" type="qcurve" smooth="yes"/>
      <point x="216" y="80" type="line" smooth="yes"/>
      <point x="256" y="80"/>
      <point x="256" y="120" type="qcurve" smooth="yes"/>
      <point x="256" y="154" type="line" smooth="yes"/>
      <point x="256" y="194"/>
      <point x="216" y="194" type="qcurve" smooth="yes"/>
      <point x="180" y="194" type="line" smooth="yes"/>
      <point x="140" y="194"/>
      <point x="140" y="154" type="qcurve" smooth="yes"/>
    </contour>
  </outline>
</glyph>
<glyph name="decyr" format="2">
  <advance width="623"/>
  <unicode hex="0434"/>
  <outline>
    <contour>
      <point x="30" y="-87" type="qcurve" smooth="yes"/>
      <point x="30" y="43" type="line" smooth="yes"/>
      <point x="30" y="83"/>
      <point x="55" y="83" type="qcurve" smooth="yes"/>
      <point x="81" y="83"/>
      <point x="107" y="109" type="qcurve" smooth="yes"/>
      <point x="126" y="128" type="line" smooth="yes"/>
      <point x="154" y="156"/>
      <point x="154" y="196" type="qcurve" smooth="yes"/>
      <point x="154" y="445" type="line" smooth="yes"/>
      <point x="154" y="485"/>
      <point x="194" y="485" type="qcurve" smooth="yes"/>
      <point x="426" y="485" type="line" smooth="yes"/>
      <point x="466" y="485"/>
      <point x="466" y="445" type="qcurve" smooth="yes"/>
      <point x="466" y="123" type="line" smooth="yes"/>
      <point x="466" y="83"/>
      <point x="501" y="83" type="qcurve" smooth="yes"/>
      <point x="536" y="83"/>
      <point x="536" y="43" type="qcurve" smooth="yes"/>
      <point x="536" y="-87" type="line" smooth="yes"/>
      <point x="536" y="-127"/>
      <point x="496" y="-127" type="qcurve" smooth="yes"/>
      <point x="485" y="-127" type="line" smooth="yes"/>
      <point x="445" y="-127"/>
      <point x="445" y="-87" type="qcurve" smooth="yes"/>
      <point x="445" y="-44" type="line" smooth="yes"/>
      <point x="445" y="-8"/>
      <point x="405" y="-8" type="qcurve" smooth="yes"/>
      <point x="161" y="-8" type="line" smooth="yes"/>
      <point x="121" y="-8"/>
      <point x="121" y="-44" type="qcurve" smooth="yes"/>
      <point x="121" y="-87" type="line" smooth="yes"/>
      <point x="121" y="-127"/>
      <point x="81" y="-127" type="qcurve" smooth="yes"/>
      <point x="70" y="-127" type="line" smooth="yes"/>
      <point x="30" y="-127"/>
    </contour>
    <contour>
      <point x="214" y="92" type="qcurve" smooth="yes"/>
      <point x="214" y="83"/>
      <point x="232" y="83" type="qcurve" smooth="yes"/>
      <point x="335" y="83" type="line" smooth="yes"/>
      <point x="375" y="83"/>
      <point x="375" y="123" type="qcurve" smooth="yes"/>
      <point x="375" y="354" type="line" smooth="yes"/>
      <point x="375" y="394"/>
      <point x="335" y="394" type="qcurve" smooth="yes"/>
      <point x="285" y="394" type="line" smooth="yes"/>
      <point x="245" y="394"/>
      <point x="245" y="354" type="qcurve" smooth="yes"/>
      <point x="245" y="160" type="line" smooth="yes"/>
      <point x="245" y="146"/>
      <point x="233" y="116"/>
      <point x="223" y="106" type="qcurve" smooth="yes"/>
      <point x="221" y="104"/>
      <point x="214" y="96"/>
    </contour>
  </outline>
</glyph>
<glyph name="zhecyr" format="2">
  <advance width="576"/>
  <unicode hex="0436"/>
  <outline>
    <contour>
      <point x="25" y="8" type="qcurve" smooth="yes"/>
      <point x="25" y="16"/>
      <point x="31" y="25" type="qcurve" smooth="yes"/>
      <point x="148" y="210" type="line" smooth="yes"/>
      <point x="157" y="225"/>
      <point x="157" y="242" type="qcurve" smooth="yes"/>
      <point x="157" y="261"/>
      <point x="147" y="277" type="qcurve" smooth="yes"/>
      <point x="32" y="452" type="line"/>
      <point x="26" y="463"/>
      <point x="26" y="469" type="qcurve" smooth="yes"/>
      <point x="26" y="485"/>
      <point x="50" y="485" type="qcurve" smooth="yes"/>
      <point x="74" y="485" type="line" smooth="yes"/>
      <point x="114" y="485"/>
      <point x="136" y="452" type="qcurve" smooth="yes"/>
      <point x="218" y="327" type="line" smooth="yes"/>
      <point x="228" y="312"/>
      <point x="235" y="312" type="qcurve" smooth="yes"/>
      <point x="243" y="312"/>
      <point x="243" y="335" type="qcurve" smooth="yes"/>
      <point x="243" y="451" type="line" smooth="yes"/>
      <point x="243" y="491"/>
      <point x="283" y="491" type="qcurve" smooth="yes"/>
      <point x="293" y="491" type="line" smooth="yes"/>
      <point x="333" y="491"/>
      <point x="333" y="451" type="qcurve" smooth="yes"/>
      <point x="333" y="335" type="line" smooth="yes"/>
      <point x="333" y="312"/>
      <point x="341" y="312" type="qcurve" smooth="yes"/>
      <point x="348" y="312"/>
      <point x="358" y="327" type="qcurve" smooth="yes"/>
      <point x="440" y="452" type="line" smooth="yes"/>
      <point x="462" y="485"/>
      <point x="502" y="485" type="qcurve" smooth="yes"/>
      <point x="526" y="485" type="line" smooth="yes"/>
      <point x="550" y="485"/>
      <point x="550" y="469" type="qcurve" smooth="yes"/>
      <point x="550" y="463"/>
      <point x="544" y="452" type="qcurve"/>
      <point x="429" y="277" type="line" smooth="yes"/>
      <point x="419" y="261"/>
      <point x="419" y="242" type="qcurve" smooth="yes"/>
      <point x="419" y="225"/>
      <point x="428" y="210" type="qcurve" smooth="yes"/>
      <point x="545" y="25" type="line" smooth="yes"/>
      <point x="551" y="16"/>
      <point x="551" y="8" type="qcurve" smooth="yes"/>
      <point x="551" y="-9"/>
      <point x="526" y="-9" type="qcurve" smooth="yes"/>
      <point x="499" y="-9" type="line" smooth="yes"/>
      <point x="461" y="-9"/>
      <point x="438" y="25" type="qcurve"/>
      <point x="356" y="159" type="line" smooth="yes"/>
      <point x="347" y="174"/>
      <point x="340" y="174" type="qcurve" smooth="yes"/>
      <point x="333" y="174"/>
      <point x="333" y="152" type="qcurve" smooth="yes"/>
      <point x="333" y="27" type="line" smooth="yes"/>
      <point x="333" y="-13"/>
      <point x="293" y="-13" type="qcurve" smooth="yes"/>
      <point x="283" y="-13" type="line" smooth="yes"/>
      <point x="243" y="-13"/>
      <point x="243" y="27" type="qcurve" smooth="yes"/>
      <point x="243" y="152" type="line" smooth="yes"/>
      <point x="243" y="174"/>
      <point x="236" y="174" type="qcurve" smooth="yes"/>
      <point x="229" y="174"/>
      <point x="220" y="159" type="qcurve" smooth="yes"/>
      <point x="138" y="25" type="line"/>
      <point x="115" y="-9"/>
      <point x="77" y="-9" type="qcurve" smooth="yes"/>
      <point x="50" y="-9" type="line" smooth="yes"/>
      <point x="25" y="-9"/>
    </contour>
    <contour>
      <point x="545" y="-91" type="line"/>
      <point x="544" y="-89" type="line"/>
      <point x="545" y="-89" type="line"/>
    </contour>
    <contour>
      <point x="31" y="-91" type="line"/>
      <point x="31" y="-89" type="line"/>
      <point x="32" y="-89" type="line"/>
    </contour>
  </outline>
</glyph>
<glyph name="ishortcyr" format="2">
  <advance width="409"/>
  <unicode hex="0439"/>
  <outline>
    <contour>
      <point x="90" y="-9" type="line" smooth="yes"/>
      <point x="50" y="-9"/>
      <point x="50" y="31" type="qcurve" smooth="yes"/>
      <point x="50" y="445" type="line" smooth="yes"/>
      <point x="50" y="485"/>
      <point x="90" y="485" type="qcurve" smooth="yes"/>
      <point x="100" y="485" type="line" smooth="yes"/>
      <point x="140" y="485"/>
      <point x="140" y="445" type="qcurve" smooth="yes"/>
      <point x="140" y="243" type="line" smooth="yes"/>
      <point x="140" y="221"/>
      <point x="145" y="221" type="qcurve" smooth="yes"/>
      <point x="150" y="221"/>
      <point x="158" y="239" type="qcurve" smooth="yes"/>
      <point x="249" y="448" type="line" smooth="yes"/>
      <point x="265" y="485"/>
      <point x="305" y="485" type="qcurve" smooth="yes"/>
      <point x="319" y="485" type="line" smooth="yes"/>
      <point x="359" y="485"/>
      <point x="359" y="445" type="qcurve" smooth="yes"/>
      <point x="359" y="31" type="line" smooth="yes"/>
      <point x="359" y="-9"/>
      <point x="319" y="-9" type="qcurve" smooth="yes"/>
      <point x="309" y="-9" type="line" smooth="yes"/>
      <point x="269" y="-9"/>
      <point x="269" y="31" type="qcurve" smooth="yes"/>
      <point x="269" y="245" type="line" smooth="yes"/>
      <point x="269" y="267"/>
      <point x="264" y="267" type="qcurve" smooth="yes"/>
      <point x="258" y="267"/>
      <point x="251" y="249" type="qcurve"/>
      <point x="155" y="28" type="line"/>
      <point x="138" y="-9"/>
      <point x="99" y="-9" type="qcurve" smooth="yes"/>
    </contour>
    <contour>
      <point x="81" y="635" type="qcurve" smooth="yes"/>
      <point x="81" y="645"/>
      <point x="98" y="661"/>
      <point x="113" y="661" type="qcurve" smooth="yes"/>
      <point x="141" y="661"/>
      <point x="144" y="630" type="qcurve" smooth="yes"/>
      <point x="146" y="608"/>
      <point x="182" y="580"/>
      <point x="205" y="580" type="qcurve" smooth="yes"/>
      <point x="228" y="580"/>
      <point x="266" y="608"/>
      <point x="268" y="630" type="qcurve" smooth="yes"/>
      <point x="271" y="661"/>
      <point x="299" y="661" type="qcurve" smooth="yes"/>
      <point x="314" y="661"/>
      <point x="330" y="645"/>
      <point x="330" y="635" type="qcurve" smooth="yes"/>
      <point x="330" y="611"/>
      <point x="308" y="568"/>
      <point x="273" y="537"/>
      <point x="228" y="519"/>
      <point x="205" y="519" type="qcurve" smooth="yes"/>
      <point x="182" y="519"/>
      <point x="138" y="537"/>
      <point x="103" y="568"/>
      <point x="81" y="611"/>
    </contour>
  </outline>
</glyph>
